SplineFontDB: 3.0
FontName: Corben
FullName: Corben
FamilyName: Corben
Weight: Bold
Copyright: Copyright (c) 2010 by vernon adams. All rights reserved.
Version: 1.000
ItalicAngle: 0
UnderlinePosition: -103
UnderlineWidth: 102
Ascent: 1638
Descent: 410
sfntRevision: 0x00010000
LayerCount: 2
Layer: 0 0 "Back"  1
Layer: 1 0 "Fore"  0
NeedsXUIDChange: 1
XUID: [1021 208 2069950124 10916714]
FSType: 4
OS2Version: 2
OS2_WeightWidthSlopeOnly: 0
OS2_UseTypoMetrics: 1
CreationTime: 1292423813
ModificationTime: 1313844141
PfmFamily: 17
TTFWeight: 700
TTFWidth: 5
LineGap: 0
VLineGap: 0
Panose: 2 0 5 5 2 0 0 2 0 4
OS2TypoAscent: 662
OS2TypoAOffset: 1
OS2TypoDescent: -530
OS2TypoDOffset: 1
OS2TypoLinegap: 0
OS2WinAscent: -499
OS2WinAOffset: 1
OS2WinDescent: -64
OS2WinDOffset: 1
HheadAscent: -499
HheadAOffset: 1
HheadDescent: 64
HheadDOffset: 1
OS2SubXSize: 1434
OS2SubYSize: 1331
OS2SubXOff: 0
OS2SubYOff: 287
OS2SupXSize: 1434
OS2SupYSize: 1331
OS2SupXOff: 0
OS2SupYOff: 977
OS2StrikeYSize: 102
OS2StrikeYPos: 512
OS2Vendor: '    '
OS2CodePages: 00000093.00000000
OS2UnicodeRanges: a00002af.4000004a.00000000.00000000
Lookup: 1 0 0 "'aalt' Access All Alternates in Latin lookup 0"  {"'aalt' Access All Alternates in Latin lookup 0 subtable"  } ['aalt' ('latn' <'dflt' > ) ]
Lookup: 1 0 0 "'smcp' Lowercase to Small Capitals in Latin lookup 1"  {"'smcp' Lowercase to Small Capitals in Latin lookup 1 subtable"  } ['smcp' ('latn' <'dflt' > ) ]
Lookup: 1 0 0 "'onum' Oldstyle Figures in Latin lookup 2"  {"'onum' Oldstyle Figures in Latin lookup 2 subtable" ("oldstyle" ) } ['onum' ('latn' <'dflt' > ) ]
Lookup: 4 0 1 "'liga' Standard Ligatures in Latin lookup 3"  {"'liga' Standard Ligatures in Latin lookup 3 subtable"  } ['liga' ('latn' <'dflt' > ) ]
Lookup: 258 0 0 "'kern' Horizontal Kerning in Latin lookup 0"  {"'kern' Horizontal Kerning in Latin lookup 0 per glyph data 0"  "'kern' Horizontal Kerning in Latin lookup 0 kerning class 1"  } ['kern' ('latn' <'dflt' > ) ]
MarkAttachClasses: 1

StartChar: exclam
Encoding: 33 33 4
Width: 811
GlyphClass: 2
Flags: HW
LayerCount: 2
Fore
SplineSet
403 -20 m 0
 236.072265625 -20 77 59.2607421875 77 227 c 256
 77 396.85546875 236.896484375 475 403 475 c 0
 572.204101562 475 728 397.10546875 728 227 c 0
 728 55.9306640625 570.500976562 -20 403 -20 c 0
405 1663 m 0
 603.397460938 1663 729 1592.02539062 729 1399 c 0
 729 1209.48925781 670.665039062 1019.28417969 638 858 c 128
 607.166992188 705.759765625 582.888671875 567 405 567 c 0
 291.366210938 567 252.522460938 633.607421875 225.5 724.5 c 128
 174.03515625 897.608398438 148.578125 1087.3515625 105 1282 c 0
 95.4873046875 1320.04980469 89 1360.72851562 89 1405 c 0
 89 1591.91113281 212.918945312 1663 405 1663 c 0
EndSplineSet
Validated: 524289
EndChar

StartChar: numbersign
Encoding: 35 35 6
Width: 2056
GlyphClass: 2
Flags: HW
LayerCount: 2
Fore
SplineSet
1776 1683 m 0
 1776 1546.203125 1736.65039062 1442.48535156 1710 1294 c 1
 1853.60253906 1294 2007 1284.67285156 2007 1141 c 0
 2007 1020.72070312 1848.59960938 1024 1727 1024 c 2
 1661 1024 l 1
 1598 684 l 1
 1745.99707031 684 1911 679.807617188 1911 532 c 0
 1911 410.27734375 1749.2578125 414 1626 414 c 2
 1551 414 l 1
 1483 45 l 2
 1465.6875 -48.4873046875 1405.40039062 -123 1293 -123 c 0
 1144.93457031 -123 1037 -44.896484375 1037 96 c 0
 1037 113.333007812 1040.51171875 128.654296875 1043 143 c 2
 1090 414 l 1
 783 414 l 1
 715 45 l 2
 697.6875 -48.4873046875 637.400390625 -123 525 -123 c 0
 376.934570312 -123 269 -44.896484375 269 96 c 0
 269 113.333007812 272.51171875 128.654296875 275 143 c 2
 322 414 l 1
 308 414 l 2
 163.657226562 414 50 424.639648438 50 571 c 0
 50 679.224609375 168.234375 684 277 684 c 2
 371 684 l 1
 393.793945312 804.806640625 411.044921875 901.049804688 433 1024 c 1
 408 1024 l 2
 274.286132812 1024 148 1037.14355469 148 1169.5 c 130
 148 1180 l 2
 148 1288.80273438 265.501953125 1294 375 1294 c 2
 482 1294 l 1
 559 1726 l 2
 575.431640625 1821.30175781 636.908203125 1894 750 1894 c 0
 895.067382812 1894 1008 1820.86328125 1008 1683 c 0
 1008 1546.203125 968.650390625 1442.48535156 942 1294 c 1
 1250 1294 l 1
 1327 1726 l 2
 1343.43164062 1821.30175781 1404.90820312 1894 1518 1894 c 0
 1663.06738281 1894 1776 1820.86328125 1776 1683 c 0
1201 1024 m 1
 893 1024 l 1
 830 684 l 1
 1139 684 l 1
 1201 1024 l 1
EndSplineSet
Validated: 524321
EndChar

StartChar: dollar
Encoding: 36 36 7
Width: 1607
GlyphClass: 2
Flags: HW
LayerCount: 2
Fore
SplineSet
907 1617 m 1
 1173.17871094 1601.23925781 1470 1499.47265625 1470 1235 c 0
 1470 1080.37988281 1339.55566406 1008 1186 1008 c 0
 1061.57421875 1008 923 1056.81445312 923 1178 c 0
 923 1251.74902344 1010 1239.72265625 1010 1298 c 0
 1010 1342.64941406 940.545898438 1359.35058594 887 1367 c 1
 861 1057 l 1
 928 1034 l 1
 1199.51855469 938.169921875 1540 834.30078125 1540 471 c 0
 1540 78.3408203125 1210.92089844 -18 817 -18 c 0
 802.227539062 -18 788.772460938 -17 774 -17 c 1
 769.53125 -66.158203125 764 -109.5703125 764 -147 c 0
 764 -195.444335938 731.555664062 -232 676 -232 c 2
 666.5 -232 l 130
 606.739257812 -232 569 -203.092773438 569 -145 c 0
 569 -102.07421875 577.061523438 -52.298828125 582 4 c 1
 358.999023438 46.884765625 76 157.7265625 76 414 c 0
 76 534.854492188 147.517578125 614 266 614 c 0
 412.97265625 614 518 504.3671875 518 356 c 0
 518 317.361328125 567.99609375 291.76953125 605 278 c 1
 628 549 l 1
 363.116210938 632.879882812 106 761.956054688 106 1110 c 0
 106 1462.42382812 386.368164062 1592.640625 716 1616 c 1
 731 1792 l 1
 731 1841.72363281 763.90234375 1875 815 1875 c 0
 880.45703125 1875 920 1850.25 920 1787 c 2
 920 1776 l 1
 912.712890625 1732.27832031 912.334960938 1678.35449219 907 1617 c 1
796 260 m 1
 883.774414062 268.126953125 960 295.958007812 960 385 c 0
 960 445.177734375 872.008789062 471.705078125 815 491 c 1
 796 260 l 1
695 1363 m 1
 634.45703125 1350.53515625 594 1326.37011719 594 1257 c 0
 594 1199.16796875 637.140625 1165.22363281 677 1139 c 1
 683.340820312 1212.54980469 689.43359375 1290.6328125 695 1363 c 1
EndSplineSet
Validated: 524289
EndChar

StartChar: percent
Encoding: 37 37 8
Width: 3378
GlyphClass: 2
Flags: HW
LayerCount: 2
Fore
SplineSet
2116 1929 m 0
 2250.1015625 1929 2360 1852.92578125 2360 1726 c 0
 2360 1682.06445312 2343.75390625 1645.91796875 2327 1616 c 0
 2064.8515625 1129.15332031 1781.19140625 623.5703125 1516.5 137.5 c 128
 1466.44921875 45.587890625 1426.21484375 -53 1288 -53 c 0
 1162.87304688 -53 1049 32.5126953125 1049 145 c 0
 1049 189.900390625 1064.03808594 227.7109375 1081 258 c 0
 1353.13378906 768.250976562 1650.36132812 1291.95605469 1925 1802 c 0
 1958.76757812 1866.72070312 2018.15234375 1929 2116 1929 c 0
56 1225 m 0
 56 1660.01464844 332.513671875 1929 761 1929 c 0
 1154.98730469 1929 1426 1693.66992188 1426 1298 c 0
 1426 859.08984375 1151.57226562 579 720 579 c 0
 319.188476562 579 56 821.848632812 56 1225 c 0
771 788 m 0
 879.758789062 788 885 1059.40722656 885 1188 c 0
 885 1383.5625 857.485351562 1581.77539062 771 1685 c 128
 750.333007812 1709.66699219 729.666992188 1722 709 1722 c 0
 600.611328125 1722 595 1474.66308594 595 1349 c 0
 595 1144.40136719 620.522460938 936.3828125 709 826.5 c 128
 729.666992188 800.833007812 750.333007812 788 771 788 c 0
1936 523 m 0
 1936 958.014648438 2212.51367188 1227 2641 1227 c 0
 3034.98730469 1227 3306 991.669921875 3306 596 c 0
 3306 157.08984375 3031.57226562 -123 2600 -123 c 0
 2199.18847656 -123 1936 119.848632812 1936 523 c 0
2651 86 m 0
 2759.75878906 86 2765 357.407226562 2765 486 c 0
 2765 681.5625 2737.48535156 879.775390625 2651 983 c 128
 2630.33300781 1007.66699219 2609.66699219 1020 2589 1020 c 0
 2480.61132812 1020 2475 772.663085938 2475 647 c 0
 2475 442.401367188 2500.52246094 234.3828125 2589 124.5 c 128
 2609.66699219 98.8330078125 2630.33300781 86 2651 86 c 0
EndSplineSet
Validated: 524289
EndChar

StartChar: ampersand
Encoding: 38 38 9
Width: 2218
GlyphClass: 2
Flags: HW
LayerCount: 2
Fore
SplineSet
1142 1358 m 0
 1078.02929688 1358 1025.13085938 1413 949 1413 c 0
 847.444335938 1413 798 1284.01855469 798 1182 c 0
 798 1103.56445312 833.010742188 1048.5625 898 1030 c 0
 925.568359375 1022.12597656 943 999.370117188 943 965 c 0
 943 900.794921875 904.086914062 854 841 854 c 0
 753.186523438 854 736 718.107421875 736 627 c 0
 736 413.618164062 870.9453125 197 1081 197 c 0
 1278.14257812 197 1367 302.35546875 1367 496 c 0
 1367 639.474609375 1327.02929688 763.345703125 1296 879 c 1
 1162.40917969 879 1118.5625 807.63671875 1078.5 719.5 c 128
 1076.83300781 715.833007812 1076 713.666992188 1076 713 c 2
 954 807 l 1
 1008.13867188 1075.68261719 1211.61425781 1352 1519 1352 c 0
 1650.68847656 1352 1730.62890625 1284 1857 1284 c 0
 2001.68945312 1284 1991.97070312 1380.97070312 2059 1448 c 1
 2178 1354 l 1
 2129.32128906 1113.0390625 1988.44433594 930.984375 1787 846 c 1
 1848.33300781 710.666992188 1879 589.666992188 1879 483 c 0
 1879 348.416992188 1819.48632812 252.930664062 1746 183 c 128
 1580.22753906 25.248046875 1299.65039062 -49 980 -49 c 256
 540.456054688 -49 71 91.169921875 71 524 c 0
 71 737.1015625 175.7734375 890.18359375 292 993 c 1
 210.431640625 1045.20410156 145 1126.48632812 145 1245 c 0
 145 1537.32226562 461.35546875 1665 769 1665 c 0
 945.96875 1665 1203 1599.40917969 1203 1425 c 0
 1203 1387.83984375 1180.01757812 1358 1142 1358 c 0
EndSplineSet
Validated: 524289
EndChar

StartChar: quotesingle
Encoding: 39 39 10
Width: 723
GlyphClass: 2
Flags: HW
LayerCount: 2
Fore
SplineSet
353 1663 m 0
 530.696289062 1663 643 1599.13964844 643 1426 c 0
 643 1263.15332031 592.788085938 1092.68164062 562.5 959 c 128
 533.09375 829.208007812 509.032226562 743 353 743 c 0
 209.169921875 743 190.013671875 839.04296875 162 959.5 c 128
 130.428710938 1095.25390625 71 1269.35449219 71 1433 c 0
 71 1599.82421875 181.466796875 1663 353 1663 c 0
EndSplineSet
Validated: 524289
EndChar

StartChar: parenleft
Encoding: 40 40 11
Width: 1093
GlyphClass: 2
Flags: HW
LayerCount: 2
Fore
SplineSet
1056 23 m 0
 1056 -68.0791015625 997.500976562 -117 904 -117 c 2
 886.5 -117 l 130
 880.166992188 -117 873.666992188 -116.333007812 867 -115 c 0
 397.607421875 -55.9150390625 77 278.252929688 77 797 c 0
 77 1321.31640625 394.67578125 1656.546875 867 1716 c 0
 873.666992188 1717.33300781 880.166992188 1718 886.5 1718 c 130
 904 1718 l 2
 996.94140625 1718 1056 1669.46386719 1056 1579 c 0
 1056 1519.7421875 1030.38476562 1462.95410156 988 1446 c 0
 767.658203125 1352.29101562 640 1110.90039062 640 801 c 256
 640 491.950195312 767.672851562 246.169921875 988 155 c 0
 1030.29492188 138.08203125 1056 81.5439453125 1056 23 c 0
EndSplineSet
Validated: 524289
EndChar

StartChar: parenright
Encoding: 41 41 12
Width: 1102
GlyphClass: 2
Flags: HW
LayerCount: 2
Fore
SplineSet
45 1579 m 0
 45 1669.45703125 104.06640625 1718 197 1718 c 2
 214.5 1718 l 130
 220.833007812 1718 227 1717.33300781 233 1716 c 0
 706.76171875 1656.36523438 1024 1322.17089844 1024 797 c 0
 1024 277.15234375 701.297851562 -56.052734375 233 -115 c 0
 227 -116.333007812 220.833007812 -117 214.5 -117 c 130
 197 -117 l 2
 103.491210938 -117 45 -68.087890625 45 23 c 0
 45 81.802734375 70.880859375 138.15234375 113 155 c 0
 334.537109375 246.670898438 461 491.907226562 461 801 c 256
 461 1110.90136719 332.400390625 1352.69140625 113 1446 c 0
 70.38671875 1463.04492188 45 1519.98828125 45 1579 c 0
EndSplineSet
Validated: 524289
EndChar

StartChar: asterisk
Encoding: 42 42 13
Width: 2079
GlyphClass: 2
Flags: HW
LayerCount: 2
Fore
SplineSet
765 797 m 0
 516.255859375 817.168945312 52 801.193359375 52 1073 c 0
 52 1243.12890625 145.48046875 1432 300 1432 c 0
 353.291015625 1432 406.9921875 1409.42382812 452 1390.5 c 128
 599.744140625 1328.38085938 719.592773438 1257.18359375 853 1171 c 1
 820.131835938 1356.47460938 753 1547.92675781 753 1741 c 0
 753 1906.98632812 864.1171875 1970 1035 1970 c 256
 1205.55859375 1970 1318 1906.43847656 1318 1741 c 0
 1318 1672.53808594 1300.20800781 1616.3203125 1288.5 1557 c 128
 1263.53027344 1430.48730469 1240.75683594 1299.41210938 1218 1171 c 1
 1350.54589844 1257.39160156 1469.546875 1328.99121094 1617.5 1390.5 c 128
 1663.65429688 1409.6875 1716.34082031 1432 1771 1432 c 0
 1924.02832031 1432 2019 1242.12597656 2019 1073 c 0
 2019 801.075195312 1553.86035156 817.373046875 1306 797 c 0
 1306 796.333007812 1311.33300781 791.166992188 1322 781.5 c 128
 1429.51855469 684.060546875 1547.22753906 575.485351562 1660 481 c 0
 1718.37402344 430.965820312 1789 357.385742188 1789 262 c 0
 1789 115.84375 1595.97460938 -39 1447 -39 c 0
 1371.6328125 -39 1318.96679688 14.541015625 1281 62 c 128
 1187.62597656 178.716796875 1128.73925781 349.084960938 1078.5 505 c 128
 1071.52636719 526.642578125 1043.29296875 611.776367188 1040 604 c 0
 979.111328125 460.19140625 918.5625 297.565429688 849 156 c 0
 806.268554688 69.0380859375 747.276367188 -39 622 -39 c 0
 475.865234375 -39 282 115.6796875 282 262 c 0
 282 357.262695312 352.754882812 431.075195312 411 481 c 0
 524.83203125 576.372070312 640.533203125 683.202148438 749 781.5 c 128
 759.666992188 791.166992188 765 796.333007812 765 797 c 0
EndSplineSet
Validated: 524321
EndChar

StartChar: plus
Encoding: 43 43 14
Width: 1365
GlyphClass: 2
Flags: HW
LayerCount: 2
Fore
SplineSet
838 260 m 2
 838 163.573242188 780.286132812 104 680 104 c 256
 579.375976562 104 520 163.100585938 520 260 c 2
 520 610 l 1
 183 610 l 2
 98.869140625 610 57 640.40625 57 727 c 256
 57 814.47265625 97.9130859375 846 183 846 c 2
 520 846 l 1
 520 1196 l 2
 520 1295.875 576.899414062 1352 680 1352 c 256
 782.75390625 1352 838 1295.39746094 838 1196 c 2
 838 846 l 1
 1180 846 l 2
 1265.859375 846 1305 815.086914062 1305 727 c 256
 1305 639.76953125 1264.89160156 610 1180 610 c 2
 838 610 l 1
 838 260 l 2
EndSplineSet
Validated: 524289
EndChar

StartChar: comma
Encoding: 44 44 15
Width: 805
GlyphClass: 2
Flags: HW
LayerCount: 2
Fore
SplineSet
729 141 m 0
 729 -134.0078125 544.5625 -371 268 -371 c 0
 235.864257812 -371 205 -346.055664062 205 -315 c 0
 205 -260.498046875 247.26171875 -237.631835938 278.5 -212 c 128
 328.223632812 -171.201171875 352 -105.090820312 352 -10 c 1
 202.879882812 -10 84 62.40234375 84 207 c 0
 84 377.203125 235.05859375 475 410 475 c 0
 615.521484375 475 729 343.569335938 729 141 c 0
EndSplineSet
Validated: 524289
EndChar

StartChar: hyphen
Encoding: 45 45 16
Width: 1305
GlyphClass: 2
Flags: HW
LayerCount: 2
Fore
SplineSet
241 446 m 2
 136.4453125 446 72 508.48046875 72 617 c 256
 72 725.529296875 136.4296875 788 241 788 c 2
 1067 788 l 2
 1173.41894531 788 1235 727.215820312 1235 617 c 256
 1235 506.775390625 1173.43066406 446 1067 446 c 2
 241 446 l 2
EndSplineSet
EndChar

StartChar: period
Encoding: 46 46 17
Width: 815
GlyphClass: 2
Flags: HW
LayerCount: 2
Fore
SplineSet
413 -20 m 0
 246.072265625 -20 87 59.2607421875 87 227 c 256
 87 396.85546875 246.896484375 475 413 475 c 0
 582.204101562 475 738 397.10546875 738 227 c 0
 738 55.9306640625 580.500976562 -20 413 -20 c 0
EndSplineSet
Validated: 524289
EndChar

StartChar: slash
Encoding: 47 47 18
Width: 1030
GlyphClass: 2
Flags: HW
LayerCount: 2
Fore
SplineSet
282 -123 m 0
 153.181640625 -123 51 -54.814453125 51 70 c 0
 51 96.6669921875 56.3408203125 120.559570312 63 143 c 0
 227.4453125 697.1171875 404.176757812 1272.828125 565 1829 c 0
 591.349609375 1920.12304688 654.455078125 1997 774 1997 c 0
 907.901367188 1997 1009 1936.08300781 1009 1808 c 0
 1009 1780.03515625 1002.27148438 1753.57617188 996 1731 c 0
 837.251953125 1175.37988281 657.19140625 599.849609375 494 45 c 0
 467.376953125 -44.8544921875 399.44140625 -123 282 -123 c 0
EndSplineSet
Validated: 524289
EndChar

StartChar: zero
Encoding: 48 48 19
Width: 1694
GlyphClass: 2
Flags: HW
LayerCount: 2
Fore
SplineSet
866 1618 m 0
 1328.24414062 1618 1614 1316.234375 1614 850 c 0
 1614 334.626953125 1329.6640625 -25 821 -25 c 0
 351.458007812 -25 78 290.669921875 78 762 c 0
 78 1269.35449219 364.850585938 1618 866 1618 c 0
811 1366 m 0
 686.328125 1366 682 1057.29785156 682 911 c 0
 682 665.584960938 707.486328125 412.319335938 809 276 c 128
 832.333007812 244.666992188 855.666992188 229 879 229 c 0
 1006.62011719 229 1008 570.055664062 1008 717 c 0
 1008 950.747070312 980.517578125 1194.21679688 880.5 1321 c 128
 856.833007812 1351 833.666992188 1366 811 1366 c 0
EndSplineSet
Substitution2: "'onum' Oldstyle Figures in Latin lookup 2 subtable" zero.old
Substitution2: "'aalt' Access All Alternates in Latin lookup 0 subtable" zero.old
EndChar

StartChar: one
Encoding: 49 49 20
Width: 1108
GlyphClass: 2
Flags: HW
LayerCount: 2
Fore
SplineSet
69 1235 m 0
 69 1511.56835938 489.668945312 1591 773 1591 c 0
 907.30078125 1591 902 1473.25390625 902 1338 c 2
 900 424 l 2
 900 352.180664062 926.166992188 311.055664062 981 298 c 128
 1018.68164062 289.028320312 1062 282.672851562 1062 236 c 0
 1062 30.0205078125 804.372070312 0 560 0 c 0
 336.586914062 0 69 21.822265625 69 236 c 0
 69 298.512695312 149.610351562 288.150390625 186.5 314.5 c 128
 214.622070312 334.586914062 228 367.13671875 228 420 c 2
 228 1051 l 2
 228 1121.30371094 202.012695312 1160.94824219 148.5 1174 c 128
 111.161132812 1183.10742188 69 1188.41503906 69 1235 c 0
EndSplineSet
Validated: 524321
Substitution2: "'onum' Oldstyle Figures in Latin lookup 2 subtable" one.old
Substitution2: "'aalt' Access All Alternates in Latin lookup 0 subtable" one.old
EndChar

StartChar: two
Encoding: 50 50 21
Width: 1293
GlyphClass: 2
Flags: HW
LayerCount: 2
Fore
SplineSet
1231 342 m 0
 1231 168.224609375 1163.109375 0 989 0 c 2
 207 0 l 2
 121.143554688 0 71 56.64453125 71 141 c 0
 71 173.864257812 80.5869140625 204.270507812 94 225 c 0
 258.93359375 499.889648438 479.758789062 768.849609375 595.5 1085.5 c 128
 613.166992188 1133.83300781 622 1175.33300781 622 1210 c 0
 622 1310.24511719 538.735351562 1339 422 1339 c 0
 313.578125 1339 223.607421875 1312.52441406 153 1274 c 0
 143.416992188 1268.77148438 133.666992188 1264 121 1264 c 0
 84.4482421875 1264 59 1316.54003906 59 1354 c 0
 59 1366.82519531 64.919921875 1376.703125 71 1384 c 0
 192.90234375 1523.31738281 399.350585938 1618 655 1618 c 0
 950.423828125 1618 1171 1483.26464844 1171 1194 c 0
 1171 1128 1158 1058 1132 984 c 128
 1029.35644531 691.861328125 785.984375 477.186523438 530 317 c 1
 766.435546875 317 988.081054688 328.654296875 1089 452 c 128
 1095 459.333007812 1102.66699219 463 1112 463 c 0
 1182.18164062 463 1231 413.8046875 1231 342 c 0
EndSplineSet
Validated: 524289
Substitution2: "'onum' Oldstyle Figures in Latin lookup 2 subtable" two.old
Substitution2: "'aalt' Access All Alternates in Latin lookup 0 subtable" two.old
EndChar

StartChar: three
Encoding: 51 51 22
Width: 1337
GlyphClass: 2
Flags: HW
LayerCount: 2
Fore
SplineSet
1274 457 m 0
 1274 150.719726562 1009.64941406 -23 695 -23 c 0
 434.02734375 -23 223.354492188 70.85546875 101 213 c 0
 93.447265625 221.774414062 89 229.278320312 89 244 c 0
 89 282.650390625 113.971679688 336 152 336 c 0
 165.333007812 336 176.333007812 333.333007812 185 328 c 0
 256.17578125 288.598632812 368.46484375 258 478 258 c 0
 623.923828125 258 728 346.438476562 728 489 c 0
 728 608.29296875 641.440429688 688 521 688 c 0
 493.633789062 688 453.528320312 670 427 670 c 0
 380.0859375 670 345 723.043945312 345 770 c 0
 345 804.875 362.985351562 822.4140625 388 840 c 0
 478.045898438 903.306640625 578 986.334960938 578 1130 c 0
 578 1251.25292969 492.467773438 1327 371 1327 c 0
 273.354492188 1327 200.870117188 1285.75 134 1237 c 0
 123.146484375 1229.08789062 112.145507812 1227 97 1227 c 0
 58.390625 1227 44 1258.01855469 44 1294 c 0
 44 1305.99023438 45.1298828125 1320.390625 48 1329 c 0
 116.677734375 1519.18554688 342.92578125 1620 599 1620 c 0
 851.256835938 1620 1094 1517.59179688 1094 1268 c 0
 1094 1080.27734375 984.056640625 987.678710938 848 926 c 1
 1068.68457031 867.286132812 1274 725.728515625 1274 457 c 0
EndSplineSet
Validated: 524289
Substitution2: "'onum' Oldstyle Figures in Latin lookup 2 subtable" three.old
Substitution2: "'aalt' Access All Alternates in Latin lookup 0 subtable" three.old
EndChar

StartChar: four
Encoding: 52 52 23
Width: 1593
GlyphClass: 2
Flags: HW
LayerCount: 2
Fore
SplineSet
979 0 m 256
 798.430664062 0 553 43.810546875 553 217 c 0
 553 275.271484375 627.75390625 265.283203125 662.5 289.5 c 128
 688.647460938 307.723632812 701 338.630859375 701 387 c 2
 701 424 l 1
 371 424 l 2
 230.307617188 424 64 406.012695312 64 543 c 0
 64 559.7578125 63 577.009765625 63 595 c 0
 63 686.833984375 85.017578125 755.786132812 125 811 c 2
 701 1618 l 1
 1006.01660156 1618 1267.09863281 1604.07128906 1266 1309 c 2
 1264 772 l 1
 1272 772 l 2
 1443.30566406 772 1536 767.435546875 1536 590 c 0
 1536 424.430664062 1437.07421875 424 1272 424 c 2
 1264 424 l 1
 1264 391 l 2
 1264 323.862304688 1287.97070312 286.956054688 1338.5 274 c 128
 1373.4765625 265.03125 1413 260.850585938 1413 217 c 0
 1413 44.8720703125 1158.18554688 0 979 0 c 256
701 1221 m 1
 597.448242188 1076.83984375 497.291992188 919.798828125 402 772 c 1
 701 772 l 1
 701 1221 l 1
EndSplineSet
Substitution2: "'onum' Oldstyle Figures in Latin lookup 2 subtable" four.old
Substitution2: "'aalt' Access All Alternates in Latin lookup 0 subtable" four.old
EndChar

StartChar: five
Encoding: 53 53 24
Width: 1314
GlyphClass: 2
Flags: HW
LayerCount: 2
Fore
SplineSet
519 1081 m 2
 915.28125 1081 1228 889.602539062 1228 506 c 0
 1228 158.512695312 992.05859375 -23 648 -23 c 0
 388.150390625 -23 193.669921875 74.43359375 67 211 c 0
 58.015625 220.686523438 52 230 52 242 c 0
 52 278.859375 78.451171875 332 114 332 c 0
 128.81640625 332 137.631835938 327.68359375 149 322 c 0
 223.243164062 282.022460938 324.787109375 256 437 256 c 0
 577.421875 256 706 338.041992188 706 475 c 0
 706 698.866210938 406.481445312 765.209960938 181 784 c 1
 357 1593 l 1
 558 1593 l 2
 794.442382812 1593 1012.66015625 1603.93652344 1116 1724.5 c 128
 1122 1731.5 1130 1735 1140 1735 c 0
 1210.18164062 1735 1259 1685.8046875 1259 1614 c 0
 1259 1440.22460938 1191.109375 1272 1017 1272 c 2
 466 1272 l 1
 423 1079 l 1
 439.666992188 1080.33300781 456 1081 472 1081 c 130
 519 1081 l 2
EndSplineSet
Validated: 524289
Substitution2: "'onum' Oldstyle Figures in Latin lookup 2 subtable" five.old
Substitution2: "'aalt' Access All Alternates in Latin lookup 0 subtable" five.old
EndChar

StartChar: six
Encoding: 54 54 25
Width: 1637
GlyphClass: 2
Flags: HW
LayerCount: 2
Fore
SplineSet
659 805 m 0
 659 598.397460938 629.418945312 242 810 242 c 256
 930.463867188 242 966 366.922851562 966 489 c 0
 966 619.02734375 922.002929688 815 798 815 c 0
 751.094726562 815 659 833.879882812 659 805 c 0
829 -25 m 0
 385.853515625 -25 73 209.362304688 73 643 c 0
 73 826.469726562 132.017578125 983.119140625 208 1109 c 128
 397.934570312 1423.66796875 749.043945312 1642 1253 1642 c 0
 1320.26855469 1642 1365 1596.20507812 1365 1530 c 0
 1365 1396.34960938 1221.5546875 1399.06835938 1115 1366 c 128
 924.5546875 1306.89648438 756.713867188 1209.85644531 696 1018 c 1
 791.333984375 1066.22753906 893.567382812 1100 1021 1100 c 0
 1341.12597656 1100 1564 881.8203125 1564 567 c 0
 1564 167.471679688 1235.38671875 -25 829 -25 c 0
EndSplineSet
Validated: 524321
Substitution2: "'onum' Oldstyle Figures in Latin lookup 2 subtable" six.old
Substitution2: "'aalt' Access All Alternates in Latin lookup 0 subtable" six.old
EndChar

StartChar: seven
Encoding: 55 55 26
Width: 1329
GlyphClass: 2
Flags: HW
LayerCount: 2
Fore
SplineSet
555 -203 m 0
 411.1953125 -203 226 -120.15234375 226 19 c 0
 226 36.3330078125 230 54 238 72 c 2
 778 1276 l 1
 739 1274 l 1
 502.697265625 1274 281.853515625 1262.265625 181 1139 c 128
 175 1131.66699219 167.333007812 1128 158 1128 c 0
 88.3447265625 1128 39 1178.06445312 39 1249 c 0
 39 1422.77539062 106.890625 1591 281 1591 c 2
 1036 1591 l 2
 1186.02636719 1591 1288 1564.578125 1288 1430 c 0
 1288 1327.28710938 1253.62304688 1252.66113281 1223 1171 c 2
 768 -23 l 2
 725.702148438 -134.032226562 711.474609375 -203 555 -203 c 0
EndSplineSet
Validated: 524289
Substitution2: "'onum' Oldstyle Figures in Latin lookup 2 subtable" seven.old
Substitution2: "'aalt' Access All Alternates in Latin lookup 0 subtable" seven.old
EndChar

StartChar: eight
Encoding: 56 56 27
Width: 1546
GlyphClass: 2
Flags: HW
LayerCount: 2
Fore
SplineSet
581.004882812 602.810546875 m 1
 540.233398438 554.17578125 473 486.267578125 473 408 c 0
 473 304.075195312 574.444335938 266 683 266 c 0
 803.595703125 266 929 314.291992188 929 426 c 0
 929 526.419921875 663.026367188 573.572265625 581.004882812 602.810546875 c 1
878.653320312 1045.68261719 m 1
 921.166015625 1098.84667969 1003 1176.11425781 1003 1257 c 0
 1003 1343.74316406 910.135742188 1370 808 1370 c 0
 699.794921875 1370 608 1357.51171875 608 1257 c 0
 608 1135.93359375 778.139648438 1082.98632812 878.653320312 1045.68261719 c 1
1331 1237 m 0
 1331 1100.77929688 1259.90332031 987.9296875 1183.91699219 916.100585938 c 1
 1349.06347656 826.00390625 1482 695.552734375 1482 465 c 0
 1482 79.234375 1124.97949219 -23 733 -23 c 0
 416.307617188 -23 81 87.369140625 81 399 c 0
 81 563.588867188 192.430664062 675.420898438 305.950195312 736.80078125 c 1
 190.334960938 821.624023438 112 943.736328125 112 1143 c 0
 112 1473.71875 431.459960938 1618 763 1618 c 0
 1041.00976562 1618 1331 1509.53320312 1331 1237 c 0
EndSplineSet
Validated: 524289
Substitution2: "'onum' Oldstyle Figures in Latin lookup 2 subtable" eight.old
Substitution2: "'aalt' Access All Alternates in Latin lookup 0 subtable" eight.old
EndChar

StartChar: nine
Encoding: 57 57 28
Width: 1628
GlyphClass: 2
Flags: HW
LayerCount: 2
Fore
SplineSet
966 788 m 0
 966 995.15234375 995.216796875 1352 814 1352 c 0
 693.655273438 1352 659 1225.22460938 659 1104 c 0
 659 973.97265625 702.997070312 778 827 778 c 0
 867.756835938 778 966 764.467773438 966 788 c 0
796 1618 m 0
 1239.14648438 1618 1552 1383.63769531 1552 950 c 0
 1552 766.530273438 1492.98242188 609.880859375 1417 484 c 128
 1227.06542969 169.33203125 875.956054688 -49 372 -49 c 0
 304.836914062 -49 259 -3.302734375 259 63 c 0
 259 156.243164062 324.243164062 177.740234375 405 197.5 c 128
 639.83203125 254.958984375 857.8984375 350.3203125 929 575 c 1
 833.125976562 526.499023438 731.517578125 494 603 494 c 0
 282.83984375 494 61 711.673828125 61 1026 c 0
 61 1425.6015625 389.46875 1618 796 1618 c 0
EndSplineSet
Validated: 524321
Substitution2: "'onum' Oldstyle Figures in Latin lookup 2 subtable" nine.old
Substitution2: "'aalt' Access All Alternates in Latin lookup 0 subtable" nine.old
EndChar

StartChar: colon
Encoding: 58 58 29
Width: 833
GlyphClass: 2
Flags: HW
LayerCount: 2
Fore
SplineSet
419 -20 m 0
 252.072265625 -20 93 59.2607421875 93 227 c 256
 93 396.85546875 252.896484375 475 419 475 c 0
 588.204101562 475 744 397.10546875 744 227 c 0
 744 55.9306640625 586.500976562 -20 419 -20 c 0
419 801 m 0
 251.666992188 801 93 880.975585938 93 1049 c 256
 93 1218.50976562 253.330078125 1296 419 1296 c 0
 587.7578125 1296 744 1218.62890625 744 1049 c 0
 744 877.328125 587.102539062 801 419 801 c 0
EndSplineSet
Validated: 524289
EndChar

StartChar: semicolon
Encoding: 59 59 30
Width: 827
GlyphClass: 2
Flags: HW
LayerCount: 2
Fore
SplineSet
416 801 m 0
 248.666992188 801 90 880.975585938 90 1049 c 256
 90 1218.50976562 250.330078125 1296 416 1296 c 0
 584.7578125 1296 741 1218.62890625 741 1049 c 0
 741 877.328125 584.102539062 801 416 801 c 0
735 141 m 0
 735 -134.0078125 550.5625 -371 274 -371 c 0
 241.864257812 -371 211 -346.055664062 211 -315 c 0
 211 -260.498046875 253.26171875 -237.631835938 284.5 -212 c 128
 334.223632812 -171.201171875 358 -105.090820312 358 -10 c 1
 208.879882812 -10 90 62.40234375 90 207 c 0
 90 377.203125 241.05859375 475 416 475 c 0
 621.521484375 475 735 343.569335938 735 141 c 0
EndSplineSet
Validated: 524289
EndChar

StartChar: less
Encoding: 60 60 31
Width: 1040
GlyphClass: 2
Flags: HW
LayerCount: 2
Fore
SplineSet
964 129 m 0
 964 45.279296875 910.1953125 -14 825 -14 c 0
 703.157226562 -14 627.356445312 70.1435546875 556 128 c 2
 242 383 l 2
 162.932617188 446.693359375 59 500.107421875 59 639 c 256
 59 778.27734375 163.129882812 831.465820312 242 895 c 2
 556 1150 l 2
 627.9375 1208.328125 703.170898438 1292 825 1292 c 0
 910.200195312 1292 964 1232.72167969 964 1149 c 0
 964 1001.45019531 792.215820312 890.34375 672 795 c 2
 476 639 l 1
 672 483 l 2
 792.19140625 387.67578125 964 276.025390625 964 129 c 0
EndSplineSet
Validated: 524289
EndChar

StartChar: equal
Encoding: 61 61 32
Width: 1221
GlyphClass: 2
Flags: HW
LayerCount: 2
Fore
SplineSet
252 199 m 2
 160.03515625 199 105 204.08984375 105 297 c 0
 105 386.180664062 163.30078125 395 252 395 c 2
 966 395 l 2
 1060.7109375 395 1123 392.481445312 1123 297 c 256
 1123 201.5234375 1060.71582031 199 966 199 c 2
 252 199 l 2
252 536 m 2
 160.03515625 536 105 541.08984375 105 634 c 0
 105 723.180664062 163.30078125 732 252 732 c 2
 966 732 l 2
 1060.7109375 732 1123 729.481445312 1123 634 c 256
 1123 538.5234375 1060.71582031 536 966 536 c 2
 252 536 l 2
EndSplineSet
Validated: 524289
EndChar

StartChar: greater
Encoding: 62 62 33
Width: 1040
GlyphClass: 2
Flags: HW
LayerCount: 2
Fore
SplineSet
77 1149 m 0
 77 1232.80859375 130.537109375 1292 216 1292 c 0
 337.842773438 1292 413.643554688 1207.85644531 485 1150 c 2
 799 895 l 2
 878.067382812 831.306640625 982 777.892578125 982 639 c 256
 982 499.72265625 877.870117188 446.534179688 799 383 c 2
 485 128 l 2
 413.0625 69.671875 337.829101562 -14 216 -14 c 0
 130.529296875 -14 77 45.1904296875 77 129 c 0
 77 275.647460938 249.241210938 388.018554688 369 483 c 2
 565 639 l 1
 369 795 l 2
 248.359375 890.680664062 77 1001.08300781 77 1149 c 0
EndSplineSet
Validated: 524289
EndChar

StartChar: question
Encoding: 63 63 34
Width: 1284
GlyphClass: 2
Flags: HW
LayerCount: 2
Fore
SplineSet
674 1645 m 0
 958.473632812 1645 1223 1479.46777344 1223 1200 c 0
 1223 869.665039062 865.047851562 852.072265625 733 654 c 128
 718.333007812 632 711 608 711 582 c 0
 711 478.323242188 651.169921875 428 551 428 c 0
 460.663085938 428 404 494.642578125 404 582 c 0
 404 756.012695312 439.74609375 878.065429688 521.5 962.5 c 128
 577.711914062 1020.5546875 639 1071.62792969 639 1184 c 0
 639 1313.04589844 554.33984375 1343 422 1343 c 0
 284.990234375 1343 200.041992188 1264 99 1264 c 0
 58.6005859375 1264 31 1319.05664062 31 1360 c 0
 31 1376.02148438 37.6279296875 1383.17089844 45 1393 c 0
 177.515625 1543.01757812 396.931640625 1645 674 1645 c 0
566 -25 m 0
 439.08203125 -25 320 36.1572265625 320 164 c 256
 320 292.991210938 439.899414062 352 566 352 c 0
 693.040039062 352 813 293.60546875 813 164 c 0
 813 32.462890625 694.81640625 -25 566 -25 c 0
EndSplineSet
Validated: 524289
EndChar

StartChar: at
Encoding: 64 64 35
Width: 3112
GlyphClass: 2
Flags: HW
LayerCount: 2
Fore
SplineSet
1422 795 m 0
 1422 647.32421875 1423.18457031 438 1566 438 c 0
 1613.18457031 438 1693 443.686523438 1693 479 c 0
 1693 484.375 1692 490.333007812 1692 497 c 128
 1692 527.021484375 1691 553.564453125 1691 593.5 c 130
 1691 1122 l 1
 1657.47460938 1142.35449219 1605.9453125 1171 1554 1171 c 0
 1405.55273438 1171 1422 953.110351562 1422 795 c 0
1631 1604 m 0
 1101.10058594 1604 669 1334.79882812 669 805 c 0
 669 264.763671875 1056.12402344 2 1597 2 c 0
 1817.13671875 2 2090.86914062 263.116210938 2195 102 c 2
 2449 -291 l 1
 2219.50097656 -406.36328125 1925.62988281 -483 1595 -483 c 0
 1093.83886719 -483 716.981445312 -329.35546875 459.5 -85 c 128
 247.076171875 116.59375 77 397.290039062 77 793 c 0
 77 1042.12988281 150.629882812 1249.48535156 253 1417 c 128
 510.1640625 1837.81445312 997.40234375 2089 1678 2089 c 0
 2120.58886719 2089 2465.07324219 1970.08300781 2700.5 1765 c 128
 2881.1953125 1607.59472656 3036 1387.18164062 3036 1067 c 0
 3036 497.729492188 2605.6953125 240 2029 240 c 0
 1887.47460938 240 1760.05664062 258.709960938 1717 352 c 1
 1635.2734375 270.2734375 1508.27441406 219 1341 219 c 0
 1013.68066406 219 894 474.443359375 894 799 c 0
 894 1127.59082031 1036.94433594 1393 1365 1393 c 0
 1522.06054688 1393 1634.234375 1344.765625 1711 1268 c 1
 1746.12597656 1357.41308594 1825.99511719 1395 1953 1395 c 0
 2115.13378906 1395 2222 1391.4609375 2222 1233 c 2
 2222 1028.5 l 130
 2222 888.350585938 2221 757.67578125 2221 592 c 0
 2221 554.448242188 2231.19140625 518 2262 518 c 0
 2451.96582031 518 2490 785.486328125 2490 983 c 0
 2490 1413.68945312 2066.16699219 1604 1631 1604 c 0
EndSplineSet
Validated: 524321
EndChar

StartChar: A
Encoding: 65 65 36
Width: 1884
GlyphClass: 2
Flags: HW
HStem: 0 21G<251.603 415.37 1201.28 1495.19> 489 152<592 905> 1573 20G<846.031 1085.06>
VStem: 65 556<95.9827 275.448> 969 846<133.01 357.667>
LayerCount: 2
Fore
SplineSet
592 641 m 1
 905 641 l 1
 751 1223 l 1
 592 641 l 1
966 1593 m 0
 1204.12695312 1593 1530 1571.7890625 1530 1344 c 0
 1530 1273.04199219 1404 1318.11816406 1404 1228 c 0
 1404 1214 1406.6953125 1195.91015625 1413 1174 c 2
 1634 406 l 2
 1653.25585938 339.34375 1679.1875 294.513671875 1744.5 280 c 0
 1783.65332031 271.298828125 1815 283.467773438 1815 236 c 4
 1815 30.0205078125 1677.37207031 0 1313 0 c 0
 1089.55761719 0 841 21.6875 841 236 c 0
 841 319.4296875 969 249.30078125 969 350 c 0
 969 365.333007812 965.59765625 382.439453125 962 402 c 2
 946 489 l 1
 540 489 l 1
 516 402 l 1
 507.333007812 376.666992188 503 356 503 340 c 0
 503 251.075195312 621 317.802734375 621 236 c 0
 621 76.6962890625 496.740234375 0 334 0 c 0
 169.206054688 0 65 75.833984375 65 236 c 0
 65 283.680664062 106.333007812 271.295898438 145.5 280 c 0
 211.48828125 294.6640625 219.509765625 340.095703125 241 406 c 2
 487 1174 l 2
 494.0390625 1195.97558594 501 1215.35351562 501 1239 c 0
 501 1317.87109375 392 1277.53515625 392 1347 c 0
 392 1574.81640625 726.0625 1593 966 1593 c 0
EndSplineSet
EndChar

StartChar: B
Encoding: 66 66 37
Width: 1943
GlyphClass: 2
Flags: HWO
LayerCount: 2
Fore
SplineSet
911 907 m 1
 927.130518309 897.321587733 952.619338604 894.991794114 981.090526829 894.991794114 c 0
 1169.02384404 894.991794114 1202 950.685591873 1202 1137 c 0
 1202 1285.64257812 1173.70703125 1397 1026 1397 c 0
 918.823242188 1397 911 1316.36523438 911 1210 c 2
 911 907 l 1
945.89908545 743.25325757 m 0
 925.084204056 743.25325757 911 738.077841774 911 721 c 2
 911 418 l 2
 911 311.640625 918.819335938 231 1026 231 c 0
 1174.13769531 231 1202 342.759765625 1202 492 c 0
 1202 693.715418985 1143.02807138 743.25325757 945.89908545 743.25325757 c 0
235 1174 m 2
 235 1314.42089844 76 1268.54003906 76 1358 c 0
 76 1570.60253906 346.963867188 1593 567 1593 c 0
 719.971552134 1593 889.330581545 1601.86333565 1053.0479442 1601.86333565 c 0
 1459.4018539 1601.86333565 1831 1547.26032345 1831 1167 c 0
 1831 957.6640625 1679.58691406 864.346679688 1483 854 c 1
 1721.99609375 837.168945312 1878 715.916992188 1878 455 c 0
 1878 42.1541324719 1410.45136847 -3.75576424478 949.645825363 -3.75576424478 c 0
 817.846344899 -3.75576424478 686.598498227 -7.32747196253e-14 567 0 c 0
 343.586914062 0 76 21.822265625 76 236 c 0
 76 327.9609375 235 274.783203125 235 420 c 2
 235 1174 l 2
EndSplineSet
EndChar

StartChar: C
Encoding: 67 67 38
Width: 1613
GlyphClass: 2
Flags: HW
LayerCount: 2
Fore
SplineSet
980 1376 m 0
 821.362304688 1376 777 1159.32617188 777 989 c 0
 777 668.693359375 833.022460938 367 1145 367 c 0
 1251.90820312 367 1362.41992188 409.525390625 1410 469 c 0
 1424.71875 488.624023438 1446.69433594 508 1475 508 c 0
 1521.70117188 508 1543 452.383789062 1543 399 c 0
 1543 105.338867188 1168.19140625 -25 861 -25 c 0
 377.952148438 -25 56 280.43359375 56 758 c 0
 56 1331.54785156 378.223632812 1620 955 1620 c 0
 1242.72265625 1620 1506 1475.98339844 1506 1192 c 0
 1506 1088.68164062 1442.15625 1020 1340 1020 c 0
 1096.16503906 1020 1188.09765625 1376 980 1376 c 0
EndSplineSet
Validated: 524289
EndChar

StartChar: D
Encoding: 68 68 39
Width: 1988
GlyphClass: 2
Flags: HW
HStem: 0 251<485.293 1081.8> 1367 226<481.902 1086.84>
VStem: 235 669<315.451 1283.97> 1225 698<508.378 1126.49>
LayerCount: 2
Back
SplineSet
1217 854 m 4
 1217 1105.66210938 1172.36621094 1367 953 1367 c 4
 845.4765625 1367 886 1346.78808594 886 1240 c 6
 886 398 l 6
 886 291.216796875 845.474609375 251 953 251 c 4
 1196.45019531 251 1217 602.274414062 1217 854 c 4
58 1360 m 4
 58 1572.80078125 328.803710938 1593 549 1593 c 4
 1541.5 1593 1885 1365.81640625 1885 844 c 4
 1885 220.884765625 1543.70580909 0 549 0 c 4
 325.586914062 0 58 21.822265625 58 236 c 4
 58 298.512695312 138.610351562 288.150390625 175.5 314.5 c 4
 203.622070312 334.586914062 217 367.13671875 217 420 c 6
 217 1176 l 6
 217 1246.30371094 191.012695312 1285.94824219 137.5 1299 c 4
 100.161132812 1308.10742188 58 1313.41503906 58 1360 c 4
EndSplineSet
Fore
SplineSet
1225 854 m 0
 1225 1105.66210938 1190.36621094 1367 971 1367 c 0
 863.4765625 1367 904 1346.78808594 904 1240 c 2
 904 398 l 2
 904 291.216796875 863.474609375 251 971 251 c 0
 1214.45019531 251 1225 602.274414062 1225 854 c 0
235 1176 m 2
 235 1316.42089844 76 1270.54003906 76 1360 c 0
 76 1572.80078125 346.803710938 1593 617 1593 c 0
 1609.5 1593 1923 1365.81640625 1923 844 c 4
 1923 220.884765625 1611.70605469 0 617 0 c 0
 353.586914062 0 76 21.822265625 76 236 c 0
 76 327.9609375 235 274.783203125 235 420 c 2
 235 1176 l 2
EndSplineSet
Validated: 524321
EndChar

StartChar: E
Encoding: 69 69 40
Width: 1822
GlyphClass: 2
Flags: HW
LayerCount: 2
Fore
SplineSet
235 1174 m 2
 235 1314.42089844 76 1268.54003906 76 1358 c 0
 76 1570.60253906 346.963867188 1593 567 1593 c 2
 1425 1593 l 2
 1614.75878906 1593 1712 1381.60546875 1712 1192 c 0
 1712 1088.68164062 1648.15625 1020 1546 1020 c 0
 1424.64941406 1020 1362.14550781 1117.89160156 1339 1217 c 2
 1300 1384 l 1
 966 1384 l 1
 966 924 l 1
 1046 934 l 1
 1081.69042969 1005.38085938 1106.2578125 1118 1208 1118 c 0
 1354.44726562 1118 1415 989.73828125 1415 844 c 0
 1415 696.958984375 1354.52441406 567 1208 567 c 0
 1107.02832031 567 1123.98828125 742.251953125 1046 752 c 2
 966 762 l 1
 966 205 l 1
 1308 221 l 1
 1349 395 l 1
 1380.18847656 499.573242188 1437.9765625 602 1567 602 c 0
 1674.74902344 602 1741 528.66015625 1741 420 c 0
 1741 217.610351562 1637.34570312 0 1437 0 c 2
 567 0 l 2
 343.586914062 0 76 21.822265625 76 236 c 0
 76 327.9609375 235 274.783203125 235 420 c 2
 235 1174 l 2
EndSplineSet
Validated: 524289
EndChar

StartChar: F
Encoding: 70 70 41
Width: 1752
GlyphClass: 2
Flags: HW
LayerCount: 2
Fore
SplineSet
235 1174 m 2
 235 1314.42089844 76 1268.54003906 76 1358 c 0
 76 1570.60253906 346.963867188 1593 567 1593 c 2
 1388 1593 l 2
 1577.75878906 1593 1675 1381.60546875 1675 1192 c 0
 1675 1088.68164062 1611.15625 1020 1509 1020 c 0
 1387.99121094 1020 1304 1114.63476562 1304 1217 c 2
 1304 1384 l 1
 897 1384 l 1
 897 913 l 1
 1001 924 l 1
 1036.69042969 995.380859375 1061.2578125 1108 1163 1108 c 0
 1309.07617188 1108 1370 979.557617188 1370 834 c 0
 1370 687.055664062 1309.22363281 557 1163 557 c 0
 1062.49023438 557 1078.83398438 732.767578125 1001 741 c 2
 897 752 l 1
 897 420 l 2
 897 278.34375 1059 326.190429688 1059 236 c 0
 1059 22.55859375 787.834960938 0 567 0 c 256
 343.586914062 0 76 21.822265625 76 236 c 0
 76 327.9609375 235 274.783203125 235 420 c 2
 235 1174 l 2
EndSplineSet
Validated: 524289
EndChar

StartChar: G
Encoding: 71 71 42
Width: 1746
GlyphClass: 2
Flags: HW
LayerCount: 2
Fore
SplineSet
774 985 m 0
 774 728.41796875 809.763671875 328 1048 328 c 0
 1081.71386719 328 1118 344.577148438 1118 375 c 0
 1118 464.326171875 1091.02050781 519.493164062 1027 539.5 c 128
 978.493164062 554.658203125 936 570.135742188 936 635 c 0
 936 838.581054688 1111.91894531 872 1315 872 c 0
 1480.3203125 872 1708 868.874023438 1708 719 c 0
 1708 566.7421875 1614 567.75390625 1614 420 c 0
 1614 97.1337890625 1276.79199219 -25 952 -25 c 0
 445.623046875 -25 53 247.85546875 53 758 c 0
 53 1298.19238281 412.587890625 1620 946 1620 c 0
 1256.44921875 1620 1585 1491.33984375 1585 1188 c 0
 1585 1084.68164062 1521.15625 1016 1419 1016 c 0
 1167.85839844 1016 1269.18847656 1372 1018 1372 c 0
 849.088867188 1372 774 1165.77441406 774 985 c 0
EndSplineSet
Validated: 524289
EndChar

StartChar: H
Encoding: 72 72 43
Width: 2270
GlyphClass: 2
Flags: HW
LayerCount: 2
Fore
SplineSet
2029 424 m 2
 2029 279.057617188 2197 327.302734375 2197 236 c 0
 2197 21.0869140625 1922.52539062 0 1700 0 c 0
 1473.11523438 0 1228 18.8349609375 1228 236 c 0
 1228 299.321289062 1289.73730469 288.690429688 1326.5 316 c 128
 1354.71582031 336.9609375 1358 370.013671875 1358 424 c 2
 1358 729 l 1
 907 729 l 1
 907 424 l 2
 907 352.403320312 924.283203125 311.02734375 979 298 c 128
 1016.41699219 289.090820312 1039 282.34375 1039 236 c 0
 1039 30.0205078125 811.372070312 0 567 0 c 0
 343.586914062 0 76 21.822265625 76 236 c 0
 76 327.9609375 235 274.783203125 235 420 c 2
 235 1174 l 2
 235 1314.42089844 76 1268.54003906 76 1358 c 0
 76 1570.60253906 346.963867188 1593 567 1593 c 0
 793.102539062 1593 1039 1574.31542969 1039 1358 c 0
 1039 1295.07324219 977.61328125 1306.00976562 940.5 1279.5 c 128
 912.723632812 1259.65917969 909 1225.89160156 909 1174 c 2
 909 922 l 1
 1358 922 l 1
 1358 1174 l 2
 1358 1244.46679688 1341.89355469 1284.16796875 1288 1297 c 128
 1250.30273438 1305.97558594 1228 1311.28027344 1228 1358 c 0
 1228 1563.23339844 1455.58203125 1593 1700 1593 c 0
 1942.09863281 1593 2197 1562.23144531 2197 1358 c 0
 2197 1264.79882812 2029 1321.28125 2029 1174 c 2
 2029 424 l 2
EndSplineSet
Validated: 524289
EndChar

StartChar: I
Encoding: 73 73 44
Width: 1142
GlyphClass: 2
Flags: W
HStem: 0 21G<455.293 689.186> 1573 20G<456.982 680.051>
VStem: 235 672<326.621 1265.12>
LayerCount: 2
Fore
SplineSet
235 1174 m 2
 235 1314.42089844 76 1268.54003906 76 1358 c 0
 76 1570.60253906 346.963867188 1593 567 1593 c 0
 793.102539062 1593 1069 1574.31542969 1069 1358 c 0
 1069 1266.03222656 909 1319.47460938 909 1174 c 2
 907 424 l 2
 907 352.180664062 933.166992188 311.055664062 988 298 c 0
 1025.68164062 289.028320312 1069 282.672851562 1069 236 c 0
 1069 30.0205078125 811.372070312 0 567 0 c 0
 343.586914062 0 76 21.822265625 76 236 c 0
 76 327.9609375 235 274.783203125 235 420 c 2
 235 1174 l 2
EndSplineSet
Validated: 524289
EndChar

StartChar: J
Encoding: 74 74 45
Width: 1661
GlyphClass: 2
Flags: HW
LayerCount: 2
Fore
SplineSet
774 -25 m 0
 398.751953125 -25 51 148.561523438 51 520 c 0
 51 713.98828125 168.944335938 858 363 858 c 0
 521.123046875 858 676 781.118164062 676 623 c 0
 676 491.984375 588.012695312 422.838867188 538 341 c 128
 530.666992188 329 527 318.333007812 527 309 c 0
 527 274.393554688 575.366210938 262 615 262 c 0
 750.109375 262 797 379.083984375 797 520 c 2
 797 1176 l 2
 797 1317.12207031 637 1267.89257812 637 1358 c 0
 637 1563.23339844 894.58203125 1593 1139 1593 c 0
 1361.640625 1593 1630 1571.34082031 1630 1358 c 0
 1630 1265.859375 1469 1319.23046875 1469 1174 c 2
 1469 520 l 2
 1469 146.82421875 1145.2109375 -25 774 -25 c 0
EndSplineSet
Validated: 524289
EndChar

StartChar: K
Encoding: 75 75 46
Width: 2155
GlyphClass: 2
Flags: HW
HStem: 0 21G<455.293 689.186 1382.69 1716.84> 1267.5 325.5<1785.78 1938.14>
VStem: 235 672<315.451 715.342 802 1278.57> 1219 862<101.731 293.973> 1409 653<1225.32 1469.8>
LayerCount: 2
Fore
SplineSet
235 1174 m 2
 235 1314.42089844 76 1268.54003906 76 1358 c 0
 76 1570.60253906 346.963867188 1593 567 1593 c 0xf0
 793.102539062 1593 1069 1574.31542969 1069 1358 c 0
 1069 1265.56542969 907 1319.93164062 907 1174 c 2
 907 802 l 1
 923.333984375 795.696289062 1409 1200.61035156 1409 1241 c 0
 1409 1300.96386719 1302 1301.61132812 1302 1372 c 0
 1302 1550.82226562 1488.09277344 1593 1667 1593 c 0
 1844.41796875 1593 2062 1555.60546875 2062 1384 c 0xe8
 2062 1306.33007812 1985.33496094 1283.97558594 1921 1267.5 c 0
 1823.70019531 1242.58203125 1732.16601562 1209.57128906 1665 1151 c 2
 1454 967 l 1
 1836 424 l 1
 1880.70214844 365.930664062 1933.48828125 329.819335938 2005 306.5 c 0
 2051.38378906 291.375 2081 273.403320312 2081 211 c 0
 2081 24.5546875 1829.6875 0 1604 0 c 0
 1161.38574219 0 1219 123.348632812 1219 352 c 0
 1219 379.328125 1188.22558594 445.291015625 1174 469 c 2
 1003 754 l 2
 1001.77832031 756.036132812 907 682 907 682 c 1
 907 424 l 2
 907 352.180664062 913.166992188 311.055664062 968 298 c 0
 1005.68164062 289.028320312 1029 282.672851562 1029 236 c 0
 1029 30.0205078125 811.372070312 0 567 0 c 0
 343.586914062 0 76 21.822265625 76 236 c 0
 76 327.9609375 235 274.783203125 235 420 c 2
 235 1174 l 2
EndSplineSet
Validated: 524321
EndChar

StartChar: L
Encoding: 76 76 47
Width: 1618
GlyphClass: 2
Flags: HW
LayerCount: 2
Fore
SplineSet
235 1174 m 2
 235 1314.42089844 76 1268.54003906 76 1358 c 0
 76 1570.60253906 346.963867188 1593 567 1593 c 0
 793.102539062 1593 1069 1574.31542969 1069 1358 c 0
 1069 1266.03222656 909 1319.47460938 909 1174 c 2
 907 360 l 2
 907 272.965820312 942.37109375 216 1025 216 c 0
 1057.625 216 1113.08789062 187.1796875 1122 225 c 2
 1163 399 l 1
 1194.02929688 503.041015625 1251.72460938 606 1380 606 c 0
 1488.83886719 606 1554 533.57421875 1554 424 c 0
 1554 221.032226562 1451.55566406 0 1251 0 c 2
 567 0 l 2
 343.586914062 0 76 21.822265625 76 236 c 0
 76 327.9609375 235 274.783203125 235 420 c 2
 235 1174 l 2
EndSplineSet
Validated: 524321
EndChar

StartChar: M
Encoding: 77 77 48
Width: 2253
GlyphClass: 2
Flags: HW
HStem: 0 21G<306.311 468.901 1566.29 1800.19> 1573 20G<356.386 559.311 1609.64 1827.95>
VStem: 77 612<102.364 288.497> 236 291<315.451 838> 1346 672<315.451 836>
LayerCount: 2
Fore
SplineSet
2180 1358 m 0
 2180 1265.56542969 2018 1319.93164062 2018 1174 c 2
 2018 424 l 2
 2018 352.180664062 2044.16699219 311.055664062 2099 298 c 0
 2136.68164062 289.028320312 2180 282.672851562 2180 236 c 0
 2180 30.0205078125 1922.37207031 0 1678 0 c 0xe8
 1454.58691406 0 1187 21.822265625 1187 236 c 0
 1187 327.9609375 1346 274.783203125 1346 420 c 2
 1346 836 l 1
 988 236 l 2
 980 220.666992188 967.333007812 213 950 213 c 0
 934.666992188 213 920.235351562 219.913085938 910 236 c 2
 527 838 l 1
 527 424 l 2xd8
 527 352.180664062 553.166992188 311.055664062 608 298 c 0
 645.681640625 289.028320312 689 282.672851562 689 236 c 0
 689 76.181640625 547.801757812 0 390 0 c 0
 222.62109375 0 77 69.2822265625 77 236 c 0xe8
 77 327.9609375 236 274.783203125 236 420 c 2
 236 1174 l 2xd8
 236 1314.42089844 77 1268.54003906 77 1358 c 0
 77 1541.72167969 263.772460938 1593 449 1593 c 0
 669.62109375 1593 731.307617188 1476.11035156 818 1337 c 2
 1086 903 l 1
 1328 1315 l 2
 1406.46679688 1450.53417969 1504.27929688 1593 1715 1593 c 0
 1940.90820312 1593 2180 1575.23046875 2180 1358 c 0
EndSplineSet
Validated: 524289
EndChar

StartChar: N
Encoding: 78 78 49
Width: 1805
GlyphClass: 2
Flags: HW
HStem: 0 21G<306.311 468.901 1441.77 1525.34> 1573 20G<1382.37 1544.39>
VStem: 77 612<102.364 288.497> 236 291<315.451 780.998> 1162 612<1305.9 1488.08> 1324 293<883.008 1278.56>
LayerCount: 2
Fore
SplineSet
236 1174 m 2xd0
 236 1314.42089844 77 1268.54003906 77 1358 c 0
 77 1532.27148438 225.309570312 1593 400 1593 c 0
 567.591796875 1593 628.215820312 1507.72363281 720 1423 c 2
 1293 889 l 2
 1295.94140625 886.05859375 1300.79296875 883 1307 883 c 0
 1319.65039062 883 1324 894.498046875 1324 911 c 2
 1324 1169 l 2xe4
 1324 1241.68847656 1298.42578125 1282.80371094 1243 1296 c 0
 1205.31835938 1304.97167969 1162 1311.32714844 1162 1358 c 0
 1162 1517.29296875 1303.74511719 1593 1461 1593 c 0xc8
 1627.7890625 1593 1774 1524.12402344 1774 1358 c 0xc8
 1774 1266.05371094 1617 1319.24511719 1617 1174 c 2
 1617 215 l 2
 1617 85.6328125 1587.68164062 0 1463 0 c 0
 1360.8515625 0 1277.97851562 97.4736328125 1217 154 c 2
 546 776 l 2
 541.333007812 779.333007812 537.666992188 781 535 781 c 0
 529 781 526 777.666992188 526 771 c 0
 526 769 526.333007812 767.333007812 527 766 c 2
 527 424 l 2xd4
 527 352.180664062 553.166992188 311.055664062 608 298 c 0
 645.681640625 289.028320312 689 282.672851562 689 236 c 0
 689 76.181640625 547.801757812 0 390 0 c 0
 222.62109375 0 77 69.2822265625 77 236 c 0xe0
 77 327.9609375 236 274.783203125 236 420 c 2
 236 1174 l 2xd0
EndSplineSet
Validated: 524289
EndChar

StartChar: O
Encoding: 79 79 50
Width: 1892
GlyphClass: 2
Flags: HW
HStem: -25 263<872.46 1046.56> 1354 266<833.753 1011.58>
VStem: 53 721<506.985 1083.17> 1106 727<526.849 1102.25>
LayerCount: 2
Fore
SplineSet
53 758 m 0
 53 1303.39746094 353.887695312 1620 985 1620 c 0
 1514.45507812 1620 1833 1261.63378906 1833 848 c 0
 1833 309.1875 1525.90625 -25 901 -25 c 0
 382.66015625 -25 53 345.419921875 53 758 c 0
774 1026 m 0
 774 796.41015625 744.534179688 238 958 238 c 0
 1106.98925781 238 1106 449.90625 1106 604 c 0
 1106 838.318359375 1141.54589844 1354 921 1354 c 0
 772.391601562 1354 774 1179.56835938 774 1026 c 0
EndSplineSet
Validated: 524321
EndChar

StartChar: P
Encoding: 80 80 51
Width: 1969
GlyphClass: 2
Flags: HW
LayerCount: 2
Fore
SplineSet
911 764 m 1
 930.772460938 744.227539062 1007.78808594 754 1055 754 c 0
 1174.29785156 754 1194 870.318359375 1194 989 c 0
 1194 1019.71875 1192 1048.77246094 1192 1077 c 0
 1192 1236.74121094 1177.62109375 1399 1018 1399 c 0
 922.760742188 1399 911 1334.15039062 911 1240 c 2
 911 764 l 1
235 1174 m 2
 235 1314.42089844 76 1268.54003906 76 1358 c 0
 76 1567.99902344 336.701171875 1593 554 1593 c 2
 1149 1593 l 2
 1523.078125 1593 1892 1446.40527344 1892 1090 c 0
 1892 730.228515625 1523.0390625 571 1149 571 c 0
 1075.6875 571 978.622070312 570.225585938 907 575 c 1
 907 424 l 2
 907 352.180664062 933.166992188 311.055664062 988 298 c 128
 1025.68164062 289.028320312 1069 282.672851562 1069 236 c 0
 1069 30.0205078125 811.372070312 0 567 0 c 0
 343.586914062 0 76 21.822265625 76 236 c 0
 76 327.9609375 235 274.783203125 235 420 c 2
 235 1174 l 2
EndSplineSet
Validated: 524321
EndChar

StartChar: Q
Encoding: 81 81 52
Width: 1905
GlyphClass: 2
Flags: HW
LayerCount: 2
Fore
SplineSet
59 758 m 0
 59 1383.39746094 359.887695312 1620 991 1620 c 0
 1520.64453125 1620 1838 1371.85546875 1838 848 c 0
 1838 438.920898438 1713.16503906 182.50390625 1419 59 c 1
 1605 -66 l 2
 1646.2421875 -93.1328125 1694.73242188 -102 1754 -102 c 0
 1778.70703125 -102 1796.44140625 -101.016601562 1814 -96 c 1
 1823.3046875 -115.7734375 1830 -137.42578125 1830 -164 c 0
 1830 -309.9921875 1541.56738281 -467 1384 -467 c 0
 1263.34765625 -467 1187.53222656 -389.541015625 1121 -331 c 2
 763 -16 l 1
 333.935546875 28.623046875 59 289.885742188 59 758 c 0
1111 653 m 2
 1111 877.884765625 1138.72070312 1354 927 1354 c 0
 778.391601562 1354 780 1179.56835938 780 1026 c 0
 780 796.41015625 750.534179688 238 964 238 c 0
 1113.48632812 238 1111 449.34375 1111 604 c 2
 1111 653 l 2
EndSplineSet
Validated: 524321
EndChar

StartChar: R
Encoding: 82 82 53
Width: 2167
GlyphClass: 2
Flags: HW
LayerCount: 2
Fore
SplineSet
235 1174 m 2
 235 1314.42089844 76 1268.54003906 76 1358 c 0
 76 1570.48242188 356.979492188 1593 577 1593 c 2
 1118 1593 l 2
 1514.70605469 1593 1947 1523.7734375 1947 1139 c 0
 1947 897.846679688 1828.60449219 780.484375 1646 713 c 1
 1843 414 l 2
 1884.06054688 352.409179688 1935.421875 312.340820312 2013.5 295.5 c 128
 2052.20996094 287.150390625 2101 285.338867188 2101 240 c 0
 2101 -10.8505859375 1818.04785156 0 1556 0 c 0
 1291.38574219 0 1196.26953125 161.209960938 1128 351 c 2
 1028 629 l 1
 1016 629 l 2
 970.3828125 629 950.756835938 630.265625 907 633 c 1
 907 418 l 2
 907 277.958007812 1069 327.383789062 1069 236 c 0
 1069 30.0205078125 811.372070312 0 567 0 c 0
 343.586914062 0 76 21.822265625 76 236 c 0
 76 327.9609375 235 274.783203125 235 420 c 2
 235 1174 l 2
909 795 m 1
 914.794921875 777.614257812 1007.58398438 784 1044 784 c 0
 1170.46679688 784 1220 873.701171875 1220 1004 c 2
 1220 1034 l 2
 1220 1215.23046875 1217.35058594 1399 1036 1399 c 0
 932.424804688 1399 909 1331.33105469 909 1229 c 2
 909 795 l 1
EndSplineSet
Validated: 524321
EndChar

StartChar: S
Encoding: 83 83 54
Width: 1605
GlyphClass: 2
Flags: HW
LayerCount: 2
Fore
SplineSet
825 -25 m 0
 498.076171875 -25 84 45.779296875 84 334 c 0
 84 454.854492188 155.517578125 534 274 534 c 0
 420.97265625 534 526 484.3671875 526 336 c 0
 526 263.037109375 683.771484375 258 765 258 c 0
 875.704101562 258 968 267.59765625 968 369 c 0
 968 436.876953125 764.825195312 493.604492188 696.5 513 c 128
 422.801757812 590.6953125 110 724.3046875 110 1074 c 0
 110 1488.81542969 411.887695312 1620 825 1620 c 0
 1135.140625 1620 1478 1585.02539062 1478 1295 c 0
 1478 1152.30175781 1373.97265625 1082.609375 1233.72851562 1082.609375 c 0
 1100.66113281 1082.609375 967 1126.34960938 967 1249 c 0
 967 1273.47753906 1011.50390625 1311.84179688 1011.50390625 1333.11621094 c 0
 1011.50390625 1350.15136719 952.7109375 1372 813 1372 c 1
 701.474609375 1372 602 1350.24511719 602 1247 c 0
 602 1134.21484375 804.469726562 1094.93457031 901 1062 c 128
 1183.33203125 965.673828125 1548 845.828125 1548 471 c 0
 1548 77.7392578125 1219.60644531 -25 825 -25 c 0
EndSplineSet
EndChar

StartChar: T
Encoding: 84 84 55
Width: 1858
GlyphClass: 2
Flags: HW
LayerCount: 2
Fore
SplineSet
426 236 m 0
 426 327.9609375 585 274.783203125 585 420 c 2
 585 1378 l 1
 473 1374 l 1
 434 1214 l 1
 404.748046875 1115.27539062 348.631835938 1018 227 1018 c 0
 124.84375 1018 61 1086.68652344 61 1190 c 0
 61 1380.0078125 158.88671875 1593 348 1593 c 2
 1495 1593 l 2
 1684.15234375 1593 1781 1381.00488281 1781 1192 c 0
 1781 1088.87109375 1718.09277344 1020 1616 1020 c 0
 1493.44921875 1020 1433.35839844 1113.9453125 1409 1217 c 2
 1370 1376 l 1
 1257 1380 l 1
 1257 424 l 2
 1257 352.180664062 1283.16699219 311.055664062 1338 298 c 128
 1375.68164062 289.028320312 1419 282.672851562 1419 236 c 0
 1419 30.0205078125 1161.37207031 0 917 0 c 0
 693.586914062 0 426 21.822265625 426 236 c 0
EndSplineSet
Validated: 524289
EndChar

StartChar: U
Encoding: 85 85 56
Width: 1878
GlyphClass: 2
Flags: HW
LayerCount: 2
Fore
SplineSet
190 1174 m 2
 190 1314.42089844 31 1268.54003906 31 1358 c 0
 31 1570.60253906 301.963867188 1593 522 1593 c 0
 748.102539062 1593 1024 1574.31542969 1024 1358 c 0
 1024 1265.72851562 864 1322.30761719 864 1176 c 2
 864 520 l 2
 864 345.779296875 961.419921875 262 1134 262 c 0
 1299.75488281 262 1395 352.186523438 1395 520 c 2
 1395 1174 l 2
 1395 1314.93554688 1235 1268.23144531 1235 1358 c 0
 1235 1517.70117188 1390.43457031 1593 1548 1593 c 0
 1700.02246094 1593 1847 1510.81542969 1847 1358 c 0
 1847 1264.90234375 1685 1317.81347656 1685 1169 c 2
 1687 516 l 1
 1687 124.677734375 1374.171875 -25 985 -25 c 0
 562.748046875 -25 190 101.25390625 190 520 c 2
 190 1174 l 2
EndSplineSet
Validated: 524289
EndChar

StartChar: V
Encoding: 86 86 57
Width: 1796
GlyphClass: 2
Flags: HW
LayerCount: 2
Fore
SplineSet
532 1593 m 0
 754.885742188 1593 1024 1571.56152344 1024 1358 c 0
 1024 1275.37890625 888 1323.90820312 888 1237 c 0
 888 1213.421875 894.693359375 1194.76660156 903 1174 c 2
 1067 774 l 2
 1075.67285156 754.052734375 1089.79785156 716 1113 716 c 0
 1138.71875 716 1152.04492188 754.264648438 1163 784 c 2
 1302 1174 l 2
 1310.66699219 1198 1315 1218 1315 1234 c 256
 1315 1327.24804688 1169 1273.17480469 1169 1358 c 0
 1169 1517.11425781 1303.54785156 1593 1466 1593 c 0
 1630.56640625 1593 1765 1518.00585938 1765 1358 c 0
 1765 1308.86035156 1715.17285156 1304.17089844 1673.5 1296 c 128
 1602.66992188 1282.11230469 1565.35644531 1235.70898438 1538 1169 c 2
 1237 435 l 2
 1167.29101562 263.216796875 1106.08984375 -47 893 -47 c 0
 806.923828125 -47 768.463867188 11.87890625 727.5 79 c 128
 645.01953125 214.1484375 587.931640625 359.78515625 510 537 c 2
 231 1169 l 2
 203.831054688 1230.48632812 166.767578125 1275.2578125 102.5 1292.5 c 128
 65.005859375 1302.55957031 31 1310.48535156 31 1358 c 0
 31 1562.953125 288.271484375 1593 532 1593 c 0
EndSplineSet
Validated: 524289
EndChar

StartChar: W
Encoding: 87 87 58
Width: 2820
GlyphClass: 2
Flags: HW
LayerCount: 2
Fore
SplineSet
532 1593 m 0
 754.885742188 1593 1024 1571.56152344 1024 1358 c 0
 1024 1275.76953125 885 1321.19433594 885 1238 c 0
 885 1213.61816406 892.846679688 1194.30566406 903 1174 c 2
 1067 815 l 2
 1076.3984375 795.34765625 1090.80957031 757 1114 757 c 0
 1139.30175781 757 1152.03417969 795.236328125 1163 825 c 2
 1294 1194 l 1
 1265.99511719 1245.58691406 1228.34765625 1276.59960938 1171.5 1293.5 c 128
 1136.95410156 1303.77050781 1108 1313.06445312 1108 1358 c 0
 1108 1563.23339844 1365.58203125 1593 1610 1593 c 0
 1832.640625 1593 2101 1571.34082031 2101 1358 c 0
 2101 1274.69433594 1966 1325.49609375 1966 1236 c 0
 1966 1212.19726562 1971.60449219 1194.98828125 1980 1174 c 2
 2113 815 l 2
 2120.9609375 793.770507812 2136.96679688 756 2161 756 c 0
 2186.53808594 756 2199.83398438 795.284179688 2210 825 c 2
 2326 1174 l 2
 2334 1198 2338 1217.66699219 2338 1233 c 0
 2338 1327.70703125 2193 1272.67871094 2193 1358 c 0
 2193 1517.11425781 2327.54785156 1593 2490 1593 c 0
 2654.56640625 1593 2789 1518.00585938 2789 1358 c 0
 2789 1308.18066406 2742.44433594 1304.61816406 2701 1295.5 c 128
 2630.67382812 1280.02832031 2587.26464844 1235.87792969 2562 1169 c 2
 2295 459 l 2
 2231.3203125 290.333007812 2170.93164062 -47 1954 -47 c 0
 1738.71386719 -47 1642.53027344 351.021484375 1571 537 c 2
 1423 918 l 1
 1249 460 l 2
 1180.51269531 280.219726562 1125.76367188 -47 907 -47 c 0
 821.62890625 -47 784.454101562 12.9169921875 744.5 80 c 128
 663.080078125 216.705078125 604.930664062 361.294921875 524 537 c 2
 231 1169 l 2
 202.434570312 1228.98632812 164.482421875 1272.56640625 101.5 1291 c 128
 64.8896484375 1301.71484375 31 1310.85644531 31 1358 c 0
 31 1562.953125 288.271484375 1593 532 1593 c 0
EndSplineSet
Validated: 524289
EndChar

StartChar: X
Encoding: 88 88 59
Width: 1930
GlyphClass: 2
Flags: HW
LayerCount: 2
Fore
SplineSet
1384 0 m 0
 1159.20507812 0 845 28.0693359375 845 242 c 0
 845 310.392578125 958 294.802734375 958 352 c 0
 958 380.770507812 941.62890625 397.64453125 923 420 c 2
 811 557 l 1
 671 420 l 2
 652.576171875 402.453125 632 383.29296875 632 358 c 0
 632 297.068359375 745 313.861328125 745 242 c 0
 745 57.3798828125 535.278320312 0 350 0 c 0
 207.029296875 0 77 65.9482421875 77 209 c 0
 77 303.420898438 168.333007812 307.077148438 238.5 332.5 c 128
 295.498046875 353.151367188 341.336914062 381.486328125 385 424 c 2
 682 715 l 1
 311 1174 l 2
 264.879882812 1230.53417969 215.009765625 1262.01855469 143 1285.5 c 128
 97.142578125 1300.45410156 67 1318.52734375 67 1380 c 0
 67 1568.44726562 337.135742188 1593 534 1593 c 0
 784.134765625 1593 1063 1589.49707031 1063 1352 c 0
 1063 1282.1640625 950 1298.68554688 950 1241 c 0
 950 1213.30957031 966.686523438 1195.06054688 985 1174 c 2
 1058 1085 l 1
 1149 1174 l 2
 1169.62207031 1193.76269531 1194 1213.68457031 1194 1241 c 0
 1194 1294.08984375 1108 1286.41601562 1108 1350 c 0
 1108 1530.19433594 1291.72265625 1593 1472 1593 c 0
 1629.63378906 1593 1775 1539.921875 1775 1384 c 0
 1775 1284.55371094 1661.24609375 1285.87695312 1584 1262.5 c 128
 1523.14648438 1244.08398438 1472.26953125 1217.26953125 1429 1174 c 2
 1188 932 l 1
 1616 424 l 2
 1662.42089844 367.424804688 1716.18066406 332.2734375 1787.5 308.5 c 128
 1832.91503906 293.361328125 1861 272.465820312 1861 211 c 0
 1861 24.5546875 1609.6875 0 1384 0 c 0
EndSplineSet
Validated: 524289
EndChar

StartChar: Y
Encoding: 89 89 60
Width: 1797
GlyphClass: 2
Flags: HW
LayerCount: 2
Fore
SplineSet
391 236 m 0
 391 328.721679688 553 273.6171875 553 420 c 2
 553 780 l 1
 272 1169 l 2
 231.516601562 1225.97753906 179.405273438 1262.50878906 110.5 1284.5 c 128
 70.7578125 1297.18359375 31 1306.79199219 31 1358 c 0
 31 1562.953125 288.271484375 1593 532 1593 c 0
 754.885742188 1593 1024 1571.56152344 1024 1358 c 0
 1024 1284.7734375 909 1305.28222656 909 1246 c 0
 909 1217.97265625 928.946289062 1198.14355469 944 1174 c 2
 1050 1004 l 1
 1066 985.333007812 1081 976 1095 976 c 0
 1119.04882812 976 1135.81835938 997.735351562 1147 1014 c 2
 1261 1174 l 2
 1277.45703125 1197.23339844 1290 1216.57324219 1290 1246 c 0
 1290 1314.91210938 1169 1281.56542969 1169 1358 c 0
 1169 1517.11425781 1303.54785156 1593 1466 1593 c 0
 1630.56640625 1593 1765 1518.00585938 1765 1358 c 0
 1765 1305.76757812 1714.81445312 1298.09960938 1672 1287 c 128
 1596.71191406 1267.48046875 1538.31640625 1228.6796875 1497 1169 c 2
 1225 780 l 1
 1225 424 l 2
 1225 352.333984375 1251.01757812 311.288085938 1305.5 298 c 128
 1342.82519531 288.896484375 1386 282.538085938 1386 236 c 0
 1386 20.1259765625 1108.73730469 0 885 0 c 0
 660.759765625 0 391 21.0576171875 391 236 c 0
EndSplineSet
Validated: 524289
EndChar

StartChar: Z
Encoding: 90 90 61
Width: 1664
GlyphClass: 2
Flags: HW
LayerCount: 2
Fore
SplineSet
1603 410 m 0
 1603 219.9609375 1506.03808594 0 1317 0 c 2
 215 0 l 2
 156.548828125 0 109 22.94140625 109 82 c 0
 109 129.014648438 132.876953125 163.315429688 153 203 c 2
 727 1335 l 2
 728.333007812 1339 729 1342 729 1344 c 0
 729 1358.45800781 716.536132812 1374 702 1374 c 2
 475 1374 l 1
 436 1214 l 1
 406.748046875 1115.27539062 350.631835938 1018 229 1018 c 0
 126.84375 1018 63 1086.68652344 63 1190 c 0
 63 1380.0078125 160.88671875 1593 350 1593 c 2
 1421 1593 l 2
 1485.20703125 1593 1527 1570.19921875 1527 1514 c 0
 1527 1475.19238281 1505.14648438 1441.63476562 1491 1413 c 2
 954 326 l 1
 940.666992188 305.333007812 934 287.666992188 934 273 c 0
 934 231.108398438 985.376953125 225 1028 225 c 0
 1322.20800781 225 1169.48339844 582 1438 582 c 0
 1539.72167969 582 1603 512.616210938 1603 410 c 0
EndSplineSet
Validated: 524289
EndChar

StartChar: bracketleft
Encoding: 91 91 62
Width: 912
GlyphClass: 2
Flags: HW
LayerCount: 2
Fore
SplineSet
513 170 m 1
 736.901367188 170 882 155.83203125 882 -63 c 0
 882 -278.930664062 654.418945312 -297 431 -297 c 0
 176.603515625 -297 132 -161.228515625 132 94 c 2
 132 1700 l 2
 132 1952.53808594 176.96484375 2091 431 2091 c 0
 653.639648438 2091 882 2072.875 882 1858 c 0
 882 1640.6484375 736.119140625 1624 513 1624 c 1
 513 170 l 1
EndSplineSet
Validated: 524289
EndChar

StartChar: backslash
Encoding: 92 92 63
Width: 1025
GlyphClass: 2
Flags: HW
LayerCount: 2
Fore
SplineSet
981 70 m 0
 981 -55.89453125 878.037109375 -123 750 -123 c 0
 631.470703125 -123 565.73046875 -45.21484375 539 45 c 2
 36 1731 l 2
 29.7236328125 1753.59570312 23 1780.01757812 23 1808 c 0
 23 1935.15722656 125.653320312 1997 258 1997 c 0
 376.973632812 1997 441.587890625 1921.12011719 467 1829 c 0
 625.858398438 1272.99609375 804.590820312 696.9921875 969 143 c 0
 975.659179688 120.559570312 981 96.6669921875 981 70 c 0
EndSplineSet
Validated: 524289
EndChar

StartChar: bracketright
Encoding: 93 93 64
Width: 916
GlyphClass: 2
Flags: HW
LayerCount: 2
Fore
SplineSet
403 1624 m 1
 177.94921875 1624 34 1638.06640625 34 1858 c 0
 34 2072.9296875 262.15625 2091 485 2091 c 0
 739.384765625 2091 784 1955.18261719 784 1700 c 2
 784 94 l 2
 784 -158.538085938 739.03515625 -297 485 -297 c 0
 260.353515625 -297 34 -280.966796875 34 -63 c 0
 34 153.447265625 180.297851562 170 403 170 c 1
 403 1624 l 1
EndSplineSet
Validated: 524289
EndChar

StartChar: asciicircum
Encoding: 94 94 65
Width: 1147
GlyphClass: 2
Flags: HW
LayerCount: 2
Fore
SplineSet
175 679 m 0
 116.34765625 679 74 717.24609375 74 777 c 0
 74 799.408203125 78.189453125 816.146484375 86 834 c 2
 223 1160 l 2
 296.709960938 1334.3515625 345.873046875 1591 572 1591 c 256
 797.702148438 1591 847.68359375 1333.41894531 921 1160 c 2
 1058 834 l 2
 1065.828125 816.107421875 1070 799.455078125 1070 777 c 0
 1070 717.2421875 1027.65234375 679 969 679 c 0
 872.359375 679 819.083984375 775.416992188 776 843 c 2
 572 1163 l 1
 368 843 l 1
 318.020507812 776.361328125 275.688476562 679 175 679 c 0
EndSplineSet
Validated: 524289
EndChar

StartChar: grave
Encoding: 96 96 67
Width: 895
GlyphClass: 2
Flags: HW
LayerCount: 2
Fore
SplineSet
66 662 m 0
 66 792.77734375 171.374023438 891 303 891 c 0
 518.41796875 891 616.71875 587.362304688 706 446 c 0
 759.551757812 362.240234375 838 273.174804688 838 158 c 0
 838 108.646484375 791.162109375 61 742 61 c 0
 624.041015625 61 489.819335938 194.985351562 392.5 264.5 c 128
 275.436523438 348.1171875 66 472.080078125 66 662 c 0
EndSplineSet
EndChar

StartChar: a
Encoding: 97 97 68
Width: 1651
GlyphClass: 2
Flags: HW
LayerCount: 2
Fore
SplineSet
623 377 m 0
 623 270.131835938 647.845703125 205 756 205 c 0
 846.298828125 205 859 267.47265625 859 358 c 0
 859 450.50390625 854.59375 550.537109375 853 643 c 1
 836.002929688 645.427734375 820.1171875 648 802 648 c 0
 657.739257812 648 623 522.578125 623 377 c 0
177 1019 m 0
 177 1227.41015625 487.274414062 1325 761 1325 c 0
 1190.07324219 1325 1438 1167.96289062 1438 743 c 2
 1438 363 l 2
 1438 294.946289062 1462.49511719 254.875976562 1514 242 c 128
 1548.40332031 233.399414062 1590 227.627929688 1590 185 c 0
 1590 22.9951171875 1422.56933594 -26 1238 -26 c 0
 1063.67382812 -26 952.0546875 44.115234375 892 162 c 1
 839.24609375 38.0283203125 661.387695312 -25 488 -25 c 0
 249.357421875 -25 79 78.2607421875 79 313 c 0
 79 657.565429688 360.549804688 760 718 760 c 2
 855 760 l 1
 855 913.337890625 865.653320312 1137 726 1137 c 0
 595.336914062 1137 593 976.951171875 593 841 c 1
 403.766601562 841 177 901.930664062 177 1019 c 0
EndSplineSet
Substitution2: "'smcp' Lowercase to Small Capitals in Latin lookup 1 subtable" a.sc
Substitution2: "'aalt' Access All Alternates in Latin lookup 0 subtable" a.sc
EndChar

StartChar: b
Encoding: 98 98 69
Width: 1789
GlyphClass: 2
Flags: HW
HStem: -25 254<905.532 1387.3> 0 21G<402.018 573.579> 1069 256<911.211 1413.35> 1866 20G<403.137 614.104>
VStem: 203 612<294.68 1043.85 1156 1590.54> 1104 631<338.821 963.907>
LayerCount: 2
Fore
SplineSet
504 1886 m 256x7c
 724.208007812 1886 814 1869.93945312 814 1653 c 2
 814 1156 l 1
 909.640625 1284.56152344 1061.27734375 1325 1239 1325 c 0
 1587.70410156 1325 1735 1016.62597656 1735 641 c 0
 1735 272.44921875 1570.60449219 -25 1204 -25 c 0xbc
 1014.02539062 -25 854.616210938 52.3837890625 782 165 c 1
 747.588867188 63.005859375 643.158203125 -26 504 -26 c 4
 300.036132812 -26 57 -6.421875 57 189 c 4
 57 273.0078125 203 221.5546875 203 355 c 6
 203 1505 l 2
 203 1633.78222656 57 1589.03222656 57 1671 c 0
 57 1865.81933594 302.2734375 1886 504 1886 c 256x7c
815 368 m 2
 815 288.431640625 857.064453125 229 954 229 c 0
 1137.78710938 229 1104 446.30859375 1104 637 c 0
 1104 826.556640625 1112.58984375 1069 936 1069 c 0
 886.421875 1069 815 1025.078125 815 988 c 2
 815 368 l 2
EndSplineSet
Substitution2: "'smcp' Lowercase to Small Capitals in Latin lookup 1 subtable" b.sc
Substitution2: "'aalt' Access All Alternates in Latin lookup 0 subtable" b.sc
EndChar

StartChar: c
Encoding: 99 99 70
Width: 1367
GlyphClass: 2
Flags: HW
HStem: -25 357<568.77 980.9> 1069 256<712.641 926.642>
VStem: 51 602<499.701 906.059> 975 317<833.695 1016.51>
LayerCount: 2
Fore
SplineSet
51 651 m 0
 51 1061.04394531 320.80859375 1325 735 1325 c 0
 1043.5625 1325 1292 1211.8515625 1292 913 c 0
 1292 824.87890625 1238.48828125 766 1151 766 c 0
 936.765625 766 1027.48144531 1069 821 1069 c 0
 686.616210938 1069 653 940.635742188 653 803 c 0
 653 531.159179688 712.016601562 332 958 332 c 0
 1073.05371094 332 1164.85351562 412 1253 412 c 0
 1284.49023438 412 1302 379.74609375 1302 348 c 0
 1302 336.099609375 1301.76269531 327.780273438 1298 319 c 0
 1216.61816406 111.3359375 1009.43457031 -25 721 -25 c 0
 312.4140625 -25 51 247.3828125 51 651 c 0
EndSplineSet
Validated: 524289
Substitution2: "'smcp' Lowercase to Small Capitals in Latin lookup 1 subtable" c.sc
Substitution2: "'aalt' Access All Alternates in Latin lookup 0 subtable" c.sc
EndChar

StartChar: d
Encoding: 100 100 71
Width: 1795
GlyphClass: 2
Flags: HW
HStem: -25 254<381.036 829.984> 0 21G<1206.14 1385.54> 1069 256<407.906 843.707> 1866 20G<1173.38 1349.86>
VStem: 58 604<320.912 952.118> 973 613<282.137 1038.47 1204 1605.3>
LayerCount: 2
Fore
SplineSet
1586 385 m 2
 1586 254.368164062 1733 296.950195312 1733 215 c 0
 1733 27.0869140625 1497.08203125 -26 1274 -26 c 4x7c
 1138.28027344 -26 1045.18945312 35.115234375 1004 127 c 1
 904.026367188 34.716796875 765.802734375 -25 568 -25 c 0
 194.072265625 -25 58 269.390625 58 641 c 0xbc
 58 1018.28515625 219.811523438 1325 596 1325 c 0
 762.038085938 1325 884.666992188 1278.74316406 973 1204 c 1
 973 1505 l 2
 973 1634.17675781 828 1588.63574219 828 1671 c 0
 828 1865.48925781 1072.76367188 1886 1274 1886 c 0
 1494.25488281 1886 1590 1870.03125 1590 1653 c 2
 1586 385 l 2
662 637 m 0
 662 467.889648438 664.311523438 229 828 229 c 0xbc
 883.231445312 229 975 232.703125 975 274 c 0
 975 291.383789062 973 308.833007812 973 326.5 c 2
 973 1014 l 1
 932.482421875 1037.83398438 875.375976562 1069 814 1069 c 0
 642.9296875 1069 662 818.936523438 662 637 c 0
EndSplineSet
Validated: 524321
Substitution2: "'smcp' Lowercase to Small Capitals in Latin lookup 1 subtable" d.sc
Substitution2: "'aalt' Access All Alternates in Latin lookup 0 subtable" d.sc
EndChar

StartChar: e
Encoding: 101 101 72
Width: 1376
GlyphClass: 2
Flags: HW
HStem: -25 357<514.743 989.597> 682 141<656 975> 1069 256<712.65 924.797>
VStem: 50 602<462.271 669.16> 975 340<823 1014.22>
LayerCount: 2
Fore
SplineSet
975 823 m 1
 975 964.790039062 945.625 1069 808 1069 c 0
 689.103515625 1069 656 946.376953125 656 823 c 1
 975 823 l 1
957 332 m 0
 1074.92578125 332 1167.07617188 412 1252 412 c 0
 1283.04296875 412 1301 379.998046875 1301 349 c 0
 1301 337.190429688 1299.73925781 328.725585938 1296 320 c 0
 1212.34375 106.533203125 1017.30859375 -25 719 -25 c 0
 310.487304688 -25 50 267.290039062 50 651 c 4
 50 1040.04394531 319.80859375 1325 734 1325 c 0
 1067.33984375 1325 1315 1135.01464844 1315 807 c 0
 1315 692.486328125 1246.66894531 682 1133 682 c 2
 652 682 l 1
 652 446.967773438 726.913085938 332 957 332 c 0
EndSplineSet
Validated: 524289
Substitution2: "'smcp' Lowercase to Small Capitals in Latin lookup 1 subtable" e.sc
Substitution2: "'aalt' Access All Alternates in Latin lookup 0 subtable" e.sc
EndChar

StartChar: f
Encoding: 102 102 73
Width: 1313
GlyphClass: 2
Flags: HW
HStem: 0 21G<429.326 642.495> 1096 200<94.2684 230 843.431 1026.77> 1664.31 195.687<657.625 887.652>
VStem: 230 612<284.373 1096> 236 357.741<1390.97 1527.03> 867 421<1414.86 1636.5>
LayerCount: 2
Fore
SplineSet
842 383 m 2
 842 252.368164062 989 294.950195312 989 213 c 0
 989 25.330078125 753.990234375 0 531 0 c 0xf4
 327.65234375 0 84 17.8837890625 84 213 c 0
 84 297.0078125 230 245.5546875 230 379 c 2
 230 1096 l 1xf4
 181 1096 l 2
 111.203125 1096 84 1127 84 1200 c 0
 84 1269.05566406 114.845703125 1296 181 1296 c 2
 236 1296 l 1
 236 1666.25488281 509.087890625 1860 792 1860 c 4
 1049.27832031 1860 1288 1794.14746094 1288 1540 c 0
 1288 1420.17675781 1197.18164062 1346 1073 1346 c 0
 940.190429688 1346 867 1406.20703125 867 1534 c 0
 867 1572.49902344 875.552734375 1606.01074219 890 1638 c 1
 849.946289062 1656.32617188 812.102539062 1664.31347656 777.705078125 1664.31347656 c 0
 668.298828125 1664.31347656 593.741210938 1583.51757812 593.741210938 1497.61035156 c 0xec
 593.741210938 1400.09863281 689.802734375 1296 940 1296 c 0
 1006.1328125 1296 1037 1269.05371094 1037 1200 c 0
 1037 1136.17285156 1014.79101562 1098 954 1098 c 2
 842 1098 l 1
 842 383 l 2
EndSplineSet
Validated: 524289
Substitution2: "'smcp' Lowercase to Small Capitals in Latin lookup 1 subtable" f.sc
Substitution2: "'aalt' Access All Alternates in Latin lookup 0 subtable" f.sc
EndChar

StartChar: g
Encoding: 103 103 74
Width: 1761
GlyphClass: 2
Flags: HW
LayerCount: 2
Fore
SplineSet
1406 905 m 0
 1406 581.133789062 1097.09082031 414 762 414 c 0
 708.666992188 414 655.666992188 418 603 426 c 1
 603 401 l 2
 603 357.966796875 694.123046875 351.673828125 746 346 c 128
 1106.66796875 306.551757812 1518 294.64453125 1518 -104 c 0
 1518 -457.482421875 1202.9453125 -598 851 -598 c 0
 494.758789062 -598 130 -514.548828125 130 -162 c 0
 130 -88.291015625 155.806640625 -35.787109375 195 -2 c 1
 129.291992188 45.669921875 85 115.567382812 85 227 c 0
 85 397.7421875 217.154296875 466.141601562 353 504 c 1
 220.030273438 570.484375 105 685.146484375 105 881 c 0
 105 1211.72753906 495.649414062 1325 846 1325 c 0
 995.786132812 1325 1099.98925781 1237 1207 1237 c 0
 1292.90722656 1237 1378.859375 1325 1494 1325 c 0
 1613.53710938 1325 1694 1271.53222656 1694 1151 c 0
 1694 1052.24707031 1626.65039062 985 1526 985 c 256
 1389.04101562 985 1430.87988281 1147 1342 1147 c 0
 1332.81835938 1147 1325.74121094 1145.18554688 1317 1143 c 1
 1367.8359375 1083.12695312 1406 1005.19824219 1406 905 c 0
455 -90 m 1
 462.620117188 -288.123046875 583.287109375 -317 791 -317 c 0
 907.184570312 -317 1014 -296.982421875 1014 -190 c 0
 1014 -80.0439453125 564.806640625 -105.44140625 455 -90 c 1
650 915 m 0
 650 816.216796875 699.693359375 686 795 686 c 0
 889.280273438 686 932 773.241210938 932 868 c 0
 932 969.764648438 883.928710938 1069 783 1069 c 0
 691.536132812 1069 650 1005.65625 650 915 c 0
EndSplineSet
Validated: 524289
Substitution2: "'smcp' Lowercase to Small Capitals in Latin lookup 1 subtable" g.sc
Substitution2: "'aalt' Access All Alternates in Latin lookup 0 subtable" g.sc
EndChar

StartChar: h
Encoding: 104 104 75
Width: 1964
GlyphClass: 2
Flags: HW
HStem: 0 21G<398.788 619.541 1367.02 1580.6> 1069 256<947.606 1488.25> 1866 20G<398.923 618.104>
VStem: 207 612<293.906 1006.73 1121 1590.62> 1172 604<288.905 1011.77>
LayerCount: 2
Back
SplineSet
1075 215 m 0xd8
 1075 299.32421875 1175 254.173834683 1175 381 c 2
 1175 808 l 2
 1175 962.15625 1135.27050781 1069 982 1069 c 0xd8
 887.370117188 1069 808 997.772460938 808 904 c 2
 808 385 l 2
 808 319.25390625 813.670898438 282.419921875 864 270.5 c 0
 898.607421875 262.303710938 928 257.916992188 928 215 c 0
 928 27.0869140625 722.08203125 0 499 0 c 0
 295.036132812 0 72 19.578125 72 215 c 0
 72 298.377647514 198 255.250437582 198 381 c 2
 198 915 l 2
 198 1043.20414878 52 999.348406067 52 1081 c 0
 52 1275.81933594 287.2734375 1296 489 1296 c 0xb8
 622.64453125 1296 796.122070312 1258.60449219 806 1118 c 1
 941.953125 1280.50488281 1105.02929688 1325 1311 1325 c 0
 1636.49023438 1325 1779 1132.40136719 1779 771 c 2
 1779 390 l 2
 1779 263.059570312 1910 300.294886742 1910 215 c 0
 1910 27.033203125 1695.20410156 0 1472 0 c 0
 1268.03613281 0 1075 19.578125 1075 215 c 0xd8
EndSplineSet
Fore
SplineSet
207 1505 m 2
 207 1634.17675781 62 1588.63574219 62 1671 c 0
 62 1856.90527344 289.846679688 1886 508 1886 c 0
 728.208007812 1886 823.815429688 1869.9375 823 1653 c 2
 821 1121 l 1
 927.58203125 1255.98046875 1095.90332031 1325 1303 1325 c 4
 1673.49609375 1325 1776 1105.57128906 1776 739 c 2
 1776 393 l 2
 1776 324.233398438 1779.6875 285.28515625 1831.5 272 c 0
 1866.00488281 263.15234375 1897 258.09765625 1897 215 c 0
 1897 27.033203125 1692.20410156 0 1469 0 c 0
 1265.03613281 0 1072 19.578125 1072 215 c 0
 1072 272.608398438 1108.69433594 263.784179688 1143 288 c 0
 1170.09570312 307.125976562 1172 338.427734375 1172 389 c 2
 1172 797 l 2
 1172 955.595703125 1156.53613281 1069 999 1069 c 0
 896.212890625 1069 819 974.560546875 819 923 c 2
 819 385 l 2
 819 319.25390625 822.670898438 282.419921875 873 270.5 c 0
 907.607421875 262.303710938 937 257.916992188 937 215 c 0
 937 27.0869140625 731.08203125 0 508 0 c 0
 289.575195312 0 62 29.033203125 62 215 c 0
 62 299.453125 207 247.3203125 207 381 c 2
 207 1505 l 2
EndSplineSet
Validated: 524321
Substitution2: "'smcp' Lowercase to Small Capitals in Latin lookup 1 subtable" h.sc
Substitution2: "'aalt' Access All Alternates in Latin lookup 0 subtable" h.sc
EndChar

StartChar: i
Encoding: 105 105 76
Width: 1011
GlyphClass: 2
Flags: HW
HStem: 0 21G<414.018 627.541> 1276 20G<415.137 626.322> 1393 495<337.198 728.196>
VStem: 207 651<1508.57 1772.6> 215 612<293.337 1015.32>
LayerCount: 2
Fore
SplineSet
532 1393 m 0xf0
 365.462890625 1393 207 1472.67480469 207 1640 c 256
 207 1809.43945312 366.333007812 1888 532 1888 c 0
 701.770507812 1888 858 1810.64160156 858 1640 c 0
 858 1468.44238281 700.053710938 1393 532 1393 c 0xf0
215 915 m 2
 215 1043.20410156 69 999.348632812 69 1081 c 0
 69 1275.81933594 314.2734375 1296 516 1296 c 256
 736.64453125 1296 827 1280.50585938 827 1063 c 2
 827 381 l 2xe8
 827 317.298828125 831.305664062 280.461914062 881 270 c 0
 916.014648438 262.627929688 945 257.594726562 945 215 c 0
 945 27.0869140625 739.08203125 0 516 0 c 0
 312.036132812 0 89 19.578125 89 215 c 0
 89 298.377929688 215 255.25 215 381 c 2
 215 915 l 2
EndSplineSet
Validated: 524289
Substitution2: "'smcp' Lowercase to Small Capitals in Latin lookup 1 subtable" i.sc
Substitution2: "'aalt' Access All Alternates in Latin lookup 0 subtable" i.sc
EndChar

StartChar: j
Encoding: 106 106 77
Width: 941
GlyphClass: 2
Flags: HW
HStem: -340 221<48.0371 305.317> 1276 20G<408.137 618.941> 1393 495<313.629 704.578>
VStem: 183 651<1508.38 1772.79> 208 614<206.721 1015.32> 328.547 493.453<-22.6849 125.295>
LayerCount: 2
Fore
SplineSet
509 1393 m 0xf0
 342.072265625 1393 183 1472.26074219 183 1640 c 256
 183 1809.85546875 342.896484375 1888 509 1888 c 0
 678.204101562 1888 834 1810.10546875 834 1640 c 0
 834 1468.93066406 676.500976562 1393 509 1393 c 0xf0
208 915 m 2xe8
 208 1043.20410156 62 999.348632812 62 1081 c 0
 62 1275.81933594 307.2734375 1296 509 1296 c 0
 728.8828125 1296 822 1279.94628906 822 1063 c 2xe4
 822 221 l 2xe8
 822 -148.845703125 576.489257812 -340 204 -340 c 0
 111.516601562 -340 19 -314.4375 19 -227 c 256
 19 -166.8359375 65.2900390625 -119 126 -119 c 0
 280.962890625 -119 328.546875 -81.6005859375 328.546875 -20.220703125 c 0xe4
 328.546875 77.474609375 208 235.91796875 208 401 c 2
 208 915 l 2xe8
EndSplineSet
Validated: 524289
Substitution2: "'smcp' Lowercase to Small Capitals in Latin lookup 1 subtable" j.sc
Substitution2: "'aalt' Access All Alternates in Latin lookup 0 subtable" j.sc
EndChar

StartChar: k
Encoding: 107 107 78
Width: 1935
GlyphClass: 2
Flags: W
HStem: 0 21G<407.018 620.541 1303.35 1576.19> 1276 20G<1357.89 1512.4> 1866 20G<408.137 609.364>
VStem: 208 612<298.044 593.586 729 1590.54> 1205 539<997.298 1205.41>
LayerCount: 2
Fore
SplineSet
208 1505 m 2
 208 1633.78222656 62 1589.03222656 62 1671 c 0
 62 1865.81933594 307.2734375 1886 509 1886 c 0
 709.727539062 1886 820 1877.96582031 820 1681 c 2
 820 729 l 2
 819.852539062 729 908.120117188 779.015625 938 802 c 1
 1168 954 l 2
 1189.15039062 967.977539062 1205 984.595703125 1205 1010 c 0
 1205 1063.49023438 1095 1066.75390625 1095 1128 c 0
 1095 1276.10644531 1283.77441406 1296 1432 1296 c 0
 1592.79980469 1296 1744 1282.82519531 1744 1128 c 0
 1744 1026.93261719 1520.61035156 1006.27539062 1459 954 c 2
 1310 827 l 1
 1623 367 l 2
 1658.546875 315.161132812 1706.33105469 288.8671875 1780 281.5 c 0
 1827.10449219 276.7890625 1867 271.317382812 1867 219 c 0
 1867 28.513671875 1674.38867188 0 1478 0 c 0
 1128.69433594 0 1172.24023438 97.859375 1066 307 c 2
 907 620 l 1
 908.828125 620.228515625 820 567 820 567 c 1
 820 385 l 2
 820 254.165039062 968 297.056640625 968 215 c 0
 968 27.0869140625 732.08203125 0 509 0 c 0
 305.036132812 0 62 19.578125 62 215 c 0
 62 299.0078125 208 247.5546875 208 381 c 2
 208 1505 l 2
EndSplineSet
Validated: 524325
Substitution2: "'smcp' Lowercase to Small Capitals in Latin lookup 1 subtable" k.sc
Substitution2: "'aalt' Access All Alternates in Latin lookup 0 subtable" k.sc
EndChar

StartChar: l
Encoding: 108 108 79
Width: 985
GlyphClass: 2
Flags: HW
HStem: 0 21G<389.296 602.541> 1866 20G<390.382 566.599>
VStem: 190 613<286.363 1605.3>
LayerCount: 2
Fore
SplineSet
190 1505 m 2
 190 1634.17675781 45 1588.63574219 45 1671 c 0
 45 1865.48925781 289.763671875 1886 491 1886 c 0
 711.262695312 1886 803 1870.00390625 803 1653 c 2
 803 385 l 2
 803 319.684570312 806.250976562 282.095703125 856.5 270.5 c 0
 891.198242188 262.4921875 920 257.7265625 920 215 c 0
 920 27.0869140625 714.08203125 0 491 0 c 0
 287.591796875 0 65 19.986328125 65 215 c 0
 65 299.453125 190 247.3203125 190 381 c 2
 190 1505 l 2
EndSplineSet
Validated: 524289
Substitution2: "'smcp' Lowercase to Small Capitals in Latin lookup 1 subtable" l.sc
Substitution2: "'aalt' Access All Alternates in Latin lookup 0 subtable" l.sc
EndChar

StartChar: m
Encoding: 109 109 80
Width: 2772
GlyphClass: 2
Flags: HW
HStem: 0 21G<408.96 617.617 1338.82 1538.39 2217.82 2416.5> 1067 258<938.195 1404.31 1801.91 2313.79> 1276 20G<405.507 565.69>
VStem: 220 610<293.337 999.308> 1046 756<90.2582 271.527> 1117 604<286.465 1033.15> 1995 605<286.465 1021.21>
LayerCount: 2
Back
SplineSet
1075 215 m 4xd8
 1075 299.32421875 1175 254.173834683 1175 381 c 6
 1175 808 l 6
 1175 962.15625 1135.27050781 1069 982 1069 c 4xd8
 887.370117188 1069 808 997.772460938 808 904 c 6
 808 385 l 6
 808 319.25390625 813.670898438 282.419921875 864 270.5 c 4
 898.607421875 262.303710938 928 257.916992188 928 215 c 4
 928 27.0869140625 722.08203125 0 499 0 c 4
 295.036132812 0 72 19.578125 72 215 c 4
 72 298.377647514 198 255.250437582 198 381 c 6
 198 915 l 6
 198 1043.20414878 52 999.348406067 52 1081 c 4
 52 1275.81933594 287.2734375 1296 489 1296 c 4xb8
 622.64453125 1296 796.122070312 1258.60449219 806 1118 c 5
 941.953125 1280.50488281 1105.02929688 1325 1311 1325 c 4
 1636.49023438 1325 1779 1132.40136719 1779 771 c 6
 1779 390 l 6
 1779 263.059570312 1910 300.294886742 1910 215 c 4
 1910 27.033203125 1695.20410156 0 1472 0 c 4
 1268.03613281 0 1075 19.578125 1075 215 c 4xd8
EndSplineSet
Fore
SplineSet
220 915 m 2xd6
 220 1043.20410156 74 999.348632812 74 1081 c 0
 74 1272.00878906 307.014648438 1296 504 1296 c 0xb6
 627.380859375 1296 795.16015625 1280.453125 832 1120 c 1
 960.21484375 1271.71289062 1131.22265625 1325 1328 1325 c 0
 1480.61230469 1325 1618.34960938 1248.37792969 1672 1132 c 1
 1751.02050781 1235.484375 1895.56542969 1325 2130 1325 c 4
 2497.58007812 1325 2602 1083.83007812 2602 719 c 0
 2602 581.704101562 2600 502.739257812 2600 390 c 0
 2600 323.647460938 2603.5390625 283.259765625 2654.5 271.5 c 0
 2689.14453125 263.504882812 2699 257.473632812 2699 215 c 0
 2699 22.3544921875 2515.99511719 0 2317 0 c 0
 2118.63085938 0 1925 23.921875 1925 215 c 0
 1925 271.010742188 1952.11914062 257.397460938 1979 285.5 c 0
 1998.55664062 305.9453125 1995 335.432617188 1995 381 c 2
 1995 811 l 2
 1995 943.674804688 1975.99707031 1069 1846 1069 c 0
 1757.81738281 1069 1721 1007.55566406 1721 920 c 2
 1721 393 l 2xd6
 1721 330.7421875 1713.63964844 286.779296875 1756.5 272 c 0
 1785.91894531 261.85546875 1802 255.443359375 1802 215 c 0
 1802 22.1123046875 1638.77050781 0 1438 0 c 0
 1239.63085938 0 1046 23.921875 1046 215 c 0xda
 1046 271.590820312 1073.86621094 257.1328125 1101 285.5 c 0
 1120.55664062 305.9453125 1117 335.432617188 1117 381 c 2
 1117 841 l 2
 1117 972.883789062 1099.72265625 1067 982 1067 c 0
 894.390625 1067 830 984.629882812 830 897 c 2
 830 385 l 2
 830 324.045898438 826.514648438 283.26953125 870.5 270.5 c 0
 901.487304688 261.50390625 919 255.805664062 919 215 c 0
 919 29.4658203125 726.234375 0 509 0 c 0
 308.919921875 0 94 22.9560546875 94 215 c 0
 94 298.377929688 220 255.25 220 381 c 2
 220 915 l 2xd6
EndSplineSet
Validated: 524321
Substitution2: "'smcp' Lowercase to Small Capitals in Latin lookup 1 subtable" m.sc
Substitution2: "'aalt' Access All Alternates in Latin lookup 0 subtable" m.sc
EndChar

StartChar: n
Encoding: 110 110 81
Width: 2000
GlyphClass: 2
Flags: HW
HStem: 0 21G<419.018 632.541 1392.02 1605.6> 1069 256<956.685 1495.75> 1276 20G<410.137 577.822>
VStem: 220 610<293.337 1000.37> 1197 604<299.306 996.986>
LayerCount: 2
Back
SplineSet
1045 215 m 0xd8
 1045 299.324233773 1175 254.173834683 1175 381 c 2
 1175 808 l 2
 1175 962.15625 1135.27050781 1069 982 1069 c 0xd8
 887.370117188 1069 812 1008.77246094 812 915 c 2
 810 385 l 2
 810 319.25390625 823.670898438 282.419921875 874 270.5 c 0
 908.607421875 262.303710938 938 257.916992188 938 215 c 0
 938 27.0869140625 722.08203125 0 499 0 c 0
 295.036132812 0 72 19.578125 72 215 c 0
 72 298.377647514 198 255.250437582 198 381 c 2
 198 915 l 2
 198 1043.20414878 52 999.348406067 52 1081 c 0
 52 1275.81933594 297.2734375 1296 499 1296 c 0xb8
 632.64453125 1296 756.122070312 1272.60449219 796 1190 c 1
 911.953125 1272.50488281 1075.02929688 1325 1281 1325 c 0
 1646.49023438 1325 1779 1122.40136719 1779 761 c 2
 1779 390 l 2
 1779 263.059546682 1910 300.294886742 1910 215 c 0
 1910 27.033203125 1695.20410156 0 1472 0 c 0
 1268.03613281 0 1045 19.578125 1045 215 c 0xd8
EndSplineSet
Fore
SplineSet
1097 215 m 0xd8
 1097 299.32421875 1197 254.173828125 1197 381 c 2
 1197 808 l 2
 1197 962.15625 1157.27050781 1069 1004 1069 c 0xd8
 909.370117188 1069 830 997.772460938 830 904 c 2
 830 385 l 2
 830 319.25390625 835.670898438 282.419921875 886 270.5 c 0
 920.607421875 262.303710938 950 257.916992188 950 215 c 0
 950 27.0869140625 744.08203125 0 521 0 c 0
 317.036132812 0 94 19.578125 94 215 c 0
 94 298.377929688 220 255.25 220 381 c 2
 220 915 l 2
 220 1043.20410156 74 999.348632812 74 1081 c 0
 74 1275.81933594 309.2734375 1296 511 1296 c 0xb8
 644.64453125 1296 818.122070312 1258.60449219 828 1118 c 1
 963.953125 1280.50488281 1127.02929688 1325 1333 1325 c 0
 1658.49023438 1325 1801 1132.40136719 1801 771 c 2
 1801 390 l 2
 1801 263.059570312 1932 300.294921875 1932 215 c 0
 1932 27.033203125 1717.20410156 0 1494 0 c 0
 1290.03613281 0 1097 19.578125 1097 215 c 0xd8
EndSplineSet
Validated: 524289
Substitution2: "'smcp' Lowercase to Small Capitals in Latin lookup 1 subtable" n.sc
Substitution2: "'aalt' Access All Alternates in Latin lookup 0 subtable" n.sc
EndChar

StartChar: o
Encoding: 111 111 82
Width: 1581
GlyphClass: 2
Flags: HW
HStem: -25 256<739.275 888.844> 1069 256<706.627 859.394>
VStem: 50 602<408.852 906.757> 930 605<408.17 915.929>
LayerCount: 2
Fore
SplineSet
1535 668 m 0
 1535 231.150390625 1209.54882812 -25 767 -25 c 0
 344.950195312 -25 50 246.059570312 50 662 c 0
 50 1099.62988281 392.19921875 1325 836 1325 c 0
 1247.55371094 1325 1535 1074.22460938 1535 668 c 0
652 803 m 0
 652 626.194335938 647.54296875 231 812 231 c 0
 925.091796875 231 930 396.66796875 930 514 c 0
 930 690.73046875 950.607421875 1069 783 1069 c 0
 668.797851562 1069 652 920.653320312 652 803 c 0
EndSplineSet
Validated: 524321
Substitution2: "'smcp' Lowercase to Small Capitals in Latin lookup 1 subtable" o.sc
Substitution2: "'aalt' Access All Alternates in Latin lookup 0 subtable" o.sc
EndChar

StartChar: p
Encoding: 112 112 83
Width: 1711
GlyphClass: 2
Flags: HW
LayerCount: 2
Fore
SplineSet
192 915 m 2
 192 1043.60351562 47 998.94921875 47 1081 c 0
 47 1275.48925781 291.763671875 1296 493 1296 c 0
 622.96875 1296 719.201171875 1288.39160156 766 1219 c 1
 855.18359375 1285.88769531 977.776367188 1325 1136 1325 c 0
 1514.53710938 1325 1652 1017.21875 1652 641 c 0
 1652 268.90625 1514.390625 -25 1142 -25 c 0
 1000.20898438 -25 890.361328125 6.9609375 805 57 c 1
 805 -176 l 2
 805 -307.208007812 952 -263.735351562 952 -346 c 0
 952 -533.913085938 716.08203125 -561 493 -561 c 0
 289.591796875 -561 47 -541.013671875 47 -346 c 0
 47 -261.546875 192 -313.6796875 192 -180 c 2
 192 915 l 2
1042 637 m 0
 1042 826.556640625 1050.58984375 1069 874 1069 c 0
 848.709960938 1069 805 1077.02929688 805 1057 c 0
 805 1036.29003906 807 1014.33300781 807 991 c 130
 807 915 l 1
 805 256 l 1
 830.73828125 246.1953125 859.275390625 240 893 240 c 0
 1076.3359375 240 1042 446.966796875 1042 637 c 0
EndSplineSet
Validated: 524321
Substitution2: "'smcp' Lowercase to Small Capitals in Latin lookup 1 subtable" p.sc
Substitution2: "'aalt' Access All Alternates in Latin lookup 0 subtable" p.sc
EndChar

StartChar: q
Encoding: 113 113 84
Width: 1788
GlyphClass: 2
Flags: HW
LayerCount: 2
Fore
SplineSet
826 -346 m 0
 826 -261.701171875 973 -311.639648438 973 -176 c 2
 971 104 l 1
 880.068359375 23.171875 744.422851562 -25 570 -25 c 0
 196.072265625 -25 60 269.390625 60 641 c 0
 60 1017.49902344 200.315429688 1325 576 1325 c 0
 761.392578125 1325 897.447265625 1267.27929688 992 1180 c 1
 1026.61425781 1283.84375 1142.75878906 1296 1285 1296 c 0
 1488.40820312 1296 1731 1276.01367188 1731 1081 c 0
 1731 996.833007812 1586 1048.23046875 1586 915 c 2
 1586 -180 l 2
 1586 -309.176757812 1731 -263.635742188 1731 -346 c 0
 1731 -540.489257812 1486.23632812 -561 1285 -561 c 0
 1061.62011719 -561 826 -533.973632812 826 -346 c 0
670 637 m 0
 670 445.452148438 635.5546875 240 820 240 c 0
 876.084960938 240 971 242.306640625 971 285 c 2
 971 1024 l 1
 936.9765625 1047.08789062 892.52734375 1069 838 1069 c 0
 661.57421875 1069 670 824.5859375 670 637 c 0
EndSplineSet
Validated: 524321
Substitution2: "'smcp' Lowercase to Small Capitals in Latin lookup 1 subtable" q.sc
Substitution2: "'aalt' Access All Alternates in Latin lookup 0 subtable" q.sc
EndChar

StartChar: r
Encoding: 114 114 85
Width: 1449
GlyphClass: 2
Flags: HW
HStem: 0 21G<433.018 646.541> 1046.63 257.79<854.352 1210.35>
VStem: 234 609<298.044 982.072> 234 584.495<319.883 1000.37>
LayerCount: 2
Back
SplineSet
1086 215 m 4xd8
 1086 299.32421875 1186 254.173828125 1186 381 c 6
 1186 808 l 6
 1186 962.15625 1146.27050781 1069 993 1069 c 4xd8
 898.370117188 1069 819 997.772460938 819 904 c 6
 819 385 l 6
 819 319.25390625 824.670898438 282.419921875 875 270.5 c 4
 909.607421875 262.303710938 939 257.916992188 939 215 c 4
 939 27.0869140625 733.08203125 0 510 0 c 4
 306.036132812 0 83 19.578125 83 215 c 4
 83 298.377929688 209 255.25 209 381 c 6
 209 915 l 6
 209 1043.20410156 63 999.348632812 63 1081 c 4
 63 1275.81933594 298.2734375 1296 500 1296 c 4xb8
 633.64453125 1296 807.122070312 1258.60449219 817 1118 c 5
 952.953125 1280.50488281 1116.02929688 1325 1322 1325 c 4
 1647.49023438 1325 1790 1132.40136719 1790 771 c 6
 1790 390 l 6
 1790 263.059570312 1921 300.294921875 1921 215 c 4
 1921 27.033203125 1706.20410156 0 1483 0 c 4
 1279.03613281 0 1086 19.578125 1086 215 c 4xd8
EndSplineSet
Fore
SplineSet
234 915 m 2xe0
 234 1043.20410156 88 999.348632812 88 1081 c 0
 88 1275.81933594 333.2734375 1296 535 1296 c 0
 653.220703125 1296 812.939453125 1271.18457031 841 1119 c 1
 877.393554688 1227.51171875 1020.64746094 1304.42285156 1150.18164062 1304.42285156 c 0
 1270.50976562 1304.42285156 1379 1238.05566406 1379 1069 c 0
 1379 929.396484375 1283.80566406 836 1143 836 c 256
 959.322265625 836 1006.52539062 1046.63378906 877.083984375 1046.63378906 c 0
 831.620117188 1046.63378906 818.495117188 1026.00195312 818.495117188 984.7421875 c 0xd0
 818.495117188 928.3671875 843 833.482421875 843 700.099609375 c 2
 843 385 l 2
 843 254.165039062 989 297.056640625 989 215 c 0
 989 27.0869140625 758.08203125 0 535 0 c 0
 331.036132812 0 88 19.578125 88 215 c 0
 88 299.0078125 234 247.5546875 234 381 c 2
 234 915 l 2xe0
EndSplineSet
Validated: 524289
Substitution2: "'smcp' Lowercase to Small Capitals in Latin lookup 1 subtable" r.sc
Substitution2: "'aalt' Access All Alternates in Latin lookup 0 subtable" r.sc
EndChar

StartChar: s
Encoding: 115 115 86
Width: 1350
GlyphClass: 2
Flags: HW
HStem: -25 234<485.598 779.639> 1124 201<549.683 847.281>
VStem: 106 434<819 1066.42> 792 494<226.093 560.406> 852 344<959.239 1106.16>
LayerCount: 2
Fore
SplineSet
692 1325 m 0
 917.057617188 1325 1196 1281.84277344 1196 1073 c 0
 1196 962.834960938 1112.99316406 925.119140625 1024.46777344 925.119140625 c 0
 923.334960938 925.119140625 815 974.342773438 815 1021 c 256
 815 1039.82421875 826.80078125 1060.49023438 826.80078125 1078.33886719 c 0
 826.80078125 1104.10546875 802.206054688 1124 682 1124 c 0
 610.862304688 1124 540 1109.93847656 540 1043 c 0
 540 957.159179688 691.967773438 917.4140625 766 892 c 0
 997.466796875 812.541015625 1286 694.811523438 1286 386 c 0xf0
 1286 78.603515625 996.3671875 -25 688 -25 c 0
 441.138671875 -25 84 30.185546875 84 265 c 0
 84 364.34765625 141.655273438 391 239 391 c 0
 471.516601562 391 412.727539062 209 656 209 c 0
 741.729492188 209 792 221.600585938 792 293 c 0xf0
 792 324.0234375 719.596679688 344.747070312 685 357 c 0
 443.274414062 442.611328125 106 553.0546875 106 876 c 0
 106 1188.35058594 351.625976562 1325 692 1325 c 0
EndSplineSet
Substitution2: "'smcp' Lowercase to Small Capitals in Latin lookup 1 subtable" s.sc
Substitution2: "'aalt' Access All Alternates in Latin lookup 0 subtable" s.sc
EndChar

StartChar: t
Encoding: 116 116 87
Width: 1205
GlyphClass: 2
Flags: HW
HStem: -25 338.71<481.332 916.504> 1096 200<779 1108.85> 1096 151<56.0757 170.836>
VStem: 173 606<355.109 1096> 601 178<1585.19 1694.52>
LayerCount: 2
Back
SplineSet
1111 1200 m 0
 1111 1127.58300781 1084.13769531 1096 1015 1096 c 2
 771 1096 l 1
 773 668 l 2
 773 573.375 780.588867188 328 876 328 c 0
 951.150390625 328 994.34375 349.282226562 1046 377 c 0
 1056.66699219 383 1066.66699219 386 1076 386 c 0
 1107.46972656 386 1126 352.719726562 1126 321 c 0
 1126 309.666992188 1124.33300781 300.333007812 1121 293 c 0
 1051.23730469 114.984375 902.6171875 -25 659 -25 c 0
 287.6640625 -25 165 222.297851562 165 590 c 2
 165 1096 l 1
 116 1096 l 2
 72.8095703125 1096 37 1125 37 1165 c 0
 37 1185.66699219 46.3330078125 1203 65 1217 c 0
 257.956054688 1355.53222656 433.484375 1500.39257812 593 1655 c 0
 619.662109375 1681.66210938 653.202148438 1706 698 1706 c 0
 745.53515625 1706 771 1671.67382812 771 1620 c 2
 771 1296 l 1
 1015 1296 l 2
 1080.49023438 1296 1111 1268.49804688 1111 1200 c 0
EndSplineSet
Fore
SplineSet
895.516601562 313.709960938 m 0xd0
 937.491210938 313.709960938 1012.82519531 386 1084 386 c 0
 1115.46972656 386 1134 352.719726562 1134 321 c 0
 1134 309.666992188 1132.33300781 300.333007812 1129 293 c 0
 1059.23730469 114.984375 910.6171875 -25 667 -25 c 0
 295.6640625 -25 173 192.297851562 173 560 c 2
 173 1096 l 1
 124 1096 l 2
 80.8095703125 1096 45 1125 45 1165 c 0
 45 1185.66699219 56.3369140625 1231.43945312 123 1247 c 0xb0
 252.994140625 1277.34277344 541.484375 1520.39257812 601 1655 c 0
 616.247070312 1689.48535156 661.202148438 1706 706 1706 c 0
 753.53515625 1706 779 1671.67382812 779 1620 c 2
 779 1296 l 1xc8
 1023 1296 l 2
 1088.49023438 1296 1119 1268.49804688 1119 1200 c 0
 1119 1127.58300781 1092.13769531 1096 1023 1096 c 2
 779 1096 l 1
 781 808 l 2
 781 739.84765625 777.787109375 666.34375 777.787109375 597.387695312 c 0
 777.787109375 444.34765625 793.61328125 313.709960938 895.516601562 313.709960938 c 0xd0
EndSplineSet
Validated: 524289
Substitution2: "'smcp' Lowercase to Small Capitals in Latin lookup 1 subtable" t.sc
Substitution2: "'aalt' Access All Alternates in Latin lookup 0 subtable" t.sc
EndChar

StartChar: u
Encoding: 117 117 88
Width: 1915
GlyphClass: 2
Flags: HW
HStem: -25 254<495.242 1011.93> -2 1298<1236.67 1621.15>
VStem: 178 606<290.175 1014.96> 1115 614<274.112 1015.07>
LayerCount: 2
Fore
SplineSet
487 1296 m 0x70
 709.544921875 1296 784 1204.00195312 784 985 c 2
 784 491 l 2
 784 336.806640625 811.591796875 229 965 229 c 0xb0
 1058.86914062 229 1115 285.999023438 1115 379 c 2
 1117 911 l 2
 1117 976.74609375 1113.32910156 1013.58007812 1063 1025.5 c 0
 1028.39257812 1033.69628906 989 1038.08300781 989 1081 c 0
 989 1268.91308594 1204.91796875 1296 1428 1296 c 0
 1682.16992188 1296 1729 1170.42382812 1729 915 c 2
 1729 379 l 2
 1729 315.247070312 1742.06738281 278.688476562 1791.5 268 c 0
 1826.36328125 260.461914062 1844 255.71484375 1844 213 c 0
 1844 27.0947265625 1646.15332031 -2 1428 -2 c 0x70
 1273.05761719 -2 1150.90234375 55.01953125 1129 184 c 1
 1021.65234375 20.740234375 898.96875 -25 678 -25 c 0xb0
 312.484375 -25 178 215.536132812 178 577 c 2
 178 906 l 2
 178 972.78515625 165.041992188 1012.41113281 114 1024.5 c 0
 79.453125 1032.68261719 49 1038.34472656 49 1081 c 0
 49 1268.91308594 263.91796875 1296 487 1296 c 0x70
EndSplineSet
Validated: 524289
Substitution2: "'smcp' Lowercase to Small Capitals in Latin lookup 1 subtable" u.sc
Substitution2: "'aalt' Access All Alternates in Latin lookup 0 subtable" u.sc
EndChar

StartChar: v
Encoding: 118 118 89
Width: 1754
GlyphClass: 2
Flags: HW
LayerCount: 2
Fore
SplineSet
1164 1008 m 2
 1164 1061.10644531 1033 1062.91796875 1033 1126 c 0
 1033 1276.921875 1266.35644531 1296 1418 1296 c 0
 1566.72070312 1296 1689 1262.92578125 1689 1126 c 0
 1689 1075.91503906 1632.40527344 1064.734375 1591 1054 c 128
 1526.40039062 1037.25195312 1472.51757812 1008.75488281 1445 952 c 2
 1021 74 l 2
 994.860351562 20.18359375 956.987304688 -51 884 -51 c 0
 811.974609375 -51 770.259765625 29.5166015625 742 82 c 2
 271 952 l 2
 241.283203125 1006.74121094 196.25390625 1037.13476562 132 1052.5 c 128
 89.556640625 1062.64941406 50 1073.61816406 50 1126 c 0
 50 1294.13378906 339.514648438 1296 515 1296 c 0
 705.80078125 1296 968 1306.63964844 968 1126 c 0
 968 1065.7265625 853 1069.68847656 853 1016 c 0
 853 991.624023438 871.67578125 975.958984375 884 952 c 2
 1027 674 l 1
 1154 952 l 2
 1161.58007812 968.243164062 1164 975.4453125 1164 994 c 2
 1164 1008 l 2
EndSplineSet
Validated: 524321
Substitution2: "'smcp' Lowercase to Small Capitals in Latin lookup 1 subtable" v.sc
Substitution2: "'aalt' Access All Alternates in Latin lookup 0 subtable" v.sc
EndChar

StartChar: w
Encoding: 119 119 90
Width: 2253
GlyphClass: 2
Flags: HW
LayerCount: 2
Fore
SplineSet
1573 1120 m 0
 1564.11328125 1077.08300781 1451 1031.40625 1451 977 c 0
 1451 972.333007812 1451.66699219 969 1453 967 c 2
 1608 692 l 1
 1749 967 l 2
 1751.66699219 971.666992188 1753 976.666992188 1753 982 c 0
 1753 1042.88671875 1639 1041.75683594 1639 1120 c 0
 1639 1278.03320312 1777.17578125 1296 1938 1296 c 0
 2089.04101562 1296 2187 1267.98535156 2187 1122 c 0
 2187 1047.05273438 2038.94335938 1024.95800781 2008 967 c 2
 1496 8 l 2
 1489.12011719 -4.6123046875 1473.24511719 -16 1455 -16 c 0
 1439.66699219 -16 1427.33300781 -8 1418 8 c 2
 1145 485 l 1
 859 8 l 2
 851.159179688 -4.3212890625 835.60546875 -16 817 -16 c 0
 801.666992188 -16 789.666992188 -8 781 8 c 2
 277 909 l 2
 242.8828125 970.735351562 193.740234375 1012.86621094 131.5 1042 c 128
 98.462890625 1057.46386719 50 1075.10644531 50 1120 c 0
 50 1309.25878906 342.364257812 1296 539 1296 c 0
 700.362304688 1296 979 1276.625 979 1120 c 0
 979 1043.54785156 892 1051.19628906 892 996 c 0
 892 987.333007812 894.666992188 977.666992188 900 967 c 2
 1029 692 l 1
 1158 967 l 2
 1160.66699219 971.666992188 1162 976.666992188 1162 982 c 0
 1162 1044.47558594 1047 1043.06347656 1047 1122 c 0
 1047 1283.94824219 1172.234375 1296 1336 1296 c 0
 1480.85644531 1296 1600.37695312 1252.21386719 1573 1120 c 0
EndSplineSet
Validated: 524321
Substitution2: "'smcp' Lowercase to Small Capitals in Latin lookup 1 subtable" w.sc
Substitution2: "'aalt' Access All Alternates in Latin lookup 0 subtable" w.sc
EndChar

StartChar: x
Encoding: 120 120 91
Width: 1756
GlyphClass: 2
Flags: HW
HStem: 0 21G<286.096 445.554 1144.35 1324.89> 1276 20G<441.443 620.5 1222.37 1376.55>
VStem: 77 785<996.44 1202.08> 92 516<132.409 303.834> 1069 538<996.037 1181.93>
LayerCount: 2
Fore
SplineSet
1689 199 m 0xe8
 1689 35.5986328125 1412.7890625 0 1237 0 c 256
 1051.70117188 0 796 22.1162109375 796 199 c 0
 796 254.392578125 888 241.220703125 888 287 c 0
 888 309.930664062 875.771484375 325.616210938 860 342 c 2
 757 449 l 1
 641 344 l 2
 624.291015625 329.049804688 608 314.66796875 608 293 c 0
 608 244.395507812 700 257.573242188 700 199 c 0
 700 21.82421875 537.107421875 0 354 0 c 0
 218.192382812 0 92 65.8173828125 92 199 c 0xd8
 92 286.344726562 287.456054688 296.7578125 344 348 c 2
 620 592 l 1
 278 952 l 2
 226.317382812 1007.51074219 77 1030.91796875 77 1126 c 0
 77 1278.16699219 360.885742188 1296 522 1296 c 0
 719 1296 954 1313.70410156 954 1126 c 0
 954 1064.06835938 862 1063.36230469 862 1008 c 0
 862 984.879882812 874.04296875 968.19921875 890 952 c 2
 956 885 l 1
 1032 952 l 2
 1049.80371094 968.0234375 1069 984.07421875 1069 1008 c 0
 1069 1056.63769531 999 1069.93652344 999 1126 c 0
 999 1272.22558594 1148.74707031 1296 1296 1296 c 0
 1457.10351562 1296 1607 1281.17578125 1607 1126 c 0
 1607 1027.08203125 1383.03710938 1004.53125 1323 952 c 2
 1093 748 l 1
 1488 346 l 1
 1530.58886719 295.5234375 1689 271.955078125 1689 199 c 0xe8
EndSplineSet
Validated: 524321
Substitution2: "'smcp' Lowercase to Small Capitals in Latin lookup 1 subtable" x.sc
Substitution2: "'aalt' Access All Alternates in Latin lookup 0 subtable" x.sc
EndChar

StartChar: y
Encoding: 121 121 92
Width: 1813
GlyphClass: 2
Flags: HW
HStem: -532 282<442.274 675.249> 1276 20G<425.98 608.358 1401.18 1551.36>
VStem: 48 803<1005.76 1211.89>
LayerCount: 2
Fore
SplineSet
400 37 m 0
 565.133789062 37 548.040039062 -250 623 -250 c 0
 686.286132812 -250 806.543945312 -42.349609375 775 16 c 2
 269 952 l 2
 239.283203125 1006.74121094 194.25390625 1037.13476562 130 1052.5 c 0
 87.271484375 1062.71777344 48 1072.9375 48 1126 c 0
 48 1297.77636719 338.9609375 1296 513 1296 c 0
 703.715820312 1296 965 1306.76855469 965 1126 c 0
 965 1066.13183594 851 1069.58984375 851 1017 c 0
 851 994.528320312 868.630859375 972.927734375 881 952 c 2
 1066 639 l 1
 1213 952 l 2
 1221.69726562 970.482421875 1223 974.080078125 1223 994 c 2
 1223 1008 l 2
 1223 1061.10644531 1092 1062.91796875 1092 1126 c 0
 1092 1276.921875 1325.35644531 1296 1477 1296 c 0
 1625.72070312 1296 1748 1262.92578125 1748 1126 c 0
 1748 1075.67089844 1691.84863281 1065.50976562 1649.5 1055.5 c 0
 1583.95507812 1040.0078125 1530.9453125 1009.25878906 1504 952 c 2
 1006 -127 l 2
 917.7578125 -318.439453125 789.276367188 -532 535 -532 c 0
 349.548828125 -532 201 -426.483398438 201 -242 c 0
 201 -89.0751953125 253.564453125 37 400 37 c 0
EndSplineSet
Validated: 524321
Substitution2: "'smcp' Lowercase to Small Capitals in Latin lookup 1 subtable" y.sc
Substitution2: "'aalt' Access All Alternates in Latin lookup 0 subtable" y.sc
EndChar

StartChar: z
Encoding: 122 122 93
Width: 1406
GlyphClass: 2
Flags: HW
LayerCount: 2
Fore
SplineSet
866 184 m 0
 1106.7109375 184 976.853515625 475 1200 475 c 0
 1280.98242188 475 1335 417.520507812 1335 334 c 0
 1335 178.422851562 1255.79296875 0 1101 0 c 2
 182 0 l 2
 133.680664062 0 99 15.2841796875 99 64 c 0
 99 102.40234375 113.208984375 133.40625 130 166 c 2
 604 1096 l 2
 605.333007812 1100 606 1102.66699219 606 1104 c 0
 606 1113.79394531 597.112304688 1119 588 1119 c 0
 585.333007812 1119 583.666992188 1118.66699219 583 1118 c 2
 393 1118 l 1
 362 987 l 1
 337.918945312 905.495117188 292.486328125 827 192 827 c 0
 109.708007812 827 57 884.043945312 57 967 c 0
 57 1122.08789062 137.465820312 1296 292 1296 c 2
 1187 1296 l 2
 1238.81640625 1296 1269 1277.67382812 1269 1232 c 0
 1269 1199.45410156 1254.91015625 1167.90234375 1243 1143 c 2
 806 266 l 2
 797.333007812 248 793 233 793 221 c 0
 793 185.97265625 830.971679688 184 866 184 c 0
EndSplineSet
Validated: 524289
Substitution2: "'smcp' Lowercase to Small Capitals in Latin lookup 1 subtable" z.sc
Substitution2: "'aalt' Access All Alternates in Latin lookup 0 subtable" z.sc
EndChar

StartChar: braceleft
Encoding: 123 123 94
Width: 1264
GlyphClass: 2
Flags: HW
LayerCount: 2
Fore
SplineSet
237 1384 m 2
 237 1736.97265625 467.504882812 1989 817 1989 c 0
 989.153320312 1989 1124.37011719 1925.97265625 1235 1843 c 1
 1192 1724 l 1
 1143.77441406 1734.71679688 1092.90332031 1745 1036 1745 c 0
 879.111328125 1745 844 1630.96972656 844 1473 c 2
 844 1386 l 2
 844 1137.4609375 723.387695312 978.846679688 528 930 c 1
 721.749023438 879.361328125 844 721.953125 844 473 c 2
 844 387 l 2
 844 228.8046875 879.059570312 115 1036 115 c 0
 1093.29882812 115 1143.94042969 124.3203125 1192 135 c 1
 1235 16 l 1
 1124.02246094 -66.1240234375 988.891601562 -129 817 -129 c 0
 467.866210938 -129 237 122.791015625 237 475 c 2
 237 561 l 2
 237 719.0078125 202.024414062 834 45 834 c 1
 45 1026 l 1
 201.938476562 1026 237 1139.80859375 237 1298 c 2
 237 1384 l 2
EndSplineSet
Validated: 524289
EndChar

StartChar: bar
Encoding: 124 124 95
Width: 707
GlyphClass: 2
Flags: HW
LayerCount: 2
Fore
SplineSet
575 -84 m 2
 575 -218.890625 494.015625 -301 354 -301 c 256
 213.436523438 -301 133 -219.372070312 133 -84 c 2
 133 1671 l 2
 133 1809.359375 210.901367188 1888 354 1888 c 256
 496.533203125 1888 575 1808.99707031 575 1671 c 2
 575 -84 l 2
EndSplineSet
Validated: 524289
EndChar

StartChar: braceright
Encoding: 125 125 96
Width: 1271
GlyphClass: 2
Flags: HW
LayerCount: 2
Fore
SplineSet
451 1989 m 0
 800.541015625 1989 1030 1736.50878906 1030 1384 c 2
 1030 1298 l 2
 1030 1139.18066406 1065.4140625 1026 1223 1026 c 1
 1223 834 l 1
 1065.33105469 834 1030 719.631835938 1030 561 c 2
 1030 475 l 2
 1030 122.708984375 799.940429688 -129 451 -129 c 0
 278.461914062 -129 144.203125 -66.2900390625 33 16 c 1
 76 135 l 1
 123.11328125 124.127929688 174.307617188 115 231 115 c 0
 388.583007812 115 424 228.184570312 424 387 c 2
 424 473 l 2
 424 722.1796875 545.041015625 879.306640625 739 930 c 1
 544.419921875 978.64453125 424 1139.04296875 424 1386 c 2
 424 1473 l 2
 424 1631.59570312 388.536132812 1745 231 1745 c 0
 174.75390625 1745 123.22265625 1734.89746094 76 1724 c 1
 33 1843 l 1
 144.274414062 1926.45605469 277.666992188 1989 451 1989 c 0
EndSplineSet
Validated: 524289
EndChar

StartChar: asciitilde
Encoding: 126 126 97
Width: 1506
GlyphClass: 2
Flags: HW
LayerCount: 2
Fore
SplineSet
492 1295 m 0
 736.322265625 1295 913.736328125 1178 1174 1178 c 0
 1260.84082031 1178 1310 1216.47460938 1310 1304 c 0
 1310 1307.33300781 1309.33300781 1309.66699219 1308 1311 c 2
 1431 1186 l 1
 1369.15136719 958.044921875 1270.36523438 752 995 752 c 0
 759.077148438 752 589.8203125 862 353 862 c 0
 261.0625 862 185 832.614257812 185 741 c 0
 185 738.333007812 186.333007812 737 189 737 c 1
 67 860 l 1
 136.888671875 1069.66699219 230.794921875 1295 492 1295 c 0
EndSplineSet
Validated: 524293
EndChar

StartChar: cent
Encoding: 162 162 100
Width: 1391
GlyphClass: 2
Flags: HW
LayerCount: 2
Fore
SplineSet
978 332 m 0
 1095.40722656 332 1187.99707031 412 1272 412 c 0
 1303.00488281 412 1323 380.008789062 1323 349 c 0
 1323 162.705078125 1024.50390625 67.1005859375 901 -4 c 0
 851.416015625 -32.544921875 886 -139.006835938 886 -205 c 0
 886 -253.91796875 853.096679688 -290 797 -290 c 2
 788 -290 l 130
 729.641601562 -290 692 -261.045898438 692 -204 c 2
 692 -196 l 130
 692 -147.177734375 702.407226562 -86.107421875 708 -19 c 1
 322.938476562 -4.46875 71 255.888671875 71 651 c 0
 71 1061.63574219 340.24609375 1335 755 1335 c 0
 777.875976562 1335 797.456054688 1334.34667969 819 1333 c 1
 837 1552 l 1
 837 1601.88574219 867.9453125 1635 919 1635 c 2
 929 1635 l 130
 990.486328125 1635 1026 1606.93359375 1026 1547 c 2
 1026 1536 l 1
 1017.99316406 1471.94921875 1014.08496094 1389.55859375 1007 1301 c 1
 1177.875 1247.6015625 1312 1130.79980469 1312 913 c 0
 1312 824.87890625 1258.48828125 766 1171 766 c 0
 1032.99609375 766 1025.52246094 879.407226562 980 975 c 1
 928 335 l 1
 944 333 960.666992188 332 978 332 c 0
797 1063 m 1
 702.40625 1037.87402344 673 930.458007812 673 803 c 0
 673 655.079101562 690.114257812 531.299804688 746 446 c 1
 797 1063 l 1
EndSplineSet
Validated: 524321
EndChar

StartChar: sterling
Encoding: 163 163 101
Width: 1703
GlyphClass: 2
Flags: HW
LayerCount: 2
Fore
SplineSet
197 721 m 2
 114.297851562 721 64 770.047851562 64 856 c 0
 64 941.959960938 114.286132812 991 197 991 c 2
 255.283203125 991 l 1
 292.82421875 1388.78613281 530.237304688 1593 961 1593 c 0
 1256.65820312 1593 1586 1479.45507812 1586 1198 c 0
 1586 1084.52734375 1501.39453125 1024 1389 1024 c 0
 1296.43164062 1024 1184 1062.50292969 1184 1153 c 0
 1184 1274.48046875 1176.64648438 1382 1059 1382 c 0
 932.231445312 1382 922 1267.73828125 922 1137 c 2
 922 991 l 1
 1156 991 l 2
 1239.26074219 991 1287 942.307617188 1287 856 c 0
 1287 769.685546875 1239.27246094 721 1156 721 c 2
 922 721 l 1
 922 360 l 2
 922 271.940429688 956.905273438 217 1041 217 c 2
 1055.5 217 l 2
 1102.43457031 217 1190.13671875 178.8984375 1201 225 c 2
 1242 399 l 1
 1273.02929688 503.041015625 1330.72460938 606 1459 606 c 0
 1567.12011719 606 1633 533.166992188 1633 424 c 0
 1633 221.481445312 1530.296875 0 1330 0 c 2
 582 0 l 2
 358.586914062 0 91 21.822265625 91 236 c 0
 91 327.9609375 250 274.783203125 250 420 c 2
 250 721 l 1
 197 721 l 2
EndSplineSet
Validated: 524321
EndChar

StartChar: currency
Encoding: 164 164 102
Width: 1314
GlyphClass: 2
Flags: HW
LayerCount: 2
Fore
SplineSet
104 1473 m 0
 104 1533.18554688 163.416015625 1584 233 1584 c 0
 302.72265625 1584 325.9140625 1528.43261719 353.5 1484.5 c 128
 381.237304688 1440.32617188 409.870117188 1400.79980469 447 1352 c 1
 517.041015625 1374.46582031 595.124023438 1386 687 1386 c 0
 757.666992188 1386 821.666992188 1376 879 1356 c 1
 1000 1532 l 2
 1017.66210938 1557.23144531 1049.6171875 1584 1092 1584 c 0
 1161.19726562 1584 1221 1532.5859375 1221 1474 c 0
 1221 1461.33300781 1219 1450.66699219 1215 1442 c 0
 1174.37890625 1366.62109375 1121.85839844 1303.14160156 1076 1233 c 1
 1152.07324219 1153.46875 1209 1040.44433594 1209 897 c 0
 1209 742.556640625 1144.9140625 619.619140625 1060 537 c 1
 1107.62011719 472.18359375 1143.75195312 420.423828125 1184.5 360.5 c 128
 1201.32910156 335.750976562 1222 314.59375 1222 274 c 0
 1222 213.986328125 1160.62597656 167 1098 167 c 0
 1053.78320312 167 1020.18945312 193.015625 1002 219 c 2
 863 416 l 1
 797 392.666992188 721.333007812 381 636 381 c 0
 568.666992188 381 507.666992188 389.333007812 453 406 c 1
 322 219 l 2
 303.571289062 193.989257812 270.793945312 167 227 167 c 0
 164.39453125 167 102 216.567382812 102 275 c 0
 102 304.2109375 115.209960938 326.947265625 128 344 c 2
 255 522 l 1
 165.9375 607.680664062 99 732.237304688 99 891 c 0
 99 1042.75390625 160.103515625 1158.10742188 247 1237 c 1
 130 1405 l 1
 109 1442 l 1
 105.666992188 1452 104 1462.33300781 104 1473 c 0
757 782 m 0
 757 915.099609375 772.440429688 1198 646 1198 c 0
 560.75390625 1198 550 1086.04785156 550 997 c 0
 550 864.650390625 545.344726562 569 669 569 c 0
 752.033203125 569 757 693.859375 757 782 c 0
EndSplineSet
Validated: 524321
EndChar

StartChar: yen
Encoding: 165 165 103
Width: 1806
GlyphClass: 2
Flags: HW
LayerCount: 2
Fore
SplineSet
394 236 m 0
 394 327.448242188 552.780273438 275.555664062 556 414 c 1
 343 414 l 2
 287.514648438 414 255 444.702148438 255 502 c 256
 255 559.3046875 287.713867188 592 343 592 c 2
 556 592 l 1
 556 692 l 1
 343 692 l 2
 288.19921875 692 255 723.041992188 255 780 c 0
 255 838.537109375 286.482421875 870 343 870 c 2
 489 870 l 1
 275 1161 l 2
 232.642578125 1218.484375 183.229492188 1252.92675781 112.5 1275.5 c 128
 73.22265625 1288.03515625 34 1299.4765625 34 1350 c 0
 34 1554.953125 291.271484375 1585 535 1585 c 0
 757.885742188 1585 1027 1563.56152344 1027 1350 c 0
 1027 1276.7734375 912 1297.28222656 912 1238 c 0
 912 1209.77441406 931.35546875 1188.76171875 947 1165 c 2
 1053 1004 l 1
 1065.359375 989.739257812 1077.73730469 977 1098 977 c 0
 1122.3125 977 1137.88769531 997.849609375 1150 1014 c 2
 1264 1165 l 1
 1279.390625 1189.04882812 1293 1208.21875 1293 1237 c 0
 1293 1306.31738281 1172 1272.921875 1172 1350 c 0
 1172 1509.11425781 1306.54785156 1585 1469 1585 c 0
 1633.56640625 1585 1768 1510.00585938 1768 1350 c 0
 1768 1298.37207031 1718.40039062 1288.9921875 1676 1278 c 128
 1599.84082031 1258.25488281 1542.6796875 1220.44628906 1500 1161 c 2
 1292 870 l 1
 1457 870 l 2
 1514.04394531 870 1545 838.817382812 1545 780 c 0
 1545 722.71484375 1512.34472656 692 1457 692 c 2
 1228 692 l 1
 1228 592 l 1
 1457 592 l 2
 1512.82128906 592 1545 559.624023438 1545 502 c 256
 1545 444.397460938 1513.01855469 414 1457 414 c 2
 1228 414 l 1
 1231.14355469 281.947265625 1389 323.802734375 1389 236 c 0
 1389 20.1259765625 1111.73730469 0 888 0 c 0
 663.759765625 0 394 21.0576171875 394 236 c 0
EndSplineSet
Validated: 524289
EndChar

StartChar: brokenbar
Encoding: 166 166 104
Width: 664
GlyphClass: 2
Flags: HW
LayerCount: 2
Fore
SplineSet
555 -84 m 2
 555 -218.890625 474.015625 -301 334 -301 c 256
 193.436523438 -301 113 -219.372070312 113 -84 c 2
 113 395 l 2
 113 533.359375 190.901367188 612 334 612 c 256
 476.533203125 612 555 532.997070312 555 395 c 2
 555 -84 l 2
555 1194 m 2
 555 1059.109375 474.015625 977 334 977 c 256
 193.436523438 977 113 1058.62792969 113 1194 c 2
 113 1673 l 2
 113 1811.359375 190.901367188 1890 334 1890 c 256
 476.533203125 1890 555 1810.99707031 555 1673 c 2
 555 1194 l 2
EndSplineSet
Validated: 524289
EndChar

StartChar: section
Encoding: 167 167 105
Width: 1126
GlyphClass: 2
Flags: HW
LayerCount: 2
Fore
SplineSet
571 1593 m 0
 749.002929688 1593 966 1543.49023438 966 1378 c 0
 966 1293.39160156 894.979492188 1251 808 1251 c 0
 744.479492188 1251 667 1254.44335938 667 1313 c 256
 667 1348.76953125 698 1349.10449219 698 1386 c 0
 698 1423.83496094 617.66796875 1434 563 1434 c 0
 491.655273438 1434 427 1426.01855469 427 1360 c 0
 427 1320.41699219 485.379882812 1302.1015625 522.5 1289 c 128
 741.232421875 1211.79980469 1038 1163.59667969 1038 870 c 0
 1038 720.6015625 951.1484375 639.114257812 847 592 c 1
 947.0078125 533.021484375 1038 450.596679688 1038 293 c 0
 1038 51.58203125 809.588867188 -37 569 -37 c 0
 376.012695312 -37 94 23.1884765625 94 207 c 0
 94 285.197265625 139.309570312 338 216 338 c 0
 399.508789062 338 325.090820312 139 520 139 c 0
 594.568359375 139 665 152.6640625 665 221 c 0
 665 247.849609375 608.41015625 259.231445312 578.5 267 c 128
 352.01953125 325.826171875 112 390.288085938 112 676 c 0
 112 820.30078125 180.482421875 901.891601562 278 950 c 1
 183.944335938 1009.12109375 112 1100.08300781 112 1253 c 0
 112 1507.27636719 317.556640625 1593 571 1593 c 0
563 690 m 0
 600.232421875 690 665 727.959960938 665 772 c 0
 665 818.912109375 537.616210938 864 495 864 c 0
 466.975585938 864 427 818.930664062 427 784 c 256
 427 742.928710938 525.642578125 690 563 690 c 0
EndSplineSet
EndChar

StartChar: dieresis
Encoding: 168 168 106
Width: 1608
GlyphClass: 2
Flags: HW
LayerCount: 2
Fore
SplineSet
377 61 m 0
 220.1875 61 93 147.845703125 93 309 c 0
 93 472.709960938 218.923828125 557 377 557 c 0
 537.322265625 557 662 473.686523438 662 309 c 0
 662 143.681640625 537.401367188 61 377 61 c 0
1240 61 m 0
 1082.98828125 61 955 147.5546875 955 309 c 0
 955 472.953125 1081.71875 557 1240 557 c 0
 1399.8046875 557 1524 473.229492188 1524 309 c 0
 1524 144.173828125 1399.87304688 61 1240 61 c 0
EndSplineSet
Validated: 524289
EndChar

StartChar: copyright
Encoding: 169 169 107
Width: 2047
GlyphClass: 2
Flags: HW
LayerCount: 2
Fore
SplineSet
1396 1063 m 0
 1211.07519531 1063 1280.81933594 1333 1122 1333 c 0
 1000.66992188 1333 968 1167.90429688 968 1040 c 0
 968 796.03125 1011.48632812 565 1249 565 c 0
 1319.01855469 565 1379.59667969 590.017578125 1421 619 c 128
 1447.03710938 637.225585938 1467.84375 674 1499 674 c 0
 1533.0234375 674 1550 631.18359375 1550 592 c 0
 1550 368.858398438 1267.44335938 272 1034 272 c 0
 668.805664062 272 422 504.640625 422 864 c 0
 422 1297.12988281 662.380859375 1518 1104 1518 c 0
 1322.41796875 1518 1523 1409.67675781 1523 1194 c 0
 1523 1115.70507812 1471.70019531 1063 1396 1063 c 0
73 891 m 0
 73 1182.26171875 200.186523438 1392.00488281 354.5 1537.5 c 128
 510.014648438 1684.12792969 729.099609375 1800 1022 1800 c 0
 1313.73242188 1800 1534.88671875 1683.64160156 1689 1537.5 c 128
 1843.24707031 1391.23144531 1970 1182.38183594 1970 891 c 256
 1970 599.827148438 1843.14941406 389.290039062 1689 244 c 128
 1533.48144531 97.4189453125 1315.265625 -18 1022 -18 c 256
 728.758789062 -18 510.131835938 98.150390625 354.5 244 c 128
 199.109375 389.623046875 73 598.98046875 73 891 c 0
1022 1599 m 256
 612.954101562 1599 313 1299.53515625 313 891 c 256
 313 481.87109375 613.325195312 182 1022 182 c 256
 1430.79882812 182 1730 482.956054688 1730 891 c 256
 1730 1299.59960938 1430.02636719 1599 1022 1599 c 256
EndSplineSet
Validated: 524289
EndChar

StartChar: guillemotleft
Encoding: 171 171 109
Width: 2006
GlyphClass: 2
Flags: HW
LayerCount: 2
Fore
SplineSet
1034 252 m 0
 1034 167.334960938 980.806640625 106 895 106 c 0
 863.458007812 106 840.452148438 115.1171875 813 125 c 0
 650.596679688 187.462890625 506.466796875 237.993164062 365 298.5 c 128
 209.1640625 365.15234375 68 424.099609375 68 639 c 256
 68 786.686523438 129.336914062 854.833984375 225.5 911 c 128
 395.969726562 1010.56640625 604.932617188 1076.01953125 813 1153 c 0
 840.485351562 1163.16894531 863.479492188 1169 895 1169 c 0
 980.200195312 1169 1034 1109.72167969 1034 1026 c 0
 1034 886.614257812 823.349609375 811.571289062 721 754 c 2
 516 639 l 1
 721 524 l 2
 823.6328125 466.26953125 1034 391.235351562 1034 252 c 0
1921 252 m 0
 1921 167.334960938 1867.80664062 106 1782 106 c 0
 1750.45800781 106 1727.45214844 115.1171875 1700 125 c 0
 1537.59667969 187.462890625 1393.46679688 237.993164062 1252 298.5 c 128
 1096.1640625 365.15234375 955 424.099609375 955 639 c 256
 955 786.686523438 1016.33691406 854.833984375 1112.5 911 c 128
 1282.96972656 1010.56640625 1491.93261719 1076.01953125 1700 1153 c 0
 1727.48535156 1163.16894531 1750.47949219 1169 1782 1169 c 0
 1867.20019531 1169 1921 1109.72167969 1921 1026 c 0
 1921 886.614257812 1710.34960938 811.571289062 1608 754 c 2
 1403 639 l 1
 1608 524 l 2
 1710.6328125 466.26953125 1921 391.235351562 1921 252 c 0
EndSplineSet
Validated: 524289
EndChar

StartChar: logicalnot
Encoding: 172 172 110
Width: 1178
GlyphClass: 2
Flags: HW
LayerCount: 2
Fore
SplineSet
212 589 m 2
 120.03515625 589 65 594.08984375 65 687 c 0
 65 776.180664062 123.30078125 785 212 785 c 2
 972 785 l 2
 1073.71289062 785 1083 729.659179688 1083 628 c 2
 1083 380 l 2
 1083 288.03515625 1077.91015625 233 985 233 c 0
 895.495117188 233 887 291.201171875 887 380 c 2
 887 589 l 1
 212 589 l 2
EndSplineSet
Validated: 524289
EndChar

StartChar: uni00AD
Encoding: 173 173 111
Width: 1189
GlyphClass: 2
Flags: HW
LayerCount: 2
Fore
SplineSet
236 371 m 2
 144.03515625 371 89 376.08984375 89 469 c 0
 89 558.180664062 147.30078125 567 236 567 c 2
 950 567 l 2
 1044.7109375 567 1107 564.481445312 1107 469 c 256
 1107 373.5234375 1044.71582031 371 950 371 c 2
 236 371 l 2
EndSplineSet
Validated: 524289
EndChar

StartChar: registered
Encoding: 174 174 112
Width: 2047
GlyphClass: 2
Flags: HW
LayerCount: 2
Fore
SplineSet
73 891 m 0
 73 1182.26171875 200.186523438 1392.00488281 354.5 1537.5 c 128
 510.014648438 1684.12792969 729.099609375 1800 1022 1800 c 0
 1313.73242188 1800 1534.88671875 1683.64160156 1689 1537.5 c 128
 1843.24707031 1391.23144531 1970 1182.38183594 1970 891 c 256
 1970 599.827148438 1843.14941406 389.290039062 1689 244 c 128
 1533.48144531 97.4189453125 1315.265625 -18 1022 -18 c 256
 728.758789062 -18 510.131835938 98.150390625 354.5 244 c 128
 199.109375 389.623046875 73 598.98046875 73 891 c 0
1022 1599 m 256
 612.954101562 1599 313 1299.53515625 313 891 c 256
 313 481.87109375 613.325195312 182 1022 182 c 256
 1430.79882812 182 1730 482.956054688 1730 891 c 256
 1730 1299.59960938 1430.02636719 1599 1022 1599 c 256
563 1122 m 2
 563 1202.29199219 473 1173.08203125 473 1225 c 0
 473 1338.08789062 619.73828125 1356 753 1356 c 2
 1053 1356 l 2
 1278.34277344 1356 1515 1313.75097656 1515 1102 c 0
 1515 967.725585938 1447.21289062 903.298828125 1347 864 c 1
 1472 678 l 2
 1500.953125 633.71875 1601 646.456054688 1601 590 c 0
 1601 460.583007812 1435.75 461 1298 461 c 0
 1090.27148438 461 1058.8984375 667.440429688 1003 819 c 1
 965.5 819 l 130
 957.166992188 819 947.333007812 819.666992188 936 821 c 1
 936 696 l 2
 936 621.283203125 1026 649.208984375 1026 600 c 0
 1026 485.629882812 881.37109375 469 745 469 c 0
 612.243164062 469 473 487.129882812 473 600 c 0
 473 652.244140625 563 620.5546875 563 702 c 2
 563 1122 l 2
938 911 m 2
 938 903.465820312 994.2890625 905 1013 905 c 0
 1083.81152344 905 1112 954.607421875 1112 1028 c 2
 1112 1039 l 2
 1112 1141.09570312 1109.33398438 1247 1007 1247 c 0
 950.866210938 1247 938 1208.60644531 938 1153 c 2
 938 911 l 2
EndSplineSet
Validated: 524321
EndChar

StartChar: macron
Encoding: 175 175 113
Width: 1347
GlyphClass: 2
Flags: HW
LayerCount: 2
Fore
SplineSet
313 61 m 2
 177.469726562 61 95 142.258789062 95 283 c 256
 95 423.322265625 177.909179688 504 313 504 c 2
 1046 504 l 2
 1183.98242188 504 1263 425.522460938 1263 283 c 256
 1263 140.030273438 1184.45898438 61 1046 61 c 2
 313 61 l 2
EndSplineSet
Validated: 524289
EndChar

StartChar: degree
Encoding: 176 176 114
Width: 1083
GlyphClass: 2
Flags: HW
LayerCount: 2
Fore
SplineSet
533 1372 m 256
 425.044921875 1372 352 1304.12304688 352 1192 c 256
 352 1080.17773438 425.466796875 1014 533 1014 c 256
 640.482421875 1014 711 1079.99023438 711 1192 c 256
 711 1304.33398438 640.9453125 1372 533 1372 c 256
535 797 m 0
 278.255859375 797 78 935.252929688 78 1194 c 0
 78 1455.8203125 278.310546875 1593 535 1593 c 0
 797.405273438 1593 993 1458.44628906 993 1194 c 0
 993 928.44921875 795.788085938 797 535 797 c 0
EndSplineSet
Validated: 524289
EndChar

StartChar: plusminus
Encoding: 177 177 115
Width: 1363
GlyphClass: 2
Flags: HW
LayerCount: 2
Fore
SplineSet
286 116 m 2
 194.03515625 116 139 121.08984375 139 214 c 0
 139 303.180664062 197.30078125 312 286 312 c 2
 1000 312 l 2
 1094.7109375 312 1157 309.481445312 1157 214 c 256
 1157 118.5234375 1094.71582031 116 1000 116 c 2
 286 116 l 2
838 575 m 2
 838 478.573242188 780.286132812 419 680 419 c 256
 579.375976562 419 520 478.100585938 520 575 c 2
 520 925 l 1
 183 925 l 2
 98.869140625 925 57 955.40625 57 1042 c 256
 57 1129.47265625 97.9130859375 1161 183 1161 c 2
 520 1161 l 1
 520 1511 l 2
 520 1610.875 576.899414062 1667 680 1667 c 256
 782.75390625 1667 838 1610.39746094 838 1511 c 2
 838 1161 l 1
 1180 1161 l 2
 1265.859375 1161 1305 1130.08691406 1305 1042 c 256
 1305 954.76953125 1264.89160156 925 1180 925 c 2
 838 925 l 1
 838 575 l 2
EndSplineSet
Validated: 524289
EndChar

StartChar: acute
Encoding: 180 180 118
Width: 906
GlyphClass: 2
Flags: HW
LayerCount: 2
Fore
SplineSet
602 891 m 0
 735.07421875 891 840 792.283203125 840 662 c 0
 840 439.154296875 562.760742188 303.206054688 428 203 c 0
 342.723632812 138.831054688 259.268554688 61 164 61 c 0
 114.306640625 61 68 109.336914062 68 158 c 0
 68 322.543945312 221.690429688 476.55859375 291 601 c 128
 353.831054688 713.810546875 440.021484375 891 602 891 c 0
EndSplineSet
EndChar

StartChar: uni00B5
Encoding: 181 181 119
AltUni2: 0003bc.ffffffff.0
Width: 1966
GlyphClass: 2
Flags: HW
LayerCount: 2
Fore
SplineSet
463 117 m 1
 463 -106.801757812 498 -307.514648438 498 -510 c 0
 498 -611.091796875 450.05859375 -662 347 -662 c 256
 244.327148438 -662 199 -610.4375 199 -510 c 0
 199 -318.3046875 232 -126.594726562 232 72 c 2
 232 903 l 2
 232 972.206054688 208.614257812 1010.41699219 157 1024 c 128
 122.850585938 1032.98632812 82 1038.02929688 82 1081 c 0
 82 1268.91308594 317.91796875 1296 541 1296 c 0
 763.544921875 1296 838 1204.00195312 838 985 c 2
 838 491 l 2
 838 336.806640625 877.591796875 229 1031 229 c 0
 1124.86914062 229 1201 285.999023438 1201 379 c 2
 1203 911 l 2
 1203 1041.83496094 1055 998.943359375 1055 1081 c 0
 1055 1268.91308594 1290.91796875 1296 1514 1296 c 0
 1768.16992188 1296 1815 1170.42382812 1815 915 c 2
 1815 379 l 2
 1815 250.396484375 1960 295.05078125 1960 213 c 0
 1960 27.0947265625 1732.15332031 -2 1514 -2 c 0
 1359.05761719 -2 1236.90234375 55.01953125 1215 184 c 1
 1111.65234375 66.740234375 952.96875 -25 732 -25 c 0
 600.015625 -25 509.642578125 35.8837890625 463 117 c 1
EndSplineSet
EndChar

StartChar: paragraph
Encoding: 182 182 120
Width: 1426
GlyphClass: 2
Flags: HW
LayerCount: 2
Fore
SplineSet
1402 1501 m 0
 1402 1416.83300781 1257 1468.23046875 1257 1335 c 2
 1257 55 l 2
 1257 -16.916015625 1211.42871094 -61 1138 -61 c 0
 1061.3046875 -61 1019 -15.8759765625 1019 59 c 2
 1019 1554 l 1
 894 1554 l 1
 894 59 l 2
 894 -15.80859375 852.749023438 -61 776 -61 c 0
 698.791992188 -61 657 -17.072265625 657 59 c 2
 657 739 l 1
 320.48046875 739 51 893.485351562 51 1231 c 0
 51 1677.08789062 511.04296875 1716 956 1716 c 0
 1174.42480469 1716 1402 1686.96679688 1402 1501 c 0
EndSplineSet
Validated: 524289
EndChar

StartChar: periodcentered
Encoding: 183 183 121
Width: 808
GlyphClass: 2
Flags: HW
LayerCount: 2
Fore
SplineSet
403 614 m 0
 235.666992188 614 77 693.975585938 77 862 c 256
 77 1031.85546875 236.896484375 1110 403 1110 c 0
 572.204101562 1110 728 1032.10546875 728 862 c 0
 728 690.578125 570.94140625 614 403 614 c 0
EndSplineSet
Validated: 524289
EndChar

StartChar: cedilla
Encoding: 184 184 122
Width: 803
GlyphClass: 2
Flags: HW
LayerCount: 2
Fore
SplineSet
443 -276 m 0
 443 -141.48828125 304.931640625 -59.6748046875 214 0 c 1
 422 0 l 1
 567.212890625 -31.99609375 719 -127.444335938 719 -301 c 0
 719 -503.122070312 578.420898438 -614 379 -614 c 0
 255.608398438 -614 80 -600.591796875 80 -506 c 2
 80 -326 l 1
 140.412109375 -364.155273438 226.837890625 -410 322 -410 c 0
 405.526367188 -410 443 -361.149414062 443 -276 c 0
EndSplineSet
Validated: 524289
EndChar

StartChar: uni00B9
Encoding: 185 185 123
Width: 1060
GlyphClass: 2
Flags: HW
LayerCount: 2
Fore
SplineSet
544 1296 m 0
 796.579101562 1296 852 1225.56054688 852 977 c 2
 852 424 l 2
 852 352.333984375 878.017578125 311.288085938 932.5 298 c 128
 969.825195312 288.896484375 1013 282.538085938 1013 236 c 0
 1013 48.783203125 738.8203125 0 544 0 c 0
 348.4453125 0 82 48.169921875 82 236 c 0
 82 327.9609375 241 274.783203125 241 420 c 2
 241 877 l 2
 241 1017.99609375 82 971.223632812 82 1061 c 0
 82 1248.90917969 348.85546875 1296 544 1296 c 0
EndSplineSet
Validated: 524289
EndChar

StartChar: guillemotright
Encoding: 187 187 125
Width: 1782
GlyphClass: 2
Flags: HW
LayerCount: 2
Fore
SplineSet
213 -14 m 0
 127.5546875 -14 73 45.0888671875 73 129 c 0
 73 192.291015625 114.63671875 236.685546875 152.5 277.5 c 128
 216.958007812 346.981445312 289.850585938 410.259765625 366 483 c 2
 530 639 l 1
 366 795 l 2
 289.666992188 867.915039062 217.142578125 930.8203125 152.5 1000.5 c 128
 114.540039062 1041.41796875 73 1085.58300781 73 1149 c 0
 73 1232.91015625 127.5625 1292 213 1292 c 0
 395.458007812 1292 570.8828125 1105.67480469 684 1012 c 0
 786.948242188 927.11328125 978 811.224609375 978 639 c 256
 978 468.180664062 786.186523438 350.258789062 684 266 c 0
 570.174804688 171.739257812 396.036132812 -14 213 -14 c 0
958 -14 m 0
 872.529296875 -14 819 45.1904296875 819 129 c 0
 819 192.291015625 860.63671875 236.685546875 898.5 277.5 c 128
 962.958007812 346.981445312 1035.85058594 410.259765625 1112 483 c 2
 1275 639 l 1
 1112 795 l 2
 1035.66699219 867.915039062 963.142578125 930.8203125 898.5 1000.5 c 128
 860.540039062 1041.41796875 819 1085.58300781 819 1149 c 0
 819 1232.80859375 872.537109375 1292 958 1292 c 0
 1140.45800781 1292 1315.8828125 1105.67480469 1429 1012 c 0
 1531.29101562 927.654296875 1724 809.591796875 1724 639 c 256
 1724 468.275390625 1531.13769531 350.219726562 1429 266 c 0
 1315.17480469 171.739257812 1141.03613281 -14 958 -14 c 0
EndSplineSet
Validated: 524289
EndChar

StartChar: onequarter
Encoding: 188 188 126
Width: 2180
GlyphClass: 2
Flags: HW
LayerCount: 2
Fore
SplineSet
604 784 m 2
 604 684.103515625 716 714.9453125 716 653 c 0
 716 522.653320312 524.611328125 487 389 487 c 0
 251.475585938 487 65 521.043945312 65 653 c 0
 65 716.872070312 176 680.465820312 176 782 c 2
 176 1102 l 2
 176 1201.60058594 65 1167.04492188 65 1231 c 0
 65 1362.96875 254.893554688 1395 389 1395 c 0
 557.245117188 1395 604 1389.04296875 604 1219 c 2
 604 784 l 2
1398 1294 m 0
 1480.91015625 1294 1562 1224.06152344 1562 1145 c 0
 1562 1079.97851562 1527.10742188 1058.05566406 1493 1014 c 130
 1433 936.5 l 130
 1225.44824219 668.413085938 1006.22265625 390.379882812 796 125.5 c 128
 755.962890625 75.0537109375 723.784179688 16 639 16 c 256
 554.69140625 16 473 86.603515625 473 166 c 0
 473 257.1015625 555.25390625 315.919921875 604 378.5 c 128
 812.28125 645.888671875 1030.88867188 923.481445312 1238 1191 c 128
 1278.76171875 1243.65039062 1308.41210938 1294 1398 1294 c 0
1929 -27 m 2
 1929 -127.041015625 2041 -94.2080078125 2041 -158 c 0
 2041 -287.661132812 1849.09179688 -324 1714 -324 c 0
 1576.47558594 -324 1390 -289.956054688 1390 -158 c 0
 1390 -92.4765625 1501 -132.5625 1501 -29 c 2
 1501 0 l 1
 1251 0 l 2
 1144.58886719 0 1017 -13.107421875 1017 88 c 2
 1017 124 l 2
 1017 194.165039062 1029.90429688 244.079101562 1065 293 c 2
 1501 905 l 1
 1733.99316406 905 1929 897.491210938 1929 672 c 2
 1929 264 l 1
 1935 264 l 2
 2065.484375 264 2136 260.708984375 2136 125 c 0
 2136 -0.3828125 2059.77050781 0 1935 0 c 2
 1929 0 l 1
 1929 -27 l 2
1501 604 m 1
 1422.44628906 495.233398438 1346.41992188 377.454101562 1276 264 c 1
 1501 264 l 1
 1501 604 l 1
EndSplineSet
Validated: 524321
EndChar

StartChar: onehalf
Encoding: 189 189 127
Width: 2283
GlyphClass: 2
Flags: HW
LayerCount: 2
Fore
SplineSet
604 784 m 2
 604 684.103515625 716 714.9453125 716 653 c 0
 716 522.653320312 524.611328125 487 389 487 c 0
 251.475585938 487 65 521.043945312 65 653 c 0
 65 716.872070312 176 680.465820312 176 782 c 2
 176 1102 l 2
 176 1201.60058594 65 1167.04492188 65 1231 c 0
 65 1362.96875 254.893554688 1395 389 1395 c 0
 557.245117188 1395 604 1389.04296875 604 1219 c 2
 604 784 l 2
1398 1294 m 0
 1480.91015625 1294 1562 1224.06152344 1562 1145 c 0
 1562 1079.97851562 1527.10742188 1058.05566406 1493 1014 c 130
 1433 936.5 l 130
 1225.44824219 668.413085938 1006.22265625 390.379882812 796 125.5 c 128
 755.962890625 75.0537109375 723.784179688 16 639 16 c 256
 554.69140625 16 473 86.603515625 473 166 c 0
 473 257.1015625 555.25390625 315.919921875 604 378.5 c 128
 812.28125 645.888671875 1030.88867188 923.481445312 1238 1191 c 128
 1278.76171875 1243.65039062 1308.41210938 1294 1398 1294 c 0
1376 713.5 m 130
 1376 855.5625 1611.18945312 928 1761 928 c 0
 1937.88378906 928 2107 856.916015625 2107 682 c 0
 2107 550.900390625 2031.83984375 484.771484375 1937 442 c 1
 2092.00976562 401.208007812 2234 301.548828125 2234 113 c 0
 2234 -102.255859375 2047.15722656 -223 1828 -223 c 0
 1646.79980469 -223 1499.98730469 -157.880859375 1415 -59 c 0
 1410.54394531 -53.8154296875 1407 -45.7783203125 1407 -37 c 0
 1407 -9.7890625 1425.23828125 27 1452 27 c 0
 1515.28710938 27 1589.60644531 -27 1677 -27 c 0
 1778.11621094 -27 1851 36.2978515625 1851 135 c 0
 1851 217.986328125 1792.47558594 276 1708 276 c 0
 1688.21386719 276 1660.953125 264 1642 264 c 0
 1608.70214844 264 1585 300.663085938 1585 334 c 0
 1585 350.666992188 1593.50292969 367.487304688 1613 381 c 0
 1683.15917969 429.625 1747 490.505859375 1747 586 c 0
 1747 669.54296875 1689.19335938 723 1605 723 c 0
 1521.33105469 723 1478.87011719 653 1413 653 c 0
 1385.1953125 653 1376 673.853515625 1376 700 c 2
 1376 713.5 l 130
EndSplineSet
Validated: 524289
EndChar

StartChar: threequarters
Encoding: 190 190 128
Width: 2483
GlyphClass: 2
Flags: HW
LayerCount: 2
Fore
SplineSet
46 1200.5 m 130
 46 1342.0625 281.374023438 1415 431 1415 c 0
 607.883789062 1415 777 1343.91601562 777 1169 c 0
 777 1036.95996094 703.03125 972.475585938 607 930 c 1
 762.19140625 889.16015625 904 788.770507812 904 600 c 0
 904 385.263671875 717.477539062 264 499 264 c 0
 318.15234375 264 170.83203125 330.379882812 85 428 c 0
 80.14453125 433.521484375 77 441.219726562 77 451 c 0
 77 477.752929688 95.662109375 514 122 514 c 0
 185.500976562 514 260.756835938 461 347 461 c 0
 449.275390625 461 521 524.904296875 521 625 c 0
 521 706.135742188 460.661132812 764 378 764 c 0
 357.973632812 764 332.450195312 752 312 752 c 0
 278.893554688 752 255 787.883789062 255 821 c 0
 255 838.333007812 265 853.666992188 285 867 c 0
 353.487304688 914.265625 417 980.237304688 417 1073 c 0
 417 1156.04101562 359.676757812 1210 276 1210 c 0
 191.59375 1210 150.163085938 1141 83 1141 c 0
 54.76953125 1141 46 1161.09570312 46 1188 c 2
 46 1200.5 l 130
1674 1294 m 0
 1756.91015625 1294 1838 1224.06152344 1838 1145 c 0
 1838 1079.97851562 1803.10742188 1058.05566406 1769 1014 c 130
 1709 936.5 l 130
 1501.44824219 668.413085938 1282.22265625 390.379882812 1072 125.5 c 128
 1031.96289062 75.0537109375 999.784179688 16 915 16 c 256
 830.69140625 16 749 86.603515625 749 166 c 0
 749 257.1015625 831.25390625 315.919921875 880 378.5 c 128
 1088.28125 645.888671875 1306.88867188 923.481445312 1514 1191 c 128
 1554.76171875 1243.65039062 1584.41210938 1294 1674 1294 c 0
2231 -27 m 2
 2231 -127.254882812 2344 -94.091796875 2344 -158 c 0
 2344 -287.729492188 2151.08496094 -324 2016 -324 c 256
 1879.015625 -324 1693 -289.525390625 1693 -158 c 0
 1693 -92.78515625 1803 -131.84765625 1803 -29 c 2
 1803 0 l 1
 1554 0 l 2
 1447.29980469 0 1320 -13.134765625 1320 88 c 0
 1320 100.055664062 1319 115.072265625 1319 128 c 0
 1319 196.694335938 1332.87988281 245.018554688 1367 293 c 2
 1803 905 l 1
 2035.99316406 905 2231 897.491210938 2231 672 c 2
 2231 264 l 1
 2238 264 l 2
 2368.27734375 264 2438 260.529296875 2438 125 c 0
 2438 -0.197265625 2362.75390625 0 2238 0 c 2
 2231 0 l 1
 2231 -27 l 2
1803 604 m 1
 1726.12109375 494.751953125 1646.62402344 377.71875 1578 264 c 1
 1803 264 l 1
 1803 604 l 1
EndSplineSet
Validated: 524321
EndChar

StartChar: AE
Encoding: 198 198 136
Width: 2563
GlyphClass: 2
Flags: HW
LayerCount: 2
Fore
SplineSet
974.120117188 489 m 1
 622.120117188 489 l 1
 585.120117188 420 l 1
 495.819335938 258.41015625 683.099609375 334.768554688 664.120117188 236 c 0
 635.740234375 88.310546875 498.864257812 0 322.120117188 0 c 0
 193.413085938 0 95.794921875 46.3017578125 70.1201171875 145.5 c 0
 33.17578125 288.244140625 129.716796875 274.190429688 210.120117188 316 c 0
 254.649414062 339.155273438 284.512695312 373.000976562 311.120117188 424 c 2
 702.120117188 1174 l 2
 724.71484375 1217.13476562 754.8203125 1280.55957031 685.620117188 1298.5 c 0
 651.928710938 1307.234375 641.120117188 1313.28320312 641.120117188 1352 c 0
 641.120117188 1354 641.787109375 1356 643.120117188 1358 c 0
 714.415039062 1562.97070312 983.188476562 1593 1262.12011719 1593 c 0
 1265.36132812 1593 1268.546875 1592.92382812 1271.6796875 1592.77246094 c 0
 1283.94335938 1592.93359375 1296.10742188 1593 1308.12011719 1593 c 2
 2166.12011719 1593 l 2
 2355.87988281 1593 2453.12011719 1381.60546875 2453.12011719 1192 c 0
 2453.12011719 1088.68164062 2389.27636719 1020 2287.12011719 1020 c 0
 2165.76953125 1020 2103.265625 1117.89160156 2080.12011719 1217 c 2
 2041.12011719 1384 l 1
 1707.12011719 1384 l 1
 1707.12011719 924 l 1
 1787.12011719 934 l 1
 1822.81054688 1005.38085938 1847.37792969 1118 1949.12011719 1118 c 0
 2095.56738281 1118 2156.12011719 989.73828125 2156.12011719 844 c 0
 2156.12011719 696.958984375 2095.64453125 567 1949.12011719 567 c 0
 1848.1484375 567 1865.10839844 742.251953125 1787.12011719 752 c 2
 1707.12011719 762 l 1
 1707.12011719 205 l 1
 2049.12011719 221 l 1
 2090.12011719 395 l 1
 2121.30859375 499.573242188 2179.09667969 602 2308.12011719 602 c 0
 2415.87011719 602 2482.12011719 528.66015625 2482.12011719 420 c 0
 2482.12011719 217.610351562 2378.46679688 0 2178.12011719 0 c 2
 1308.12011719 0 l 2
 1084.70703125 0 817.120117188 21.822265625 817.120117188 236 c 0
 817.120117188 327.9609375 976.120117188 274.783203125 976.120117188 420 c 1
 974.120117188 489 l 1
970.833984375 1213.79589844 m 1
 704.120117188 641 l 1
 976.120117188 641 l 1
 975.173828125 1191.94238281 l 2
 974.29296875 1199.90429688 972.819335938 1207.16015625 970.833984375 1213.79589844 c 1
EndSplineSet
EndChar

StartChar: Eth
Encoding: 208 208 146
Width: 1997
GlyphClass: 2
Flags: HW
LayerCount: 2
Fore
SplineSet
260 744 m 2
 168.03515625 744 113 749.08984375 113 842 c 0
 113 931.180664062 171.30078125 940 260 940 c 2
 974 940 l 2
 1068.7109375 940 1131 937.481445312 1131 842 c 256
 1131 746.5234375 1068.71582031 744 974 744 c 2
 260 744 l 2
1268 854 m 0
 1268 1055.66210938 1253.36621094 1397 1064 1397 c 0
 956.4765625 1397 937 1316.78808594 937 1210 c 2
 937 418 l 2
 937 311.216796875 956.474609375 231 1064 231 c 0
 1267.45019531 231 1268 632.274414062 1268 854 c 0
244 1176 m 2
 244 1316.42089844 85 1270.54003906 85 1360 c 0
 85 1572.80078125 355.803710938 1593 576 1593 c 2
 1064 1593 l 2
 1589.98242188 1593 1932 1363.82714844 1932 844 c 0
 1932 231.411132812 1598.74414062 0 980 0 c 2
 576 0 l 2
 352.586914062 0 85 21.822265625 85 236 c 0
 85 327.9609375 244 274.783203125 244 420 c 2
 244 1176 l 2
EndSplineSet
Validated: 524293
EndChar

StartChar: multiply
Encoding: 215 215 153
Width: 1140
GlyphClass: 2
Flags: HW
LayerCount: 2
Fore
SplineSet
1061 398 m 0
 1061 314.333007812 978.904296875 235 896 235 c 0
 848.364257812 235 810.540039062 260.459960938 786 285 c 2
 569 502 l 1
 350 285 l 2
 325.19140625 260.19140625 286.4921875 233 238 233 c 0
 154.333007812 233 75 315.095703125 75 398 c 0
 75 445.635742188 100.459960938 483.459960938 125 508 c 2
 344 727 l 1
 125 946 l 2
 100.006835938 972.18359375 72 1010.21386719 72 1059 c 0
 72 1142.23339844 155.33984375 1223 238 1223 c 0
 285.478515625 1223 323.09375 1195.90625 348 1171 c 2
 569 952 l 1
 786 1169 l 2
 812.130859375 1193.94335938 850.291015625 1223 899 1223 c 0
 981.705078125 1223 1064 1138.12011719 1064 1056 c 0
 1064 1008.59863281 1035.85351562 970.853515625 1011 946 c 2
 792 727 l 1
 1009 510 l 2
 1033.80859375 485.19140625 1061 446.4921875 1061 398 c 0
EndSplineSet
Validated: 524289
EndChar

StartChar: Oslash
Encoding: 216 216 154
Width: 1893
GlyphClass: 2
Flags: HW
LayerCount: 2
Fore
SplineSet
361 -35 m 6
 1410 1683 l 6
 1467.64160156 1779.06933594 1617.24707031 1711.32128906 1553 1606 c 6
 505 -112 l 6
 448.119140625 -205.4453125 302.749023438 -130.401367188 361 -35 c 6
EndSplineSet
Refer: 50 79 N 1 0 0 1 0 0 2
EndChar

StartChar: Thorn
Encoding: 222 222 160
Width: 1846
GlyphClass: 2
Flags: HW
LayerCount: 2
Fore
SplineSet
1211 905 m 0
 1211 1058.14648438 1157.35253906 1204 1005 1204 c 2
 902 1204 l 1
 904 625 l 1
 1035 625 l 2
 1169.61132812 625 1211 769.961914062 1211 905 c 0
226 1427 m 2
 226 1568.51757812 67 1522.35644531 67 1612 c 0
 67 1824.60253906 337.963867188 1847 558 1847 c 0
 784.102539062 1847 1060 1828.31542969 1060 1612 c 0
 1060 1518.90234375 898 1571.81347656 898 1423 c 2
 898 1384 l 1
 1142 1384 l 2
 1474.90625 1384 1793 1244.19726562 1793 924 c 0
 1793 604.658203125 1473.76464844 465 1142 465 c 0
 1068.62988281 465 971.548828125 464.23046875 900 469 c 1
 900 412 l 2
 900 275.254882812 1062 326.671875 1062 236 c 0
 1062 30.0205078125 804.372070312 0 560 0 c 0
 336.586914062 0 69 21.822265625 69 236 c 0
 69 327.9609375 228 274.783203125 228 420 c 2
 226 1427 l 2
EndSplineSet
Validated: 524321
EndChar

StartChar: germandbls
Encoding: 223 223 161
Width: 2011
GlyphClass: 2
Flags: HW
LayerCount: 2
Fore
SplineSet
1455 -57 m 0
 1297.94042969 -57 1097 1.50390625 1097 150 c 0
 1097 214.513671875 1125.42089844 260 1181 260 c 0
 1284.18261719 260 1326 387.639648438 1326 492 c 0
 1326 674.368164062 1209.22460938 788 1023 788 c 0
 972.91796875 788 951 825.526367188 951 874 c 256
 951 923.642578125 973.693359375 961 1025 961 c 0
 1131.4453125 961 1178 1046.38769531 1178 1153 c 0
 1178 1264.75292969 1125.984375 1397 1017 1397 c 0
 905.473632812 1397 902 1253.13476562 902 1137 c 2
 900 420 l 2
 900 277.631835938 1064 326.606445312 1064 236 c 0
 1064 28.6787109375 803.6953125 0 556 0 c 0
 332.557617188 0 64 21.6875 64 236 c 0
 64 328.255859375 224 274.07421875 224 420 c 2
 224 874 l 2
 224 1017.15820312 227.95703125 1144.70117188 263.5 1252 c 128
 355.958984375 1531.12109375 659.288085938 1593 1043 1593 c 0
 1350.265625 1593 1703 1486.32421875 1703 1198 c 0
 1703 1027.81347656 1558.42871094 941.799804688 1410 915 c 1
 1711.06347656 896.330078125 1944 687.302734375 1944 375 c 0
 1944 94.72265625 1740.8828125 -57 1455 -57 c 0
EndSplineSet
Validated: 524289
EndChar

StartChar: ae
Encoding: 230 230 168
Width: 2183
GlyphClass: 2
Flags: HW
LayerCount: 2
Fore
SplineSet
175 999 m 0
 175 1257.41015625 485.274414062 1325 759 1325 c 0
 931.8515625 1325 1074.74707031 1283.64257812 1156 1200 c 1
 1251.01660156 1265.20800781 1381.1953125 1325 1541 1325 c 0
 1874.33984375 1325 2122 1135.01464844 2122 807 c 0
 2122 692.486328125 2053.66894531 682 1940 682 c 2
 1459 682 l 1
 1459 446.967773438 1533.91308594 332 1764 332 c 0
 1879.05371094 332 1970.85351562 412 2059 412 c 0
 2090.49023438 412 2108 379.74609375 2108 348 c 0
 2108 336.099609375 2107.76269531 327.780273438 2104 319 c 0
 2020.6640625 106.350585938 1824.10644531 -25 1527 -25 c 0
 1355.71972656 -25 1236.05273438 51.2314453125 1156 143 c 1
 1107.99902344 10.998046875 789.72265625 -25 605 -25 c 0
 341.096679688 -25 77 51.4091796875 77 313 c 0
 77 657.565429688 358.549804688 760 716 760 c 2
 853 760 l 1
 853 913.337890625 863.653320312 1137 724 1137 c 0
 593.336914062 1137 591 938.951171875 591 803 c 1
 401.766601562 803 175 811.930664062 175 999 c 0
621 377 m 0
 621 270.131835938 645.845703125 205 754 205 c 0
 843.703125 205 857 267.881835938 857 358 c 0
 857 450.50390625 852.59375 550.537109375 851 643 c 1
 833.443359375 645.5078125 818.08984375 647 799 647 c 0
 655.220703125 647 621 521.77734375 621 377 c 0
1783 823 m 1
 1783 965.135742188 1752.82714844 1069 1615 1069 c 0
 1496.10351562 1069 1463 946.376953125 1463 823 c 1
 1783 823 l 1
EndSplineSet
Validated: 524321
Substitution2: "'smcp' Lowercase to Small Capitals in Latin lookup 1 subtable" ae.sc
Substitution2: "'aalt' Access All Alternates in Latin lookup 0 subtable" ae.sc
EndChar

StartChar: igrave
Encoding: 236 236 174
Width: 1062
GlyphClass: 2
Flags: HW
LayerCount: 2
Fore
SplineSet
239 915 m 2
 239 1043.20410156 93 999.348632812 93 1081 c 0
 93 1275.81933594 338.2734375 1296 540 1296 c 256
 760.64453125 1296 851 1280.50585938 851 1063 c 2
 851 381 l 2
 851 252.092773438 999 297.061523438 999 215 c 0
 999 27.0869140625 763.08203125 0 540 0 c 0
 336.036132812 0 93 19.578125 93 215 c 0
 93 299.0078125 239 247.5546875 239 381 c 2
 239 915 l 2
17 2037 m 0
 17 2167.77734375 122.374023438 2266 254 2266 c 0
 469.41796875 2266 567.71875 1962.36230469 657 1821 c 0
 710.551757812 1737.24023438 789 1648.17480469 789 1533 c 0
 789 1483.64648438 742.162109375 1436 693 1436 c 0
 575.041015625 1436 440.819335938 1569.98535156 343.5 1639.5 c 128
 226.436523438 1723.1171875 17 1847.08007812 17 2037 c 0
EndSplineSet
Substitution2: "'smcp' Lowercase to Small Capitals in Latin lookup 1 subtable" igrave.sc
Substitution2: "'aalt' Access All Alternates in Latin lookup 0 subtable" igrave.sc
EndChar

StartChar: iacute
Encoding: 237 237 175
Width: 1057
GlyphClass: 2
Flags: HW
LayerCount: 2
Fore
SplineSet
88 1081 m 0
 88 1275.81933594 333.2734375 1296 535 1296 c 256
 685.362304688 1296 816.978515625 1294.24707031 838 1176 c 128
 843.333007812 1146 846 1108.33300781 846 1063 c 2
 846 381 l 2
 846 317.298828125 870.305664062 280.461914062 920 270 c 128
 955.014648438 262.627929688 994 257.594726562 994 215 c 0
 994 27.0869140625 758.08203125 0 535 0 c 0
 331.036132812 0 88 19.578125 88 215 c 0
 88 273.059570312 161.944335938 261.022460938 196 285.5 c 128
 221.677734375 303.956054688 234 332.63671875 234 381 c 2
 234 915 l 2
 234 978.12890625 210.260742188 1015.62890625 161 1026 c 128
 126.252929688 1033.31542969 88 1038.72949219 88 1081 c 0
640 2235 m 0
 773.07421875 2235 878 2136.28320312 878 2006 c 0
 878 1932.80957031 842.353515625 1877.21679688 806 1831.5 c 128
 715.680664062 1717.91601562 582.346679688 1633.51367188 466 1547 c 0
 398.666992188 1496.33300781 343.666992188 1460 301 1438 c 128
 258.333007812 1416 225.333007812 1405 202 1405 c 0
 152.306640625 1405 106 1453.33691406 106 1502 c 0
 106 1542.94042969 117.244140625 1570.31152344 133 1605.5 c 128
 183.581054688 1718.46386719 267.232421875 1834.09960938 329 1945 c 128
 381.765625 2039.73828125 440.377929688 2133.17871094 519 2194 c 128
 554.333007812 2221.33300781 594.666992188 2235 640 2235 c 0
EndSplineSet
Validated: 524289
Substitution2: "'smcp' Lowercase to Small Capitals in Latin lookup 1 subtable" iacute.sc
Substitution2: "'aalt' Access All Alternates in Latin lookup 0 subtable" iacute.sc
EndChar

StartChar: icircumflex
Encoding: 238 238 176
Width: 1052
GlyphClass: 2
Flags: HW
LayerCount: 2
Fore
SplineSet
83 1081 m 0
 83 1275.81933594 328.2734375 1296 530 1296 c 256
 680.362304688 1296 811.978515625 1294.24707031 833 1176 c 128
 838.333007812 1146 841 1108.33300781 841 1063 c 2
 841 381 l 2
 841 317.298828125 865.305664062 280.461914062 915 270 c 128
 950.014648438 262.627929688 989 257.594726562 989 215 c 0
 989 27.0869140625 753.08203125 0 530 0 c 0
 326.036132812 0 83 19.578125 83 215 c 0
 83 273.059570312 156.944335938 261.022460938 191 285.5 c 128
 216.677734375 303.956054688 229 332.63671875 229 381 c 2
 229 915 l 2
 229 978.12890625 205.260742188 1015.62890625 156 1026 c 128
 121.252929688 1033.31542969 83 1038.72949219 83 1081 c 0
158 1413 m 0
 92.6611328125 1413 46 1454.86132812 46 1521 c 0
 46 1540.33300781 50.3330078125 1561.66699219 59 1585 c 2
 101 1696 l 2
 136.333007812 1788 167.833007812 1867.66699219 195.5 1935 c 128
 252.350585938 2073.359375 312.424804688 2230 491 2230 c 256
 669.576171875 2230 731.109375 2071.23925781 787.5 1934 c 128
 815.166992188 1866.66699219 846.666992188 1787 882 1695 c 2
 924 1585 l 2
 932.666992188 1561.66699219 937 1540.33300781 937 1521 c 0
 937 1454.85839844 890.340820312 1413 825 1413 c 0
 750.576171875 1413 720.622070312 1455.109375 683.5 1502 c 128
 664.5 1526 640.666992188 1557 612 1595 c 2
 491 1757 l 1
 371 1595 l 2
 325.87109375 1535.17773438 295.098632812 1486.88574219 248.5 1446.5 c 128
 222.2578125 1423.75683594 201.411132812 1413 158 1413 c 0
EndSplineSet
Validated: 524289
Substitution2: "'smcp' Lowercase to Small Capitals in Latin lookup 1 subtable" icircumflex.sc
Substitution2: "'aalt' Access All Alternates in Latin lookup 0 subtable" icircumflex.sc
EndChar

StartChar: idieresis
Encoding: 239 239 177
Width: 1475
GlyphClass: 2
Flags: HW
LayerCount: 2
Fore
SplineSet
312 1081 m 0
 312 1275.81933594 557.2734375 1296 759 1296 c 256
 909.362304688 1296 1040.97851562 1294.24707031 1062 1176 c 128
 1067.33300781 1146 1070 1108.33300781 1070 1063 c 2
 1070 381 l 2
 1070 317.298828125 1094.30566406 280.461914062 1144 270 c 128
 1179.01464844 262.627929688 1218 257.594726562 1218 215 c 0
 1218 27.0869140625 982.08203125 0 759 0 c 0
 555.036132812 0 312 19.578125 312 215 c 0
 312 273.059570312 385.944335938 261.022460938 420 285.5 c 128
 445.677734375 303.956054688 458 332.63671875 458 381 c 2
 458 915 l 2
 458 978.12890625 434.260742188 1015.62890625 385 1026 c 128
 350.252929688 1033.31542969 312 1038.72949219 312 1081 c 0
307 1386 m 0
 150.1875 1386 23 1472.84570312 23 1634 c 0
 23 1797.70996094 148.923828125 1882 307 1882 c 0
 467.322265625 1882 592 1798.68652344 592 1634 c 0
 592 1468.68164062 467.401367188 1386 307 1386 c 0
1170 1386 m 0
 1012.98828125 1386 885 1472.5546875 885 1634 c 0
 885 1797.953125 1011.71875 1882 1170 1882 c 0
 1329.8046875 1882 1454 1798.22949219 1454 1634 c 0
 1454 1469.17382812 1329.87304688 1386 1170 1386 c 0
EndSplineSet
Validated: 524289
Substitution2: "'smcp' Lowercase to Small Capitals in Latin lookup 1 subtable" idieresis.sc
Substitution2: "'aalt' Access All Alternates in Latin lookup 0 subtable" idieresis.sc
EndChar

StartChar: eth
Encoding: 240 240 178
Width: 1589
GlyphClass: 2
Flags: HW
LayerCount: 2
Fore
SplineSet
1046 1441 m 1
 1302.99902344 1285.11523438 1542 1016.390625 1542 619 c 0
 1542 184.780273438 1226.69042969 -49 786 -49 c 0
 378.16796875 -49 51 144.004882812 51 543 c 0
 51 857.107421875 273.663085938 1075 593 1075 c 0
 721.282226562 1075 823.322265625 1042.40136719 919 994 c 1
 884.911132812 1102.82324219 816.391601562 1292.25292969 731 1237 c 2
 612 1160 l 2
 588.333007812 1144.22167969 560.896484375 1122 529 1122 c 0
 491.915039062 1122 457 1171.80859375 457 1208 c 0
 457 1248.21679688 498.692382812 1271.05761719 529 1290 c 2
 572 1317 l 1
 464.260742188 1357.40234375 249 1362.28222656 249 1506 c 0
 249 1572.30273438 294.84375 1618 362 1618 c 0
 566.571289062 1618 738.731445312 1580.95019531 886 1521 c 1
 1008 1599 l 2
 1032.12890625 1614.44238281 1058.94433594 1637 1090 1637 c 0
 1126.87890625 1637 1164 1584.84570312 1164 1550 c 0
 1164 1508.69628906 1116.30859375 1486.25878906 1085 1466 c 2
 1046 1441 l 1
956 781 m 0
 956 808.0703125 862.759765625 791 817 791 c 0
 693.104492188 791 649 594.495117188 649 465 c 0
 649 343.229492188 684.442382812 217 804 217 c 0
 984.619140625 217 956 576.155273438 956 781 c 0
EndSplineSet
Validated: 524321
Substitution2: "'smcp' Lowercase to Small Capitals in Latin lookup 1 subtable" eth.sc
Substitution2: "'aalt' Access All Alternates in Latin lookup 0 subtable" eth.sc
EndChar

StartChar: divide
Encoding: 247 247 185
Width: 1090
GlyphClass: 2
Flags: HW
LayerCount: 2
Fore
SplineSet
816 340 m 0
 816 202.077148438 709.110351562 124 569 124 c 256
 427.815429688 124 323 202.58984375 323 340 c 0
 323 476.8359375 429.763671875 556 569 556 c 0
 709.442382812 556 816 476.6796875 816 340 c 0
816 1112 m 0
 816 974.077148438 709.110351562 896 569 896 c 256
 427.815429688 896 323 974.58984375 323 1112 c 0
 323 1248.8359375 429.763671875 1328 569 1328 c 0
 709.442382812 1328 816 1248.6796875 816 1112 c 0
181 629 m 2
 89.03515625 629 34 634.08984375 34 727 c 0
 34 816.180664062 92.30078125 825 181 825 c 2
 895 825 l 2
 989.7109375 825 1052 822.481445312 1052 727 c 256
 1052 631.5234375 989.715820312 629 895 629 c 2
 181 629 l 2
EndSplineSet
Validated: 524289
EndChar

StartChar: oslash
Encoding: 248 248 186
Width: 1579
GlyphClass: 2
Flags: HW
LayerCount: 2
Fore
SplineSet
297 -34 m 2
 1186 1422 l 2
 1212.6171875 1466.36132812 1247.05664062 1484.85058594 1276.60839844 1484.85058594 c 0
 1311.71191406 1484.85058594 1339.91699219 1458.75976562 1339.91699219 1418.953125 c 0
 1339.91699219 1400.23828125 1333.43652344 1378.64453125 1319 1355 c 2
 430 -101 l 2
 403.674804688 -144.249023438 368.53515625 -162.629882812 338.415039062 -162.629882812 c 0
 303.578125 -162.629882812 275.45703125 -138.040039062 275.45703125 -98.8974609375 c 0
 275.45703125 -80.2158203125 282.116210938 -58.376953125 297 -34 c 2
EndSplineSet
Refer: 82 111 N 1 0 0 1 -1 0 2
Substitution2: "'smcp' Lowercase to Small Capitals in Latin lookup 1 subtable" oslash.sc
Substitution2: "'aalt' Access All Alternates in Latin lookup 0 subtable" oslash.sc
EndChar

StartChar: thorn
Encoding: 254 254 192
Width: 1758
GlyphClass: 2
Flags: HW
LayerCount: 2
Fore
SplineSet
472 1681 m 0
 721.896484375 1681 784 1646.67675781 784 1401 c 2
 784 1194 l 1
 876.028320312 1275.80371094 1010.15527344 1325 1187 1325 c 0
 1565.53710938 1325 1703 1017.21875 1703 641 c 0
 1703 271.548828125 1540.48632812 -35 1173 -35 c 0
 1001.44140625 -35 875.04296875 12.9638671875 784 90 c 1
 784 -229 l 2
 784 -357.603515625 929 -312.94921875 929 -395 c 0
 929 -590.34765625 674.198242188 -614 472 -614 c 0
 268.591796875 -614 26 -594.013671875 26 -399 c 0
 26 -314.546875 171 -366.6796875 171 -233 c 2
 171 1300 l 2
 171 1429.17675781 26 1383.63574219 26 1466 c 0
 26 1660.48925781 270.763671875 1681 472 1681 c 0
1072 637 m 0
 1072 826.556640625 1080.58984375 1069 904 1069 c 0
 853.92578125 1069 784 1064.27832031 784 1028 c 2
 784 272 l 1
 819.051757812 249.930664062 866.296875 229 923 229 c 0
 1105.87890625 229 1072 447.196289062 1072 637 c 0
EndSplineSet
Validated: 524321
Substitution2: "'smcp' Lowercase to Small Capitals in Latin lookup 1 subtable" thorn.sc
Substitution2: "'aalt' Access All Alternates in Latin lookup 0 subtable" thorn.sc
EndChar

StartChar: Dcroat
Encoding: 272 272 210
Width: 1990
GlyphClass: 2
Flags: HW
LayerCount: 2
Fore
SplineSet
266 739 m 2
 174.03515625 739 119 744.08984375 119 837 c 0
 119 926.180664062 177.30078125 935 266 935 c 2
 980 935 l 2
 1074.7109375 935 1137 932.481445312 1137 837 c 256
 1137 741.5234375 1074.71582031 739 980 739 c 2
 266 739 l 2
930 418 m 2
 930 311.216796875 949.474609375 231 1057 231 c 0
 1149.31445312 231 1190.54980469 319.471679688 1215 402.5 c 128
 1251.07128906 524.9921875 1261 686.399414062 1261 854 c 0
 1261 1047.953125 1241.36523438 1250.53125 1152 1352.5 c 128
 1126 1382.16699219 1094.33300781 1397 1057 1397 c 0
 949.4765625 1397 930 1316.78808594 930 1210 c 2
 930 418 l 2
78 1360 m 0
 78 1572.80078125 348.803710938 1593 569 1593 c 2
 1057 1593 l 2
 1582.98242188 1593 1925 1363.82714844 1925 844 c 0
 1925 231.411132812 1591.74414062 0 973 0 c 2
 569 0 l 2
 345.586914062 0 78 21.822265625 78 236 c 0
 78 298.512695312 158.610351562 288.150390625 195.5 314.5 c 128
 223.622070312 334.586914062 237 367.13671875 237 420 c 2
 237 1176 l 2
 237 1246.30371094 211.012695312 1285.94824219 157.5 1299 c 128
 120.161132812 1308.10742188 78 1313.41503906 78 1360 c 0
EndSplineSet
Validated: 524293
EndChar

StartChar: glyph211
Encoding: 273 273 211
Width: 1800
GlyphClass: 2
Flags: HW
LayerCount: 2
Fore
SplineSet
866 1360 m 2
 774.03515625 1360 719 1365.08984375 719 1458 c 0
 719 1547.18066406 777.30078125 1556 866 1556 c 2
 1580 1556 l 2
 1674.7109375 1556 1737 1553.48144531 1737 1458 c 256
 1737 1362.5234375 1674.71582031 1360 1580 1360 c 2
 866 1360 l 2
57 641 m 0
 57 1018.28515625 218.811523438 1325 595 1325 c 0
 761.038085938 1325 883.666992188 1278.74316406 972 1204 c 1
 972 1505 l 2
 972 1569.359375 949.18359375 1605.2578125 899.5 1616 c 128
 864.63671875 1623.53808594 827 1628.28515625 827 1671 c 0
 827 1865.48925781 1071.76367188 1886 1273 1886 c 0
 1424.71582031 1886 1556.5078125 1883.46191406 1580 1766 c 128
 1586 1736 1589 1698.33300781 1589 1653 c 2
 1585 385 l 2
 1585 319.684570312 1608.25097656 282.095703125 1658.5 270.5 c 128
 1693.19824219 262.4921875 1732 257.7265625 1732 215 c 0
 1732 27.0869140625 1496.08203125 0 1273 0 c 0
 1137.28027344 0 1044.18945312 35.115234375 1003 127 c 1
 903.026367188 34.716796875 764.802734375 -25 567 -25 c 0
 193.072265625 -25 57 269.390625 57 641 c 0
661 637 m 0
 661 467.889648438 663.311523438 229 827 229 c 0
 882.231445312 229 938.373046875 253.115234375 974 274 c 1
 972.666992188 291.333007812 972 308.833007812 972 326.5 c 130
 972 1014 l 1
 931.482421875 1037.83398438 874.375976562 1069 813 1069 c 0
 641.9296875 1069 661 818.936523438 661 637 c 0
EndSplineSet
EndChar

StartChar: Hbar
Encoding: 294 294 231
Width: 2311
GlyphClass: 2
Flags: HW
LayerCount: 2
Fore
SplineSet
159 1042 m 2
 115.578125 1042 89 1068.11328125 89 1113 c 0
 89 1158.69824219 115.021484375 1185 159 1185 c 2
 2140 1185 l 2
 2185.04003906 1185 2210 1159.66210938 2210 1113 c 0
 2210 1067.13378906 2184.47753906 1042 2140 1042 c 2
 159 1042 l 2
1719 0 m 0
 1492.11523438 0 1217 18.8349609375 1217 236 c 0
 1217 299.321289062 1298.73730469 288.690429688 1335.5 316 c 128
 1363.71582031 336.9609375 1377 370.013671875 1377 424 c 2
 1377 729 l 1
 926 729 l 1
 926 424 l 2
 926 352.403320312 953.283203125 311.02734375 1008 298 c 128
 1045.41699219 289.090820312 1088 282.34375 1088 236 c 0
 1088 30.0205078125 830.372070312 0 586 0 c 0
 362.586914062 0 95 21.822265625 95 236 c 0
 95 298.512695312 175.610351562 288.150390625 212.5 314.5 c 128
 240.622070312 334.586914062 254 367.13671875 254 420 c 2
 254 1174 l 2
 254 1244.30371094 228.012695312 1283.94824219 174.5 1297 c 128
 137.161132812 1306.10742188 95 1311.41503906 95 1358 c 0
 95 1570.60253906 365.963867188 1593 586 1593 c 0
 812.102539062 1593 1088 1574.31542969 1088 1358 c 0
 1088 1295.07324219 1006.61328125 1306.00976562 969.5 1279.5 c 128
 941.723632812 1259.65917969 928 1225.89160156 928 1174 c 2
 928 922 l 1
 1377 922 l 1
 1377 1174 l 2
 1377 1244.46679688 1350.89355469 1284.16796875 1297 1297 c 128
 1259.30273438 1305.97558594 1217 1311.28027344 1217 1358 c 0
 1217 1563.23339844 1474.58203125 1593 1719 1593 c 0
 1961.09863281 1593 2216 1562.23144531 2216 1358 c 0
 2216 1294.81640625 2129.73339844 1305.33300781 2091.5 1279.5 c 128
 2062.59765625 1259.97070312 2048 1226.4296875 2048 1174 c 2
 2048 424 l 2
 2048 351.432617188 2075.92578125 310.744140625 2132 298 c 128
 2170.40429688 289.271484375 2216 282.778320312 2216 236 c 0
 2216 21.0869140625 1941.52539062 0 1719 0 c 0
EndSplineSet
Validated: 524293
EndChar

StartChar: hbar
Encoding: 295 295 232
Width: 1999
GlyphClass: 2
Flags: HW
LayerCount: 2
Fore
SplineSet
220 1354 m 2
 128.03515625 1354 73 1359.08984375 73 1452 c 0
 73 1541.18066406 131.30078125 1550 220 1550 c 2
 934 1550 l 2
 1028.7109375 1550 1091 1547.48144531 1091 1452 c 256
 1091 1356.5234375 1028.71582031 1354 934 1354 c 2
 220 1354 l 2
1477 0 m 0
 1273.03613281 0 1030 19.578125 1030 215 c 0
 1030 272.608398438 1106.69433594 263.784179688 1141 288 c 128
 1168.09570312 307.125976562 1180 338.427734375 1180 389 c 2
 1180 797 l 2
 1180 955.595703125 1144.53613281 1069 987 1069 c 0
 914.212890625 1069 863.458984375 1029.45898438 827 993 c 1
 827 385 l 2
 827 319.25390625 850.670898438 282.419921875 901 270.5 c 128
 935.607421875 262.303710938 975 257.916992188 975 215 c 0
 975 27.0869140625 739.08203125 0 516 0 c 0
 297.575195312 0 70 29.033203125 70 215 c 0
 70 272.994140625 142.993164062 261.44921875 177.5 285.5 c 128
 203.663085938 303.735351562 215 332.51171875 215 381 c 2
 215 1505 l 2
 215 1569.359375 192.18359375 1605.2578125 142.5 1616 c 128
 107.63671875 1623.53808594 70 1628.28515625 70 1671 c 0
 70 1856.90527344 297.846679688 1886 516 1886 c 0
 667.932617188 1886 798.469726562 1883.65136719 822 1766 c 128
 828 1736 831 1698.33300781 831 1653 c 2
 829 1151 l 1
 925.58203125 1255.98046875 1078.90332031 1325 1286 1325 c 0
 1656.49609375 1325 1784 1075.57128906 1784 709 c 2
 1784 393 l 2
 1784 324.233398438 1807.6875 285.28515625 1859.5 272 c 128
 1894.00488281 263.15234375 1935 258.09765625 1935 215 c 0
 1935 27.033203125 1700.20410156 0 1477 0 c 0
EndSplineSet
Validated: 524293
Substitution2: "'smcp' Lowercase to Small Capitals in Latin lookup 1 subtable" hbar.sc
Substitution2: "'aalt' Access All Alternates in Latin lookup 0 subtable" hbar.sc
EndChar

StartChar: dotlessi
Encoding: 305 305 241
Width: 1061
GlyphClass: 2
Flags: HW
LayerCount: 2
Fore
SplineSet
234 915 m 2
 234 1043.20410156 88 999.348632812 88 1081 c 0
 88 1275.81933594 333.2734375 1296 535 1296 c 256
 755.64453125 1296 846 1280.50585938 846 1063 c 2
 846 383 l 2
 846 252.75390625 994 297.592773438 994 215 c 0
 994 27.0869140625 758.08203125 0 535 0 c 0
 331.036132812 0 88 19.578125 88 215 c 0
 88 299.0078125 234 247.5546875 234 381 c 2
 234 915 l 2
EndSplineSet
Validated: 524289
Substitution2: "'smcp' Lowercase to Small Capitals in Latin lookup 1 subtable" dotlessi.sc
Substitution2: "'aalt' Access All Alternates in Latin lookup 0 subtable" dotlessi.sc
EndChar

StartChar: jcircumflex
Encoding: 309 309 243
Width: 955
GlyphClass: 2
Flags: HW
LayerCount: 2
Fore
SplineSet
526 1296 m 0
 745.8828125 1296 839 1279.94628906 839 1063 c 2
 839 221 l 2
 839 -148.845703125 593.489257812 -340 221 -340 c 0
 128.516601562 -340 36 -314.4375 36 -227 c 256
 36 -166.8359375 82.2900390625 -119 143 -119 c 0
 209.599609375 -119 286 -115.250976562 286 -53 c 0
 286 40.6005859375 225 110.177734375 225 221 c 2
 225 915 l 2
 225 1043.20410156 79 999.348632812 79 1081 c 0
 79 1275.81933594 324.2734375 1296 526 1296 c 0
138 1427 m 0
 72.6611328125 1427 26 1468.86132812 26 1535 c 0
 26 1554.33300781 30.3330078125 1575.66699219 39 1599 c 2
 81 1710 l 1
 156.168945312 1905.72363281 220.998046875 2244 471 2244 c 256
 721.618164062 2244 787.166992188 1903.84960938 862 1709 c 2
 904 1599 l 2
 912.666992188 1575.66699219 917 1554.33300781 917 1535 c 0
 917 1468.85839844 870.340820312 1427 805 1427 c 0
 694.01171875 1427 646.696289062 1536.49609375 592 1609 c 2
 471 1771 l 1
 351 1609 l 2
 295.5390625 1535.48144531 249.444335938 1427 138 1427 c 0
EndSplineSet
Validated: 524289
Substitution2: "'smcp' Lowercase to Small Capitals in Latin lookup 1 subtable" jcircumflex.sc
Substitution2: "'aalt' Access All Alternates in Latin lookup 0 subtable" jcircumflex.sc
EndChar

StartChar: kgreenlandic
Encoding: 312 312 246
Width: 1963
GlyphClass: 2
Flags: HW
LayerCount: 2
Fore
SplineSet
994 1080 m 0
 994 995.8125 846 1044.94726562 846 910 c 2
 846 715 l 1
 900.852539062 715 914.907226562 724.02734375 944 748 c 2
 1194 954 l 2
 1214.06054688 969.500976562 1231 984.595703125 1231 1010 c 0
 1231 1063.49023438 1121 1066.75390625 1121 1128 c 0
 1121 1276.10644531 1309.77441406 1296 1458 1296 c 0
 1618.79980469 1296 1770 1282.82519531 1770 1128 c 0
 1770 1026.93261719 1546.61035156 1006.27539062 1485 954 c 2
 1336 827 l 1
 1649 367 l 2
 1684.546875 315.161132812 1732.33105469 288.8671875 1806 281.5 c 128
 1853.10449219 276.7890625 1893 271.317382812 1893 219 c 0
 1893 28.513671875 1700.38867188 0 1504 0 c 0
 1384.47265625 0 1293.36230469 5.53125 1226.5 44 c 128
 1137.87011719 94.9921875 1148.88574219 222.724609375 1092 307 c 2
 944 525 l 1
 925.828125 549.228515625 892.262695312 553 846 553 c 1
 846 385 l 2
 846 254.165039062 994 297.056640625 994 215 c 0
 994 27.0869140625 758.08203125 0 535 0 c 0
 331.036132812 0 88 19.578125 88 215 c 0
 88 299.0078125 234 247.5546875 234 381 c 2
 234 914 l 2
 234 1042.20410156 88 998.348632812 88 1080 c 0
 88 1274.81933594 333.2734375 1295 535 1295 c 0
 758.379882812 1295 994 1267.97363281 994 1080 c 0
EndSplineSet
Validated: 524289
EndChar

StartChar: Lslash
Encoding: 321 321 253
Width: 1639
GlyphClass: 2
Flags: HW
LayerCount: 2
Fore
SplineSet
65.6591796875 651.5 m 128
 37.517578125 681.45703125 21.8828125 761.625 58.1591796875 794.5 c 128
 82.0810546875 816.178710938 119.39453125 825.37890625 157.159179688 836 c 2
 1040.15917969 1072 l 2
 1122.52929688 1093.18066406 1192.95410156 1108.10546875 1217.15917969 1018 c 0
 1243.79882812 918.833984375 1167.46386719 902.62109375 1091.15917969 883 c 2
 208.159179688 647 l 2
 161.07421875 633.756835938 101.05078125 613.825195312 65.6591796875 651.5 c 128
590.159179688 1593 m 0
 816.26171875 1593 1092.15917969 1574.31542969 1092.15917969 1358 c 0
 1092.15917969 1295.07324219 1010.77246094 1306.00976562 973.659179688 1279.5 c 128
 945.8828125 1259.65917969 932.159179688 1225.89160156 932.159179688 1174 c 2
 930.159179688 360 l 2
 930.159179688 272.965820312 965.530273438 216 1048.15917969 216 c 0
 1080.78417969 216 1106.46289062 221.482421875 1145.15917969 225 c 1
 1186.15917969 399 l 1
 1217.18847656 503.041015625 1274.88378906 606 1403.15917969 606 c 0
 1511.99804688 606 1577.15917969 533.57421875 1577.15917969 424 c 0
 1577.15917969 221.032226562 1474.71484375 0 1274.15917969 0 c 2
 590.159179688 0 l 2
 366.74609375 0 99.1591796875 21.822265625 99.1591796875 236 c 0
 99.1591796875 298.512695312 179.76953125 288.150390625 216.659179688 314.5 c 128
 244.78125 334.586914062 258.159179688 367.13671875 258.159179688 420 c 2
 258.159179688 1174 l 2
 258.159179688 1244.30371094 232.171875 1283.94824219 178.659179688 1297 c 128
 141.3203125 1306.10742188 99.1591796875 1311.41503906 99.1591796875 1358 c 0
 99.1591796875 1570.60253906 370.123046875 1593 590.159179688 1593 c 0
EndSplineSet
EndChar

StartChar: lslash
Encoding: 322 322 254
Width: 1261
GlyphClass: 2
Flags: HW
LayerCount: 2
Fore
SplineSet
63.6591796875 951.5 m 128
 35.517578125 981.45703125 19.8828125 1061.625 56.1591796875 1094.5 c 128
 80.0810546875 1116.17871094 117.39453125 1125.37890625 155.159179688 1136 c 2
 1038.15917969 1372 l 2
 1120.52929688 1393.18066406 1190.95410156 1408.10546875 1215.15917969 1318 c 0
 1241.79882812 1218.83398438 1165.46386719 1202.62109375 1089.15917969 1183 c 2
 206.159179688 947 l 2
 159.07421875 933.756835938 99.05078125 913.825195312 63.6591796875 951.5 c 128
169.159179688 1671 m 0
 169.159179688 1865.48925781 413.922851562 1886 615.159179688 1886 c 0
 766.357421875 1886 896.375 1883.97363281 918.659179688 1766 c 128
 924.326171875 1736 927.159179688 1698.33300781 927.159179688 1653 c 2
 927.159179688 385 l 2
 927.159179688 319.684570312 950.41015625 282.095703125 1000.65917969 270.5 c 128
 1035.35742188 262.4921875 1074.15917969 257.7265625 1074.15917969 215 c 0
 1074.15917969 27.0869140625 838.241210938 0 615.159179688 0 c 0
 411.750976562 0 169.159179688 19.986328125 169.159179688 215 c 0
 169.159179688 272.994140625 242.15234375 261.44921875 276.659179688 285.5 c 128
 302.822265625 303.735351562 314.159179688 332.51171875 314.159179688 381 c 2
 314.159179688 1505 l 2
 314.159179688 1569.359375 291.342773438 1605.2578125 241.659179688 1616 c 128
 206.795898438 1623.53808594 169.159179688 1628.28515625 169.159179688 1671 c 0
EndSplineSet
Substitution2: "'smcp' Lowercase to Small Capitals in Latin lookup 1 subtable" lslash.sc
Substitution2: "'aalt' Access All Alternates in Latin lookup 0 subtable" lslash.sc
EndChar

StartChar: Eng
Encoding: 330 330 261
Width: 1803
GlyphClass: 2
Flags: HW
LayerCount: 2
Fore
SplineSet
235 1174 m 2
 235 1314.42089844 76 1268.54003906 76 1358 c 0
 76 1532.27148438 224.309570312 1593 399 1593 c 0
 566.591796875 1593 627.215820312 1507.72363281 719 1423 c 2
 1292 889 l 2
 1294.94140625 886.05859375 1299.79296875 883 1306 883 c 0
 1318.65039062 883 1323 894.498046875 1323 911 c 2
 1323 1169 l 2
 1323 1241.68847656 1297.42578125 1282.80371094 1242 1296 c 0
 1204.31835938 1304.97167969 1161 1311.32714844 1161 1358 c 0
 1161 1517.29296875 1302.74511719 1593 1460 1593 c 0
 1626.7890625 1593 1773 1524.12402344 1773 1358 c 0
 1773 1266.05371094 1616 1319.24511719 1616 1174 c 2
 1616 215 l 2
 1616 201.708984375 1615.69042969 188.879882812 1615 176.557617188 c 2
 1615 -143 l 2
 1615 -401.149414062 1410.71972656 -538 1155 -538 c 0
 897.598632812 -538 680 -399.919921875 680 -143 c 0
 680 -2.931640625 765.111328125 101 905 101 c 0
 1019.42089844 101 1132 45.5771484375 1132 -69 c 0
 1132 -171.95703125 1024 -223.022460938 1024 -296 c 0
 1024 -322.309570312 1055.91015625 -329 1085 -329 c 0
 1197.953125 -329 1324 -256.333007812 1324 -143 c 2
 1324 55.4677734375 l 1
 1282.70800781 86.962890625 1246.59765625 125.63671875 1216 154 c 2
 545 776 l 2
 540.333007812 779.333007812 536.666992188 781 534 781 c 0
 528 781 525 777.666992188 525 771 c 0
 525 769 525.333007812 767.333007812 526 766 c 2
 526 424 l 2
 526 352.180664062 552.166992188 311.055664062 607 298 c 0
 644.681640625 289.028320312 688 282.672851562 688 236 c 0
 688 76.181640625 546.801757812 0 389 0 c 0
 221.62109375 0 76 69.2822265625 76 236 c 0
 76 327.9609375 235 274.783203125 235 420 c 2
 235 1174 l 2
EndSplineSet
Validated: 524289
EndChar

StartChar: eng
Encoding: 331 331 262
Width: 1919
GlyphClass: 2
Flags: HW
LayerCount: 2
Fore
SplineSet
1815 0 m 2
 1815 -380.787109375 1557.39648438 -633 1182 -633 c 0
 927.9453125 -633 732 -496.046875 732 -242 c 0
 732 -106.541015625 815.404296875 -4 951 -4 c 0
 1063.31152344 -4 1174 -57.7900390625 1174 -170 c 0
 1174 -271.549804688 1069 -320.782226562 1069 -393 c 0
 1069 -416.833984375 1103.18847656 -426 1131 -426 c 0
 1225.48046875 -426 1258 -341.08984375 1258 -242 c 2
 1258 797 l 2
 1258 955.01171875 1196.4609375 1085 1045 1085 c 0
 939.796875 1085 844 1019.34570312 844 915 c 2
 844 385 l 2
 844 254.165039062 992 297.056640625 992 215 c 0
 992 27.0869140625 756.08203125 0 533 0 c 0
 329.036132812 0 86 19.578125 86 215 c 0
 86 299.0078125 232 247.5546875 232 381 c 2
 232 915 l 2
 232 1043.20410156 86 999.348632812 86 1081 c 0
 86 1275.81933594 331.2734375 1296 533 1296 c 0
 666.64453125 1296 790.122070312 1272.60449219 830 1190 c 1
 945.953125 1272.50488281 1109.02929688 1325 1315 1325 c 0
 1685.75 1325 1815 1075.68652344 1815 709 c 2
 1815 0 l 2
EndSplineSet
Validated: 524289
Substitution2: "'smcp' Lowercase to Small Capitals in Latin lookup 1 subtable" eng.sc
Substitution2: "'aalt' Access All Alternates in Latin lookup 0 subtable" eng.sc
EndChar

StartChar: OE
Encoding: 338 338 268
Width: 2698
GlyphClass: 2
Flags: HW
LayerCount: 2
Fore
SplineSet
59 758 m 0
 59 1378.32617188 365.31640625 1595 991 1595 c 2
 2302 1595 l 2
 2491.16210938 1595 2588 1381.20410156 2588 1192 c 0
 2588 1088.62304688 2524.36914062 1020 2422 1020 c 0
 2300.29003906 1020 2239.21191406 1117.60644531 2216 1217 c 2
 2177 1384 l 1
 1843 1384 l 1
 1843 924 l 1
 1923 934 l 1
 1958.78808594 1005.57617188 1981.86132812 1118 2084 1118 c 0
 2230.44726562 1118 2291 989.73828125 2291 844 c 0
 2291 696.958984375 2230.52441406 567 2084 567 c 0
 1982.55371094 567 2001.30371094 742.211914062 1923 752 c 2
 1843 762 l 1
 1843 205 l 1
 2185 221 l 1
 2226 395 l 1
 2257.02929688 499.041015625 2314.72460938 602 2443 602 c 0
 2550.74902344 602 2617 528.66015625 2617 420 c 0
 2617 218.545898438 2514.76953125 -2 2314 -2 c 2
 907 -2 l 2
 391.865234375 -2 59 248.26953125 59 758 c 0
780 1026 m 0
 780 797.71875 750.853515625 256 964 256 c 2
 1101 256 l 1
 1101 1331 l 1
 927 1331 l 2
 777.799804688 1331 780 1179.3515625 780 1026 c 0
EndSplineSet
Validated: 524321
EndChar

StartChar: oe
Encoding: 339 339 269
Width: 2261
GlyphClass: 2
Flags: HW
LayerCount: 2
Fore
SplineSet
50 662 m 0
 50 1099.62988281 392.19921875 1325 836 1325 c 0
 1013.08300781 1325 1148.44238281 1264.12792969 1232 1172 c 1
 1313.734375 1259.86425781 1445.65722656 1325 1619 1325 c 0
 1952.33984375 1325 2200 1135.01464844 2200 807 c 0
 2200 692.486328125 2131.66894531 682 2018 682 c 2
 1537 682 l 1
 1537 446.967773438 1611.91308594 332 1842 332 c 0
 1959.92578125 332 2052.07617188 412 2137 412 c 0
 2168.04296875 412 2186 379.998046875 2186 349 c 0
 2186 337.190429688 2184.73925781 328.725585938 2181 320 c 0
 2097.34375 106.533203125 1902.30859375 -25 1604 -25 c 0
 1420.58398438 -25 1291.30957031 49.3544921875 1212 149 c 1
 1125.48925781 40.3076171875 970.462890625 -25 767 -25 c 0
 344.950195312 -25 50 246.059570312 50 662 c 0
652 803 m 0
 652 626.194335938 647.54296875 231 812 231 c 0
 925.091796875 231 930 396.66796875 930 514 c 0
 930 690.73046875 950.607421875 1069 783 1069 c 0
 668.797851562 1069 652 920.653320312 652 803 c 0
1860 823 m 1
 1860 964.790039062 1830.625 1069 1693 1069 c 0
 1574.10351562 1069 1541 946.376953125 1541 823 c 1
 1860 823 l 1
EndSplineSet
Validated: 524321
Substitution2: "'smcp' Lowercase to Small Capitals in Latin lookup 1 subtable" oe.sc
Substitution2: "'aalt' Access All Alternates in Latin lookup 0 subtable" oe.sc
EndChar

StartChar: Tbar
Encoding: 358 358 288
Width: 1856
GlyphClass: 2
Flags: HW
LayerCount: 2
Fore
SplineSet
443 757 m 2
 388.912109375 757 356 788.618164062 356 845 c 256
 356 901.38671875 388.901367188 933 443 933 c 2
 1386 933 l 2
 1441.24414062 933 1473 902.4140625 1473 845 c 256
 1473 787.58203125 1441.24804688 757 1386 757 c 2
 443 757 l 2
1495 1593 m 2
 1684.15234375 1593 1781 1381.00488281 1781 1192 c 0
 1781 1088.87109375 1718.09277344 1020 1616 1020 c 0
 1493.44921875 1020 1433.35839844 1113.9453125 1409 1217 c 2
 1370 1376 l 1
 1257 1380 l 1
 1257 424 l 2
 1257 352.180664062 1283.16699219 311.055664062 1338 298 c 128
 1375.68164062 289.028320312 1419 282.672851562 1419 236 c 0
 1419 30.0205078125 1161.37207031 0 917 0 c 0
 693.586914062 0 426 21.822265625 426 236 c 0
 426 298.512695312 506.610351562 288.150390625 543.5 314.5 c 128
 571.622070312 334.586914062 585 367.13671875 585 420 c 2
 585 1378 l 1
 473 1374 l 1
 434 1214 l 1
 404.748046875 1115.27539062 348.631835938 1018 227 1018 c 0
 124.84375 1018 61 1086.68652344 61 1190 c 0
 61 1380.0078125 158.88671875 1593 348 1593 c 2
 1495 1593 l 2
EndSplineSet
Validated: 524293
EndChar

StartChar: tbar
Encoding: 359 359 289
Width: 1224
GlyphClass: 2
Flags: HW
LayerCount: 2
Fore
SplineSet
209 674 m 2
 117.03515625 674 62 679.08984375 62 772 c 0
 62 861.180664062 120.30078125 870 209 870 c 2
 923 870 l 2
 1017.7109375 870 1080 867.481445312 1080 772 c 256
 1080 676.5234375 1017.71582031 674 923 674 c 2
 209 674 l 2
1135 1200 m 0
 1135 1127.58300781 1108.13769531 1096 1039 1096 c 2
 795 1096 l 1
 797 498 l 2
 797 403.375 804.588867188 328 900 328 c 0
 975.150390625 328 1018.34375 349.282226562 1070 377 c 0
 1080.66699219 383 1090.66699219 386 1100 386 c 0
 1131.46972656 386 1150 352.719726562 1150 321 c 0
 1150 309.666992188 1148.33300781 300.333007812 1145 293 c 0
 1075.23730469 114.984375 926.6171875 -25 683 -25 c 0
 311.6640625 -25 189 222.297851562 189 590 c 2
 189 1096 l 1
 140 1096 l 2
 96.8095703125 1096 61 1125 61 1165 c 0
 61 1185.66699219 70.3330078125 1203 89 1217 c 0
 281.956054688 1355.53222656 457.484375 1500.39257812 617 1655 c 0
 643.662109375 1681.66210938 677.202148438 1706 722 1706 c 0
 769.53515625 1706 795 1671.67382812 795 1620 c 2
 795 1296 l 1
 1039 1296 l 2
 1104.49023438 1296 1135 1268.49804688 1135 1200 c 0
EndSplineSet
Validated: 524293
Substitution2: "'smcp' Lowercase to Small Capitals in Latin lookup 1 subtable" tbar.sc
Substitution2: "'aalt' Access All Alternates in Latin lookup 0 subtable" tbar.sc
EndChar

StartChar: florin
Encoding: 402 402 313
Width: 1625
GlyphClass: 2
Flags: HW
LayerCount: 2
Fore
SplineSet
1080 1100 m 1
 1019.46679688 647.116210938 957.659179688 18 459 18 c 0
 270.48828125 18 72 61.396484375 72 246 c 0
 72 365.512695312 154.505859375 446 276 446 c 0
 373.750976562 446 452 403.625 452 310 c 0
 452 270.196289062 438.202148438 236.48828125 420 202 c 1
 592.243164062 202 602.350585938 905.631835938 623 1098 c 1
 408 1098 l 1
 437 1298 l 1
 658 1298 l 1
 705.745117188 1641.76464844 794.73046875 1860 1190 1860 c 0
 1401.51855469 1860 1604 1798.92675781 1604 1593 c 0
 1604 1474.93261719 1522.83300781 1392 1398 1392 c 0
 1269.71972656 1392 1217.88964844 1471.84570312 1217.88964844 1551.38867188 c 0
 1217.88964844 1605.45605469 1241.83691406 1659.38378906 1282 1688 c 1
 1240.61328125 1704.47753906 1191.89257812 1712.26953125 1145.48242188 1712.26953125 c 0
 1054.18066406 1712.26953125 971.818359375 1682.11328125 971.818359375 1628.59277344 c 0
 971.818359375 1542.49707031 1106.93945312 1409.07324219 1106.93945312 1311.60546875 c 0
 1106.93945312 1306.98632812 1106.63574219 1302.44824219 1106 1298 c 1
 1370 1298 l 1
 1342 1100 l 1
 1080 1100 l 1
EndSplineSet
Validated: 524289
EndChar

StartChar: circumflex
Encoding: 710 710 322
Width: 1016
GlyphClass: 2
Flags: HW
LayerCount: 2
Fore
SplineSet
179 43 m 0
 113.661132812 43 67 84.861328125 67 151 c 0
 67 170.333007812 71.3330078125 191.666992188 80 215 c 2
 122 326 l 1
 197.168945312 521.723632812 261.998046875 860 512 860 c 256
 762.618164062 860 828.166992188 519.849609375 903 325 c 2
 945 215 l 2
 953.666992188 191.666992188 958 170.333007812 958 151 c 0
 958 84.8583984375 911.340820312 43 846 43 c 0
 735.01171875 43 687.696289062 152.49609375 633 225 c 2
 512 387 l 1
 392 225 l 2
 336.5390625 151.481445312 290.444335938 43 179 43 c 0
EndSplineSet
Validated: 524289
EndChar

StartChar: caron
Encoding: 711 711 323
Width: 1017
GlyphClass: 2
Flags: HW
LayerCount: 2
Fore
SplineSet
842 869 m 0
 907.338867188 869 954 827.138671875 954 761 c 0
 954 741.666992188 949.666992188 720.333007812 941 697 c 2
 898 584 l 2
 822.645507812 387.79296875 758.680664062 52 508 52 c 256
 260.533203125 52 193.223632812 387.0234375 119 584 c 2
 76 697 l 2
 67.3330078125 720.333007812 63 741.666992188 63 761 c 0
 63 827.141601562 109.659179688 869 175 869 c 0
 285.856445312 869 333.7890625 760.12109375 388 687 c 2
 508 525 l 1
 629 687 l 2
 683.955078125 761.125976562 730.758789062 869 842 869 c 0
EndSplineSet
Validated: 524289
EndChar

StartChar: breve
Encoding: 728 728 324
Width: 1150
GlyphClass: 2
Flags: HW
LayerCount: 2
Fore
SplineSet
1069 557 m 1
 1069 248.708007812 880.904296875 61 578 61 c 256
 275.040039062 61 88 251.369140625 88 557 c 1
 285 557 l 1
 285 419.397460938 439.791015625 371 578 371 c 0
 716.614257812 371 871 421.356445312 871 557 c 1
 1069 557 l 1
EndSplineSet
Validated: 524289
EndChar

StartChar: ring
Encoding: 730 730 326
Width: 1070
GlyphClass: 2
Flags: HW
LayerCount: 2
Fore
SplineSet
536 637 m 256
 428.044921875 637 355 569.123046875 355 457 c 256
 355 345.177734375 428.466796875 279 536 279 c 256
 643.482421875 279 714 344.990234375 714 457 c 256
 714 569.333984375 643.9453125 637 536 637 c 256
538 61 m 0
 280.845703125 61 81 199.802734375 81 459 c 256
 81 720.8203125 281.310546875 858 538 858 c 0
 800.405273438 858 996 723.446289062 996 459 c 0
 996 193.123046875 799.201171875 61 538 61 c 0
EndSplineSet
Validated: 524289
EndChar

StartChar: ogonek
Encoding: 731 731 327
Width: 815
GlyphClass: 2
Flags: HW
LayerCount: 2
Fore
SplineSet
617 35 m 1
 503.303710938 1.5595703125 331 -226.762695312 331 -372 c 0
 331 -455.077148438 400.811523438 -482 484 -482 c 0
 565.51953125 -482 652.31640625 -460.30078125 697 -422 c 1
 752 -607 l 1
 680.3515625 -668.033203125 568.376953125 -701 437 -701 c 0
 243.26171875 -701 67 -624.013671875 67 -431 c 0
 67 -205.268554688 227.484375 35 408 35 c 2
 617 35 l 1
EndSplineSet
Validated: 524289
EndChar

StartChar: tilde
Encoding: 732 732 328
Width: 1500
GlyphClass: 2
Flags: HW
LayerCount: 2
Fore
SplineSet
497 691 m 0
 741.322265625 691 918.736328125 574 1179 574 c 0
 1265.84082031 574 1315 612.474609375 1315 700 c 0
 1315 703.333007812 1314.33300781 705.666992188 1313 707 c 2
 1436 582 l 1
 1374.15136719 354.044921875 1275.36523438 148 1000 148 c 0
 764.077148438 148 594.8203125 258 358 258 c 0
 266.0625 258 190 228.614257812 190 137 c 0
 190 134.333007812 191.333007812 133 194 133 c 1
 72 256 l 1
 141.888671875 465.666992188 235.794921875 691 497 691 c 0
EndSplineSet
Validated: 524293
EndChar

StartChar: hungarumlaut
Encoding: 733 733 329
Width: 1532
GlyphClass: 2
Flags: HW
LayerCount: 2
Fore
SplineSet
548 973 m 0
 673.30078125 973 759 866.666015625 759 743 c 0
 759 529.96875 515.39453125 387.037109375 392 285 c 0
 318.220703125 222.697265625 242.721679688 143 159 143 c 0
 112.04296875 143 73 193.041992188 73 240 c 0
 73 407.107421875 207.139648438 553.642578125 271 683 c 128
 324.201171875 790.766601562 401.135742188 973 548 973 c 0
1252 973 m 0
 1378.16210938 973 1468 885.75390625 1468 762 c 0
 1468 527.763671875 1158.65625 387.620117188 1013 286 c 0
 935.987304688 232.791015625 842.642578125 143 734 143 c 256
 687.161132812 143 648 187.387695312 648 234 c 2
 648 240 l 1
 655.763671875 402.99609375 834.37890625 561.629882812 913.5 683 c 128
 985.606445312 793.609375 1085.3125 973 1252 973 c 0
EndSplineSet
Validated: 524289
EndChar

StartChar: emdash
Encoding: 8212 8212 358
Width: 1890
GlyphClass: 2
Flags: HW
LayerCount: 2
Fore
SplineSet
241 446 m 2
 136.4453125 446 72 508.48046875 72 617 c 256
 72 725.529296875 136.4296875 788 241 788 c 2
 1652 788 l 2
 1758.41894531 788 1820 727.215820312 1820 617 c 256
 1820 506.775390625 1758.43066406 446 1652 446 c 2
 241 446 l 2
EndSplineSet
EndChar

StartChar: afii00208
Encoding: 8213 8213 359
Width: 1890
GlyphClass: 2
Flags: HW
LayerCount: 2
Fore
SplineSet
241 446 m 2
 136.4453125 446 72 508.48046875 72 617 c 256
 72 725.529296875 136.4296875 788 241 788 c 2
 1652 788 l 2
 1758.41894531 788 1820 727.215820312 1820 617 c 256
 1820 506.775390625 1758.43066406 446 1652 446 c 2
 241 446 l 2
EndSplineSet
EndChar

StartChar: quoteleft
Encoding: 8216 8216 360
Width: 802
GlyphClass: 2
Flags: HW
LayerCount: 2
Fore
SplineSet
79 1083 m 0
 79 1358.0078125 263.4375 1595 540 1595 c 0
 572.135742188 1595 603 1570.05566406 603 1539 c 0
 603 1483.88671875 561.029296875 1461.87011719 529.5 1436 c 128
 480.014648438 1395.39648438 456 1328.48632812 456 1234 c 1
 605.120117188 1234 724 1161.59765625 724 1017 c 0
 724 826.314453125 605.772460938 698 419 698 c 0
 203.69921875 698 79 862.68359375 79 1083 c 0
EndSplineSet
Validated: 524289
EndChar

StartChar: quoteright
Encoding: 8217 8217 361
Width: 790
GlyphClass: 2
Flags: HW
LayerCount: 2
Fore
SplineSet
705 1210 m 0
 705 931.489257812 522.365234375 698 244 698 c 0
 211.8828125 698 181 721.944335938 181 753 c 0
 181 808.11328125 222.970703125 830.129882812 254.5 856 c 128
 304.223632812 896.798828125 328 962.909179688 328 1058 c 1
 179.299804688 1058 60 1131.06445312 60 1275 c 0
 60 1464.65820312 179.377929688 1595 365 1595 c 0
 580.254882812 1595 705 1429.15039062 705 1210 c 0
EndSplineSet
Validated: 524289
EndChar

StartChar: quotedblleft
Encoding: 8220 8220 363
Width: 1508
GlyphClass: 2
Flags: HW
LayerCount: 2
Fore
SplineSet
79 1083 m 0
 79 1358.0078125 263.4375 1595 540 1595 c 0
 572.135742188 1595 603 1570.05566406 603 1539 c 0
 603 1483.88671875 561.029296875 1461.87011719 529.5 1436 c 128
 480.014648438 1395.39648438 456 1328.48632812 456 1234 c 1
 605.120117188 1234 724 1161.59765625 724 1017 c 0
 724 826.314453125 605.772460938 698 419 698 c 0
 203.69921875 698 79 862.68359375 79 1083 c 0
785 1083 m 0
 785 1358.0078125 969.4375 1595 1246 1595 c 0
 1278.13574219 1595 1309 1570.05566406 1309 1539 c 0
 1309 1483.88671875 1267.02929688 1461.87011719 1235.5 1436 c 128
 1186.01464844 1395.39648438 1162 1328.48632812 1162 1234 c 1
 1311.12011719 1234 1430 1161.59765625 1430 1017 c 0
 1430 826.314453125 1311.77246094 698 1125 698 c 0
 909.69921875 698 785 862.68359375 785 1083 c 0
EndSplineSet
Validated: 524289
EndChar

StartChar: quotedblright
Encoding: 8221 8221 364
Width: 1485
GlyphClass: 2
Flags: HW
LayerCount: 2
Fore
SplineSet
705 1210 m 0
 705 931.489257812 522.365234375 698 244 698 c 0
 211.8828125 698 181 721.944335938 181 753 c 0
 181 808.11328125 222.970703125 830.129882812 254.5 856 c 128
 304.223632812 896.798828125 328 962.909179688 328 1058 c 1
 179.299804688 1058 60 1131.06445312 60 1275 c 0
 60 1464.65820312 179.377929688 1595 365 1595 c 0
 580.254882812 1595 705 1429.15039062 705 1210 c 0
1400 1210 m 0
 1400 931.489257812 1217.36523438 698 939 698 c 0
 906.8828125 698 876 721.944335938 876 753 c 0
 876 808.11328125 917.970703125 830.129882812 949.5 856 c 128
 999.223632812 896.798828125 1023 962.909179688 1023 1058 c 1
 874.299804688 1058 755 1131.06445312 755 1275 c 0
 755 1464.65820312 874.377929688 1595 1060 1595 c 0
 1275.25488281 1595 1400 1429.15039062 1400 1210 c 0
EndSplineSet
Validated: 524289
EndChar

StartChar: dagger
Encoding: 8224 8224 366
Width: 1599
GlyphClass: 2
Flags: HW
LayerCount: 2
Fore
SplineSet
526 1563 m 2
 526 1673.45507812 401 1635.31640625 401 1706 c 0
 401 1865.42089844 597.629882812 1890 786 1890 c 256
 974.612304688 1890 1171 1865.47460938 1171 1706 c 0
 1171 1633.51269531 1046 1677.89746094 1046 1563 c 2
 1046 1362 l 1
 1273 1362 l 2
 1359.2109375 1362 1325.75488281 1458 1384 1458 c 0
 1507.20507812 1458 1527 1306.32714844 1527 1161 c 0
 1527 1016.30078125 1506.90820312 864 1384 864 c 0
 1326.02734375 864 1361.79589844 961 1273 961 c 2
 1046 961 l 1
 1046 328 l 2
 1046 217.096679688 1171 256.446289062 1171 186 c 0
 1171 25.7060546875 974.418945312 0 786 0 c 256
 597.345703125 0 401 25.650390625 401 186 c 0
 401 258.157226562 526 212.3046875 526 328 c 2
 526 961 l 1
 313 961 l 2
 226.3125 961 257.63671875 864 202 864 c 0
 79.1357421875 864 59 1016.484375 59 1161 c 0
 59 1306.51171875 78.7509765625 1458 202 1458 c 0
 256.845703125 1458 224.93359375 1362 313 1362 c 2
 526 1362 l 1
 526 1563 l 2
EndSplineSet
Validated: 524289
EndChar

StartChar: daggerdbl
Encoding: 8225 8225 367
Width: 1665
GlyphClass: 2
Flags: HW
LayerCount: 2
Fore
SplineSet
562 1563 m 2
 562 1673.45507812 437 1635.31640625 437 1706 c 0
 437 1865.42089844 633.629882812 1890 822 1890 c 256
 1010.61230469 1890 1207 1865.47460938 1207 1706 c 0
 1207 1633.51269531 1082 1677.89746094 1082 1563 c 2
 1082 1485 l 1
 1309 1485 l 2
 1395.2109375 1485 1361.75488281 1581 1420 1581 c 0
 1543.20507812 1581 1563 1429.32714844 1563 1284 c 0
 1563 1139.30078125 1542.90820312 987 1420 987 c 0
 1362.33300781 987 1397.09667969 1083 1309 1083 c 2
 1082 1083 l 1
 1082 813 l 1
 1309 813 l 2
 1395.2109375 813 1361.75488281 909 1420 909 c 0
 1543.20507812 909 1563 757.327148438 1563 612 c 0
 1563 467.30078125 1542.90820312 315 1420 315 c 0
 1362.02734375 315 1397.79589844 412 1309 412 c 2
 1082 412 l 1
 1082 328 l 2
 1082 217.096679688 1207 256.446289062 1207 186 c 0
 1207 25.7060546875 1010.41894531 0 822 0 c 256
 633.345703125 0 437 25.650390625 437 186 c 0
 437 258.157226562 562 212.3046875 562 328 c 2
 562 412 l 1
 349 412 l 2
 262.3125 412 293.63671875 315 238 315 c 0
 115.135742188 315 95 467.484375 95 612 c 0
 95 757.51171875 114.750976562 909 238 909 c 0
 292.845703125 909 260.93359375 813 349 813 c 2
 562 813 l 1
 562 1083 l 1
 349 1083 l 2
 262.90625 1083 293.182617188 987 238 987 c 0
 115.135742188 987 95 1139.484375 95 1284 c 0
 95 1429.51171875 114.750976562 1581 238 1581 c 0
 292.845703125 1581 260.93359375 1485 349 1485 c 2
 562 1485 l 1
 562 1563 l 2
EndSplineSet
Validated: 524289
EndChar

StartChar: bullet
Encoding: 8226 8226 368
Width: 1162
GlyphClass: 2
Flags: HW
LayerCount: 2
Fore
SplineSet
1087 834 m 0
 1087 538.448242188 864.603515625 360 565 360 c 0
 276.235351562 360 73 547.141601562 73 829 c 0
 73 1125.55664062 306.741210938 1282 610 1282 c 0
 891.182617188 1282 1087 1108.70703125 1087 834 c 0
EndSplineSet
Validated: 524289
EndChar

StartChar: perthousand
Encoding: 8240 8240 370
Width: 4834
GlyphClass: 2
Flags: HW
LayerCount: 2
Fore
SplineSet
2116 1929 m 0
 2250.1015625 1929 2360 1852.92578125 2360 1726 c 0
 2360 1682.06445312 2343.75390625 1645.91796875 2327 1616 c 0
 2064.8515625 1129.15332031 1781.19140625 623.5703125 1516.5 137.5 c 128
 1466.44921875 45.587890625 1426.21484375 -53 1288 -53 c 0
 1162.87304688 -53 1049 32.5126953125 1049 145 c 0
 1049 189.900390625 1064.03808594 227.7109375 1081 258 c 0
 1353.13378906 768.250976562 1650.36132812 1291.95605469 1925 1802 c 0
 1958.76757812 1866.72070312 2018.15234375 1929 2116 1929 c 0
56 1225 m 0
 56 1660.01464844 332.513671875 1929 761 1929 c 0
 1154.98730469 1929 1426 1693.66992188 1426 1298 c 0
 1426 859.08984375 1151.57226562 579 720 579 c 0
 319.188476562 579 56 821.848632812 56 1225 c 0
885 1188 m 0
 885 1360.1171875 858.91015625 1722 709 1722 c 0
 600.611328125 1722 595 1474.66308594 595 1349 c 0
 595 1172.07421875 618.03125 788 771 788 c 0
 879.758789062 788 885 1059.40722656 885 1188 c 0
1936 523 m 0
 1936 958.014648438 2212.51367188 1227 2641 1227 c 0
 3034.98730469 1227 3306 991.669921875 3306 596 c 0
 3306 157.08984375 3031.57226562 -123 2600 -123 c 0
 2199.18847656 -123 1936 119.848632812 1936 523 c 0
2765 486 m 0
 2765 658.1171875 2738.91015625 1020 2589 1020 c 0
 2480.61132812 1020 2475 772.663085938 2475 647 c 0
 2475 470.07421875 2498.03125 86 2651 86 c 0
 2759.75878906 86 2765 357.407226562 2765 486 c 0
3392 523 m 0
 3392 958.014648438 3668.51367188 1227 4097 1227 c 0
 4490.98730469 1227 4762 991.669921875 4762 596 c 0
 4762 157.08984375 4487.57226562 -123 4056 -123 c 0
 3655.18847656 -123 3392 119.848632812 3392 523 c 0
4221 486 m 0
 4221 658.1171875 4194.91015625 1020 4045 1020 c 0
 3936.61132812 1020 3931 772.663085938 3931 647 c 0
 3931 470.07421875 3954.03125 86 4107 86 c 0
 4215.75878906 86 4221 357.407226562 4221 486 c 0
EndSplineSet
Validated: 524289
EndChar

StartChar: guilsinglleft
Encoding: 8249 8249 371
Width: 1119
GlyphClass: 2
Flags: HW
LayerCount: 2
Fore
SplineSet
1034 252 m 0
 1034 167.334960938 980.806640625 106 895 106 c 0
 863.458007812 106 840.452148438 115.1171875 813 125 c 0
 650.596679688 187.462890625 506.466796875 237.993164062 365 298.5 c 128
 209.1640625 365.15234375 68 424.099609375 68 639 c 256
 68 786.686523438 129.336914062 854.833984375 225.5 911 c 128
 395.969726562 1010.56640625 604.932617188 1076.01953125 813 1153 c 0
 840.485351562 1163.16894531 863.479492188 1169 895 1169 c 0
 980.200195312 1169 1034 1109.72167969 1034 1026 c 0
 1034 886.614257812 823.349609375 811.571289062 721 754 c 2
 516 639 l 1
 721 524 l 2
 823.6328125 466.26953125 1034 391.235351562 1034 252 c 0
EndSplineSet
Validated: 524289
EndChar

StartChar: guilsinglright
Encoding: 8250 8250 372
Width: 1036
GlyphClass: 2
Flags: HW
LayerCount: 2
Fore
SplineSet
213 -14 m 0
 127.5546875 -14 73 45.0888671875 73 129 c 0
 73 192.291015625 114.63671875 236.685546875 152.5 277.5 c 128
 216.958007812 346.981445312 289.850585938 410.259765625 366 483 c 2
 530 639 l 1
 366 795 l 2
 289.666992188 867.915039062 217.142578125 930.8203125 152.5 1000.5 c 128
 114.540039062 1041.41796875 73 1085.58300781 73 1149 c 0
 73 1232.91015625 127.5625 1292 213 1292 c 0
 395.458007812 1292 570.8828125 1105.67480469 684 1012 c 0
 786.948242188 927.11328125 978 811.224609375 978 639 c 256
 978 468.180664062 786.186523438 350.258789062 684 266 c 0
 570.174804688 171.739257812 396.036132812 -14 213 -14 c 0
EndSplineSet
Validated: 524289
EndChar

StartChar: fraction
Encoding: 8260 8260 373
Width: 1645
GlyphClass: 2
Flags: HW
LayerCount: 2
Fore
SplineSet
1386 1849 m 0
 1504.24023438 1849 1620 1748.53710938 1620 1636 c 0
 1620 1579.14453125 1593.28222656 1537.72363281 1566 1503 c 0
 1235.08300781 1061.77734375 869.193359375 612.1328125 527.5 179 c 128
 470.408203125 106.629882812 424.221679688 25 303 25 c 0
 181.900390625 25 63 123.587890625 63 238 c 0
 63 291.55078125 92.8359375 336.586914062 117 368 c 0
 459.92578125 804.451171875 816.779296875 1261.65917969 1159 1699.5 c 128
 1216.44140625 1772.99023438 1260.31933594 1849 1386 1849 c 0
EndSplineSet
Validated: 524289
EndChar

StartChar: Euro
Encoding: 8364 8364 374
Width: 1778
GlyphClass: 2
Flags: HW
LayerCount: 2
Fore
SplineSet
1714 399 m 0
 1714 105.090820312 1339.41210938 -23 1032 -23 c 0
 593.920898438 -23 316.106445312 224.5859375 244 588 c 1
 153 588 l 2
 97.5146484375 588 65 618.702148438 65 676 c 0
 65 734.537109375 96.482421875 766 153 766 c 2
 227 766 l 1
 227 801.38671875 228.35546875 832.942382812 231 866 c 1
 153 866 l 2
 98.19921875 866 65 897.041992188 65 954 c 0
 65 1012.53710938 96.482421875 1044 153 1044 c 2
 260 1044 l 1
 353.805664062 1422.24707031 647.84375 1620 1126 1620 c 0
 1413.72265625 1620 1677 1475.98339844 1677 1192 c 0
 1677 1088.68164062 1613.15625 1020 1511 1020 c 0
 1267.16503906 1020 1359.09765625 1376 1151 1376 c 0
 1006.68652344 1376 957.57421875 1189.75488281 949 1044 c 1
 1267 1044 l 2
 1324.04394531 1044 1355 1012.81738281 1355 954 c 0
 1355 896.71484375 1322.34472656 866 1267 866 c 2
 952 866 l 1
 954.559570312 831.443359375 957.81640625 798.072265625 962 766 c 1
 1267 766 l 2
 1324.04394531 766 1355 734.817382812 1355 676 c 0
 1355 618.397460938 1323.01855469 588 1267 588 c 2
 1006 588 l 1
 1057.06738281 459.385742188 1144.08496094 367 1316 367 c 0
 1422.90820312 367 1533.41992188 409.525390625 1581 469 c 0
 1595.71875 488.624023438 1617.69433594 508 1646 508 c 0
 1692.70117188 508 1714 452.383789062 1714 399 c 0
EndSplineSet
Validated: 524289
EndChar

StartChar: trademark
Encoding: 8482 8482 375
Width: 2500
GlyphClass: 2
Flags: HW
LayerCount: 2
Fore
SplineSet
275 760 m 0
 275 817.362304688 374 783.51171875 374 872 c 2
 374 1460 l 1
 304 1460 l 1
 281 1362 l 1
 261.013671875 1296.04492188 224.517578125 1241 154 1241 c 0
 93.416015625 1241 52 1283.13574219 52 1346 c 0
 52 1462.01464844 112.427734375 1593 228 1593 c 0
 357.5703125 1593 463.83984375 1594 586 1594 c 128
 705.452148438 1594 807.615234375 1595 933 1595 c 0
 1048.96386719 1595 1109 1462.421875 1109 1348 c 0
 1109 1284.15234375 1068.2578125 1241 1006 1241 c 0
 936.408203125 1241 893.674804688 1295.29394531 879 1362 c 2
 857 1462 l 1
 787 1462 l 1
 787 877 l 2
 787 788.627929688 886 815.19140625 886 760 c 0
 886 632.12890625 729.158203125 614 578 614 c 0
 429.307617188 614 275 633.177734375 275 760 c 0
2319 877 m 2
 2319 787.580078125 2420 815.8125 2420 760 c 0
 2420 631.565429688 2262.54003906 614 2110 614 c 0
 1961.07617188 614 1809 633.075195312 1809 760 c 0
 1809 817.362304688 1908 783.51171875 1908 872 c 2
 1908 1169 l 1
 1690 760 l 2
 1686 750.666992188 1678.66699219 746 1668 746 c 0
 1656.6484375 746 1648.17089844 751.7265625 1643 760 c 2
 1404 1130 l 1
 1404 877 l 2
 1404 788.834960938 1502 815.084960938 1502 760 c 0
 1502 661.90234375 1416.87109375 614 1320 614 c 0
 1216.42089844 614 1127 656.166015625 1127 760 c 0
 1127 817.362304688 1226 783.51171875 1226 872 c 2
 1226 1335 l 2
 1226 1422.79589844 1127 1394.28125 1127 1450 c 0
 1127 1560.98046875 1241.67578125 1593 1355 1593 c 0
 1494.09667969 1593 1551.65429688 1525.7890625 1606 1438 c 2
 1772 1169 l 1
 1908 1423 l 2
 1952.96777344 1508.203125 2004.44824219 1593 2133 1593 c 0
 2285.56347656 1593 2420 1576.24609375 2420 1450 c 0
 2420 1392.28222656 2319 1426.84960938 2319 1335 c 2
 2319 877 l 2
EndSplineSet
Validated: 524289
EndChar

StartChar: minus
Encoding: 8722 8722 376
Width: 1180
GlyphClass: 2
Flags: HW
LayerCount: 2
Fore
SplineSet
229 557 m 2
 137.03515625 557 82 562.08984375 82 655 c 0
 82 744.180664062 140.30078125 753 229 753 c 2
 943 753 l 2
 1037.7109375 753 1100 750.481445312 1100 655 c 256
 1100 559.5234375 1037.71582031 557 943 557 c 2
 229 557 l 2
EndSplineSet
Validated: 524289
EndChar

StartChar: uniFB00
Encoding: 64256 64256 377
Width: 2394
GlyphClass: 2
Flags: HW
LayerCount: 2
Fore
SplineSet
842 383 m 2
 842 252.368164062 989 294.950195312 989 213 c 0
 989 25.330078125 753.990234375 0 531 0 c 0
 327.65234375 0 84 17.8837890625 84 213 c 0
 84 297.0078125 230 245.5546875 230 379 c 2
 230 1096 l 1
 181 1096 l 2
 111.203125 1096 84 1127 84 1200 c 0
 84 1269.05566406 114.845703125 1296 181 1296 c 2
 236 1296 l 1
 236 1666.25488281 469.087890625 1860 842 1860 c 0
 1078.11132812 1860 1291.36816406 1803.7265625 1339 1616 c 1
 1434.29785156 1771.94238281 1609.04199219 1860 1862 1860 c 0
 2119.27832031 1860 2368 1794.14746094 2368 1540 c 0
 2368 1420.17675781 2277.18164062 1346 2153 1346 c 0
 2020.19042969 1346 1917 1406.20703125 1917 1534 c 0
 1917 1572.49902344 1925.55273438 1606.01074219 1940 1638 c 1
 1897.00488281 1665.4453125 1825.12207031 1688.859375 1763.78613281 1688.859375 c 0
 1701.95410156 1688.859375 1650.83984375 1665.06542969 1650.83984375 1597.62109375 c 0
 1650.83984375 1513.24804688 1854 1389.56835938 1854 1296 c 1
 1960 1296 l 2
 2025.49023438 1296 2056 1268.49804688 2056 1200 c 0
 2056 1127.58300781 2029.13769531 1096 1960 1096 c 2
 1862 1096 l 1
 1862 383 l 2
 1862 252.368164062 2009 294.950195312 2009 213 c 0
 2009 25.330078125 1773.99023438 0 1551 0 c 0
 1347.65234375 0 1104 17.8837890625 1104 213 c 0
 1104 297.0078125 1250 245.5546875 1250 379 c 2
 1250 1096 l 1
 842 1096 l 1
 842 383 l 2
834 1296 m 1
 1256 1296 l 1
 1256 1324.40136719 1258.39257812 1352.92480469 1261 1379 c 1
 1228.28027344 1358.54980469 1186.77050781 1346 1133 1346 c 0
 1000.19042969 1346 897 1406.20703125 897 1534 c 0
 897 1572.49902344 905.552734375 1606.01074219 920 1638 c 1
 884.583984375 1652.56835938 831.680664062 1662.44726562 780.245117188 1662.44726562 c 0
 699.401367188 1662.44726562 622.182617188 1638.04296875 622.182617188 1569.08203125 c 0
 622.182617188 1490.32519531 834 1390.24414062 834 1296 c 1
EndSplineSet
Validated: 524289
Substitution2: "'smcp' Lowercase to Small Capitals in Latin lookup 1 subtable" f_f.sc
Substitution2: "'aalt' Access All Alternates in Latin lookup 0 subtable" f_f.sc
EndChar

StartChar: uniFB01
Encoding: 64257 64257 378
Width: 1990
GlyphClass: 3
Flags: HW
HStem: 1098 200<93.1526 229 886.609 1173> 1729.26 190.736<733.183 1203.04>
VStem: 229 612<291.899 1098> 1173 608<280.395 1094.43> 1218 504<1430.5 1628.66>
LayerCount: 2
Back
SplineSet
214 1298 m 5xd0
 214 1738.55664162 567.04781301 1960 1004 1960 c 4
 1299.51953125 1960 1553.41113281 1874.25292969 1659 1694.5 c 4
 1687 1646.83300781 1701 1600.66699219 1701 1556 c 4
 1701 1412.1640625 1575.265625 1346 1428 1346 c 4
 1297.00585938 1346 1197 1407.84179688 1197 1534 c 4
 1197 1588.15136719 1222.5234375 1623.42578125 1260 1638 c 5
 1139.0111829 1732.38658922 1014.74936748 1769.26396533 908.844872281 1769.26396533 c 4
 747.742378187 1769.26396533 629.11993445 1683.92728357 629.11993445 1585.88148888 c 4xd4
 629.11993445 1453.52158739 845.303061916 1298 1465 1298 c 4
 1711.86328125 1298 1760 1168.62597656 1760 921 c 6
 1760 383 l 6
 1760 317.684570312 1783.25097656 280.095703125 1833.5 268.5 c 4
 1868.19824219 260.4921875 1907 255.7265625 1907 213 c 4
 1907 24.59375 1681.18359375 -2 1457 -2 c 4
 1253.03613281 -2 1050 17.578125 1050 213 c 4
 1050 296.87890625 1152 244.904403917 1152 373 c 6
 1152 1100 l 5
 820 1100 l 5
 820 383 l 6
 820 317.684570312 823.250976562 280.095703125 873.5 268.5 c 4
 908.198242188 260.4921875 937 255.7265625 937 213 c 4
 937 25.033203125 732.204101562 -2 509 -2 c 4
 305.036132812 -2 62 17.578125 62 213 c 4
 62 297.007576359 208 245.554318147 208 379 c 6
 208 1098 l 5xe8
 158 1098 l 6
 88.8798828125 1098 62 1129.5859375 62 1202 c 4
 62 1270.5 92.490234375 1298 158 1298 c 6
 214 1298 l 5xd0
EndSplineSet
Fore
SplineSet
235 1298 m 1xf0
 235 1738.55664062 588.047851562 1920 1025 1920 c 4
 1320.51953125 1920 1574.41113281 1874.25292969 1680 1694.5 c 0
 1708 1646.83300781 1722 1600.66699219 1722 1556 c 0
 1722 1412.1640625 1596.265625 1346 1449 1346 c 0
 1318.00585938 1346 1218 1407.84179688 1218 1534 c 0xe8
 1218 1588.15136719 1243.5234375 1623.42578125 1281 1638 c 1
 1160.01074219 1732.38671875 1035.74902344 1729.26367188 929.844726562 1729.26367188 c 4
 741.45703125 1729.26367188 634.063476562 1645.31835938 634.063476562 1548.28613281 c 4
 634.063476562 1415.41308594 835.446289062 1298 1306 1298 c 0
 1652.86328125 1298 1781 1258.62597656 1781 1011 c 2
 1781 383 l 2
 1781 317.684570312 1804.25097656 280.095703125 1854.5 268.5 c 0
 1889.19824219 260.4921875 1928 255.7265625 1928 213 c 0
 1928 24.59375 1702.18359375 -2 1478 -2 c 0
 1274.03613281 -2 1071 17.578125 1071 213 c 0
 1071 296.87890625 1173 244.904296875 1173 373 c 2
 1173 1100 l 1
 841 1100 l 1
 841 383 l 2
 841 317.684570312 844.250976562 280.095703125 894.5 268.5 c 0
 929.198242188 260.4921875 958 255.7265625 958 213 c 0
 958 25.033203125 753.204101562 -2 530 -2 c 0
 326.036132812 -2 83 17.578125 83 213 c 0
 83 297.0078125 229 245.5546875 229 379 c 2
 229 1098 l 1
 179 1098 l 2
 109.879882812 1098 83 1129.5859375 83 1202 c 0
 83 1270.5 113.490234375 1298 179 1298 c 2
 235 1298 l 1xf0
EndSplineSet
Validated: 524321
LCarets2: 1 0 
Ligature2: "'liga' Standard Ligatures in Latin lookup 3 subtable" f i
EndChar

StartChar: uniFB03
Encoding: 64259 64259 380
Width: 3116
GlyphClass: 2
Flags: HW
LayerCount: 2
Fore
SplineSet
2111 1960 m 0
 2428.13964844 1960 2818 1851.93945312 2818 1556 c 0
 2818 1412.1640625 2722.265625 1346 2575 1346 c 0
 2444.00585938 1346 2344 1407.84179688 2344 1534 c 0
 2344 1588.15136719 2369.5234375 1623.42578125 2407 1638 c 1
 2345.30859375 1724.97949219 2227.53515625 1769.38964844 2113.40820312 1769.38964844 c 0
 1962.46875 1769.38964844 1817.90820312 1691.70703125 1817.90820312 1532.078125 c 0
 1817.90820312 1447.95019531 1901.00976562 1298 1959 1298 c 2
 2612 1298 l 2
 2858.86328125 1298 2907 1168.62597656 2907 921 c 2
 2907 383 l 2
 2907 252.368164062 3054 294.950195312 3054 213 c 0
 3054 24.59375 2828.18359375 -2 2604 -2 c 0
 2400.03613281 -2 2157 17.578125 2157 213 c 0
 2157 296.87890625 2299 244.904296875 2299 373 c 2
 2299 1100 l 1
 1967 1100 l 1
 1967 383 l 2
 1967 252.368164062 2114 294.950195312 2114 213 c 0
 2114 25.033203125 1879.20410156 -2 1656 -2 c 0
 1452.03613281 -2 1209 17.578125 1209 213 c 0
 1209 297.0078125 1355 245.5546875 1355 379 c 2
 1355 1098 l 1
 841 1098 l 1
 841 383 l 2
 841 252.368164062 988 294.950195312 988 213 c 0
 988 25.330078125 752.990234375 0 530 0 c 0
 326.65234375 0 83 17.8837890625 83 213 c 0
 83 297.0078125 229 245.5546875 229 379 c 2
 229 1096 l 1
 180 1096 l 2
 110.203125 1096 83 1127 83 1200 c 0
 83 1269.05566406 113.845703125 1296 180 1296 c 2
 235 1296 l 1
 235 1666.25488281 468.087890625 1860 841 1860 c 0
 1098.27832031 1860 1327 1754.14746094 1327 1540 c 0
 1327 1420.17675781 1256.18164062 1346 1132 1346 c 0
 999.190429688 1346 896 1406.20703125 896 1534 c 0
 896 1572.49902344 904.552734375 1606.01074219 919 1638 c 1
 878.306640625 1663.68652344 833.018554688 1676.42089844 790.39453125 1676.42089844 c 0
 701.561523438 1676.42089844 624.296875 1621.11132812 624.296875 1512.46972656 c 0
 624.296875 1409.16601562 737.443359375 1296 833 1296 c 0
 1008.82714844 1296 1191.22949219 1298 1361 1298 c 1
 1361 1738.55664062 1674.04785156 1960 2111 1960 c 0
EndSplineSet
Validated: 524289
Substitution2: "'smcp' Lowercase to Small Capitals in Latin lookup 1 subtable" f_f_i.sc
Substitution2: "'aalt' Access All Alternates in Latin lookup 0 subtable" f_f_i.sc
EndChar

